<svg width="173" height="100" viewBox="0 0 173 100" fill="none" xmlns="http://www.w3.org/2000/svg">
<rect width="172.5" height="100" fill="#1C1F26"/>
<path d="M75.8993 51.3145L70.1623 45.5775C69.8253 45.2404 69.775 44.7143 70.0634 44.3348C71.7599 42.1023 77.8205 34.9978 86.2493 34.9978C94.6781 34.9978 100.739 42.1023 102.435 44.3348C102.724 44.7143 102.673 45.2404 102.336 45.5775L96.5993 51.3145L86.9558 41.6865C86.5654 41.2968 85.9332 41.2968 85.5428 41.6865L75.8993 51.3145ZM88.7493 59.9978H83.7493V63.3311L86.2493 64.9978L88.7493 63.3311V59.9978ZM93.527 52.974C93.9168 53.3647 93.9165 53.9973 93.5263 54.3875L89.916 57.9978C88.916 57.1811 87.6493 56.6645 86.2493 56.6645C84.8493 56.6645 83.5826 57.1811 82.5826 57.9978L78.9723 54.3875C78.5821 53.9973 78.5818 53.3647 78.9716 52.974L85.5415 46.3905C85.9322 45.9989 86.5665 45.9989 86.9571 46.3905L93.527 52.974ZM87.916 53.3311C87.916 52.4145 87.166 51.6645 86.2493 51.6645C85.3326 51.6645 84.5826 52.4145 84.5826 53.3311C84.5826 54.2478 85.3326 54.9978 86.2493 54.9978C87.166 54.9978 87.916 54.2478 87.916 53.3311Z" fill="white"/>
</svg>
