<svg width="12" height="12" viewBox="0 0 12 12" fill="none" xmlns="http://www.w3.org/2000/svg">
<g clip-path="url(#clip0_903_6091)">
<path d="M4.88889 6.55545C4.88889 6.85013 5.00595 7.13275 5.21433 7.34112C5.4227 7.54949 5.70532 7.66656 6 7.66656C6.29469 7.66656 6.5773 7.54949 6.78567 7.34112C6.99405 7.13275 7.11111 6.85013 7.11111 6.55545C7.11111 6.26076 6.99405 5.97815 6.78567 5.76977C6.5773 5.5614 6.29469 5.44434 6 5.44434C5.70532 5.44434 5.4227 5.5614 5.21433 5.76977C5.00595 5.97815 4.88889 6.26076 4.88889 6.55545Z" stroke="#717986" stroke-linecap="round" stroke-linejoin="round"/>
<path d="M3.77778 10.9997V10.4441C3.77778 10.1494 3.89484 9.86682 4.10322 9.65844C4.31159 9.45007 4.5942 9.33301 4.88889 9.33301H7.11111C7.4058 9.33301 7.68841 9.45007 7.89679 9.65844C8.10516 9.86682 8.22222 10.1494 8.22222 10.4441V10.9997" stroke="#717986" stroke-linecap="round" stroke-linejoin="round"/>
<path d="M7.66667 2.11111C7.66667 2.4058 7.78373 2.68841 7.9921 2.89679C8.20048 3.10516 8.48309 3.22222 8.77778 3.22222C9.07246 3.22222 9.35508 3.10516 9.56345 2.89679C9.77182 2.68841 9.88889 2.4058 9.88889 2.11111C9.88889 1.81643 9.77182 1.53381 9.56345 1.32544C9.35508 1.11706 9.07246 1 8.77778 1C8.48309 1 8.20048 1.11706 7.9921 1.32544C7.78373 1.53381 7.66667 1.81643 7.66667 2.11111Z" stroke="#717986" stroke-linecap="round" stroke-linejoin="round"/>
<path d="M8.77778 4.88867H9.88889C10.1836 4.88867 10.4662 5.00574 10.6746 5.21411C10.8829 5.42248 11 5.7051 11 5.99978V6.55534" stroke="#717986" stroke-linecap="round" stroke-linejoin="round"/>
<path d="M2.11111 2.11111C2.11111 2.4058 2.22817 2.68841 2.43655 2.89679C2.64492 3.10516 2.92754 3.22222 3.22222 3.22222C3.51691 3.22222 3.79952 3.10516 4.0079 2.89679C4.21627 2.68841 4.33333 2.4058 4.33333 2.11111C4.33333 1.81643 4.21627 1.53381 4.0079 1.32544C3.79952 1.11706 3.51691 1 3.22222 1C2.92754 1 2.64492 1.11706 2.43655 1.32544C2.22817 1.53381 2.11111 1.81643 2.11111 2.11111Z" stroke="#717986" stroke-linecap="round" stroke-linejoin="round"/>
<path d="M1 6.55534V5.99978C1 5.7051 1.11706 5.42248 1.32544 5.21411C1.53381 5.00574 1.81643 4.88867 2.11111 4.88867H3.22222" stroke="#717986" stroke-linecap="round" stroke-linejoin="round"/>
</g>
<defs>
<clipPath id="clip0_903_6091">
<rect width="12" height="12" fill="white"/>
</clipPath>
</defs>
</svg>
