<svg width="11" height="11" viewBox="0 0 11 11" fill="none" xmlns="http://www.w3.org/2000/svg">
<g clip-path="url(#clip0_903_6086)">
<path d="M7.79167 9.625V8.70833C7.79167 8.2221 7.59851 7.75579 7.25469 7.41197C6.91088 7.06815 6.44456 6.875 5.95833 6.875H2.29167C1.80544 6.875 1.33912 7.06815 0.995305 7.41197C0.651488 7.75579 0.458334 8.2221 0.458334 8.70833V9.625" stroke="#717986" stroke-linecap="round" stroke-linejoin="round"/>
<path d="M4.125 5.04167C5.13752 5.04167 5.95833 4.22085 5.95833 3.20833C5.95833 2.19581 5.13752 1.375 4.125 1.375C3.11248 1.375 2.29167 2.19581 2.29167 3.20833C2.29167 4.22085 3.11248 5.04167 4.125 5.04167Z" stroke="#717986" stroke-linecap="round" stroke-linejoin="round"/>
<path d="M10.5417 9.62499V8.70832C10.5414 8.30211 10.4062 7.90751 10.1573 7.58646C9.90842 7.26542 9.55998 7.03612 9.16667 6.93457" stroke="#717986" stroke-linecap="round" stroke-linejoin="round"/>
<path d="M7.33333 1.43457C7.72769 1.53554 8.07722 1.76489 8.32683 2.08646C8.57644 2.40803 8.71193 2.80353 8.71193 3.21061C8.71193 3.61769 8.57644 4.01319 8.32683 4.33476C8.07722 4.65633 7.72769 4.88568 7.33333 4.98665" stroke="#717986" stroke-linecap="round" stroke-linejoin="round"/>
</g>
<defs>
<clipPath id="clip0_903_6086">
<rect width="11" height="11" fill="white"/>
</clipPath>
</defs>
</svg>
