<svg width="97" height="56" viewBox="0 0 97 56" fill="none" xmlns="http://www.w3.org/2000/svg">
<g opacity="0.4" clip-path="url(#clip0_494_7337)">
<path d="M62.1214 32.2165C67.642 34.9252 73.6897 36.6411 79.6196 36.2244C85.5495 35.8077 91.343 33.0929 94.7732 28.2026C96.113 26.2906 97.093 23.9925 96.9938 21.5596C96.8821 18.8325 95.4245 16.2525 93.5822 14.218C90.1396 10.4246 85.1836 8.18782 80.333 8.23071C85.0905 5.59558 86.4614 -1.86245 83.056 -6.59955C80.06 -10.7667 74.5333 -12.1946 69.7881 -11.3857C65.0492 -10.5768 60.8933 -7.94163 56.8614 -5.35553C57.0537 -11.8085 55.1742 -18.4331 51.5952 -23.9301C49.2816 -27.4845 46.1491 -30.6467 42.3282 -32.1481C38.5072 -33.6433 33.9419 -33.2144 31.1382 -30.3893C28.3346 -27.5642 27.9376 -22.2265 30.7785 -19.1011C25.9961 -20.7006 20.8291 -21.0683 16.177 -19.6036C11.5249 -18.1451 7.4496 -14.7439 5.55154 -10.0988C3.80854 -5.82127 3.97601 -0.802265 5.14835 3.85518C6.32069 8.51262 8.43585 12.8943 10.5324 17.2331C5.64458 18.9796 1.0979 22.7484 0.167471 28.0984C-0.818781 33.7792 2.45012 40.0545 7.27592 43.2902C14.5394 48.1499 25.6487 43.6947 30.673 36.5431C30.673 36.5431 33.0177 57.9795 50.5097 55.8592C68.0017 53.7388 62.1152 32.2288 62.1152 32.2288L62.1214 32.2165Z" fill="#FFE64E"/>
<g clip-path="url(#clip1_494_7337)">
<path d="M41.862 16.3143C41.478 14.8506 42.1844 13.397 43.4398 13.0677C44.6952 12.7383 46.0242 13.6579 46.4082 15.1217C46.7922 16.5854 46.0858 18.039 44.8304 18.3683C43.575 18.6976 42.246 17.778 41.862 16.3143Z" fill="#222221"/>
<path d="M31.1146 17.4803C30.7306 16.0166 31.437 14.563 32.6924 14.2337C33.9478 13.9043 35.2768 14.8239 35.6608 16.2877C36.0448 17.7514 35.3384 19.205 34.083 19.5343C32.8276 19.8637 31.4986 18.9441 31.1146 17.4803Z" fill="#222221"/>
<path d="M37.95 31.3999C36.5748 31.3999 35.46 30.2851 35.46 28.9099C35.46 27.5347 36.5748 26.4199 37.95 26.4199C39.3252 26.4199 40.44 27.5347 40.44 28.9099C40.44 30.2851 39.3252 31.3999 37.95 31.3999Z" stroke="black" stroke-miterlimit="10"/>
</g>
</g>
<defs>
<clipPath id="clip0_494_7337">
<rect width="97" height="89" fill="white" transform="translate(0 -33)"/>
</clipPath>
<clipPath id="clip1_494_7337">
<rect width="15.51" height="18.9" fill="white" transform="matrix(-1 0 0 1 46.51 13)"/>
</clipPath>
</defs>
</svg>
