<svg width="90" height="46" viewBox="0 0 90 46" fill="none" xmlns="http://www.w3.org/2000/svg">
<g opacity="0.4" clip-path="url(#clip0_494_7262)">
<path d="M82.388 -21.1467C77.4698 -23.3422 71.1828 -21.1876 65.1312 -15.9766C63.8774 -18.3691 62.1384 -20.1564 59.9206 -21.1467C55.0025 -23.3422 48.7154 -21.1876 42.6639 -15.9766C41.4101 -18.3691 39.6711 -20.1564 37.4533 -21.1467C28.1281 -25.3087 13.8887 -13.8425 5.64788 4.46349C-2.59298 22.7695 -1.71313 40.9846 7.61203 45.1466C12.5302 47.342 18.8172 45.1875 24.8688 39.9764C26.1226 42.3689 27.8616 44.1563 30.0794 45.1466C34.9975 47.342 41.2845 45.1875 47.3361 39.9764C48.5899 42.3689 50.3289 44.1563 52.5467 45.1466C61.8718 49.3085 76.1112 37.8436 84.3508 19.5364C92.5917 1.23038 91.7118 -16.9847 82.3867 -21.1467H82.388Z" fill="#65E7D1"/>
<g clip-path="url(#clip1_494_7262)">
<path d="M23.3467 16.4524C23.2456 14.7995 22.0396 13.5106 20.6531 13.5734C19.2666 13.6362 18.2247 15.027 18.3258 16.6799C18.4269 18.3327 19.6329 19.6217 21.0194 19.5589C22.4059 19.496 23.4479 18.1052 23.3467 16.4524Z" fill="#222221"/>
<path d="M34.6445 14.1775C34.5434 12.5246 33.3374 11.2357 31.9509 11.2985C30.5644 11.3613 29.5224 12.7521 29.6236 14.405C29.7247 16.0578 30.9307 17.3468 32.3172 17.284C33.7037 17.2211 34.7456 15.8303 34.6445 14.1775Z" fill="#222221"/>
<path d="M14.7404 23.9346C18.9347 25.5655 23.5855 25.6725 27.9284 24.6937C32.2712 23.7149 36.3185 21.714 40.0264 19.2463" stroke="black" stroke-miterlimit="10"/>
</g>
</g>
<defs>
<clipPath id="clip0_494_7262">
<rect width="90" height="68" fill="white" transform="translate(0 -22)"/>
</clipPath>
<clipPath id="clip1_494_7262">
<rect width="25.8524" height="13.399" fill="white" transform="matrix(0.952741 -0.303783 0.306022 0.952024 12.0138 16.2456)"/>
</clipPath>
</defs>
</svg>
