<svg width="8" height="8" viewBox="0 0 8 8" fill="none" xmlns="http://www.w3.org/2000/svg">
<g clip-path="url(#clip0_200_11312)">
<path d="M2.74808 2.44664L0.62141 2.75497L0.583744 2.76264C0.526723 2.77778 0.474742 2.80778 0.433108 2.84957C0.391473 2.89137 0.361678 2.94347 0.346764 3.00055C0.331851 3.05763 0.332353 3.11764 0.348219 3.17447C0.364086 3.23129 0.394749 3.28288 0.437077 3.32397L1.97774 4.82364L1.61441 6.94197L1.61008 6.97864C1.60659 7.03762 1.61883 7.09646 1.64556 7.14914C1.67229 7.20183 1.71254 7.24646 1.76219 7.27848C1.81184 7.31049 1.86911 7.32874 1.92813 7.33134C1.98715 7.33395 2.0458 7.32082 2.09808 7.29331L4.00008 6.29331L5.89774 7.29331L5.93108 7.30864C5.9861 7.33031 6.04589 7.33696 6.10433 7.32789C6.16277 7.31883 6.21774 7.29438 6.26361 7.25706C6.30948 7.21974 6.3446 7.17089 6.36536 7.11552C6.38612 7.06015 6.39177 7.00025 6.38174 6.94197L6.01808 4.82364L7.55941 3.32364L7.58541 3.29531C7.62255 3.24956 7.6469 3.19479 7.65598 3.13657C7.66507 3.07835 7.65855 3.01877 7.63711 2.96388C7.61566 2.909 7.58005 2.86079 7.53391 2.82415C7.48776 2.78751 7.43272 2.76375 7.37441 2.75531L5.24774 2.44664L4.29708 0.519974C4.26957 0.464152 4.22698 0.417146 4.17414 0.384276C4.1213 0.351405 4.06031 0.333984 3.99808 0.333984C3.93585 0.333984 3.87486 0.351405 3.82201 0.384276C3.76917 0.417146 3.72659 0.464152 3.69908 0.519974L2.74808 2.44664Z" fill="#36C9FF"/>
</g>
<defs>
<clipPath id="clip0_200_11312">
<rect width="8" height="8" fill="white"/>
</clipPath>
</defs>
</svg>
