<svg width="24" height="24" viewBox="0 0 24 24" fill="none" xmlns="http://www.w3.org/2000/svg">
<path d="M4.36743 21.5C3.539 21.5 2.86743 20.8284 2.86743 20C2.86743 19.1716 3.539 18.5 4.36743 18.5C5.19586 18.5 5.86743 19.1716 5.86743 20C5.86743 20.8284 5.19586 21.5 4.36743 21.5Z" fill="#00CD5C" stroke="#2ED573" stroke-width="2"/>
<path d="M18.8674 20C18.039 20 17.3674 19.3284 17.3674 18.5C17.3674 17.6716 18.039 17 18.8674 17C19.6959 17 20.3674 17.6716 20.3674 18.5C20.3674 19.3284 19.6959 20 18.8674 20Z" fill="#2ED573" stroke="#2ED573" stroke-width="2"/>
<path d="M16.1164 4.71547C16.1164 4.71547 11.1175 11 5.61753 18.75C13.6175 13 19.6519 8.25105 19.6519 8.25105C19.6519 8.25105 22.8122 5.4447 20.8675 3.50016C18.9229 1.55562 16.1164 4.71547 16.1164 4.71547Z" fill="#2ED573" stroke="#2ED573" stroke-width="2" stroke-linejoin="round"/>
</svg>
