<svg width="24" height="24" viewBox="0 0 24 24" fill="none" xmlns="http://www.w3.org/2000/svg">
<g clip-path="url(#clip0_213_840)">
<path d="M15 3.25C15.4641 3.25 15.9091 3.43451 16.2373 3.7627C16.5655 4.09088 16.75 4.53587 16.75 5C16.75 5.33152 16.8818 5.64937 17.1162 5.88379C17.3506 6.11821 17.6685 6.25 18 6.25H19C19.7293 6.25 20.4286 6.53994 20.9443 7.05566C21.4601 7.57139 21.75 8.27065 21.75 9V18C21.75 18.7293 21.4601 19.4286 20.9443 19.9443C20.4286 20.4601 19.7293 20.75 19 20.75H5C4.27065 20.75 3.57139 20.4601 3.05566 19.9443C2.53994 19.4286 2.25 18.7293 2.25 18V9C2.25 8.27065 2.53994 7.57139 3.05566 7.05566C3.57139 6.53994 4.27065 6.25 5 6.25H6L6.12402 6.24414C6.41001 6.21564 6.67878 6.0888 6.88379 5.88379C7.0888 5.67878 7.21564 5.41001 7.24414 5.12402L7.25 5C7.25 4.53587 7.43451 4.09088 7.7627 3.7627C8.09088 3.43451 8.53587 3.25 9 3.25H15ZM12 9.25C11.0054 9.25 10.0519 9.64537 9.34863 10.3486C8.64537 11.0519 8.25 12.0054 8.25 13C8.25 13.9946 8.64537 14.9481 9.34863 15.6514C10.0519 16.3546 11.0054 16.75 12 16.75C12.9946 16.75 13.9481 16.3546 14.6514 15.6514C15.3546 14.9481 15.75 13.9946 15.75 13C15.75 12.0054 15.3546 11.0519 14.6514 10.3486C13.9481 9.64537 12.9946 9.25 12 9.25ZM12 10.75C12.5967 10.75 13.1689 10.9872 13.5908 11.4092C14.0128 11.8311 14.25 12.4033 14.25 13C14.25 13.5967 14.0128 14.1689 13.5908 14.5908C13.1689 15.0128 12.5967 15.25 12 15.25C11.4033 15.25 10.8311 15.0128 10.4092 14.5908C9.98722 14.1689 9.75 13.5967 9.75 13C9.75 12.4033 9.98722 11.8311 10.4092 11.4092C10.8311 10.9872 11.4033 10.75 12 10.75Z" fill="#36C9FF"/>
</g>
<defs>
<clipPath id="clip0_213_840">
<rect width="24" height="24" fill="white"/>
</clipPath>
</defs>
</svg>
