<svg width="24" height="24" viewBox="0 0 24 24" fill="none" xmlns="http://www.w3.org/2000/svg">
<path d="M19.7599 11.7021H4.19401C2.9044 11.7021 1.85896 12.7476 1.85896 14.0372V18.2669C1.85896 19.5565 2.9044 20.6019 4.19401 20.6019H19.7599C21.0495 20.6019 22.0949 19.5565 22.0949 18.2669V14.0372C22.0949 12.7476 21.0495 11.7021 19.7599 11.7021Z" fill="#FF4D4D" stroke="black"/>
<path d="M11.9768 3.39844L12.9502 5.37063L15.1265 5.68686L13.5518 7.22209L13.9234 9.38956L11.9768 8.3663L10.0303 9.38956L10.4019 7.22209L8.82718 5.68686L11.0034 5.37063L11.9768 3.39844Z" fill="#FFE220"/>
<path d="M19.0101 5.01416L19.6458 6.30241L21.0677 6.509L20.0389 7.51194L20.2818 8.92784L19.0101 8.25936L17.7385 8.92784L17.9813 7.51194L16.9525 6.509L18.3742 6.30241L19.0101 5.01416Z" fill="#FFE220"/>
<path d="M4.94351 5.01416L5.57943 6.30241L7.0011 6.509L5.9723 7.51194L6.21513 8.92784L4.94351 8.25936L3.67188 8.92784L3.91471 7.51194L2.88591 6.509L4.30781 6.30241L4.94351 5.01416Z" fill="#FFE220"/>
<path d="M11.4939 13.8468C11.4449 13.8264 11.3923 13.8159 11.3392 13.8159C11.2862 13.8159 11.2336 13.8263 11.1845 13.8467C11.1355 13.867 11.091 13.8968 11.0535 13.9344C11.016 13.972 10.9862 14.0166 10.966 14.0656L9.74032 17.0262L8.51462 14.0656C8.48407 13.9918 8.43229 13.9287 8.36585 13.8843C8.29941 13.8399 8.22129 13.8162 8.14138 13.8162C8.06146 13.8162 7.98334 13.8399 7.9169 13.8843C7.85046 13.9287 7.79869 13.9918 7.76813 14.0656L6.54244 17.0262L5.31674 14.0656C5.29645 14.0166 5.2667 13.9721 5.22919 13.9346C5.19169 13.8971 5.14716 13.8673 5.09815 13.847C5.04914 13.8267 4.99661 13.8162 4.94356 13.8162C4.89051 13.8162 4.83797 13.8266 4.78896 13.8469C4.73994 13.8672 4.6954 13.897 4.65788 13.9345C4.62037 13.972 4.5906 14.0165 4.57029 14.0655C4.54999 14.1145 4.53953 14.1671 4.53952 14.2201C4.53951 14.2732 4.54995 14.3257 4.57025 14.3747L6.16919 18.2367C6.19975 18.3105 6.25152 18.3737 6.31796 18.4181C6.3844 18.4625 6.46252 18.4862 6.54244 18.4862C6.62235 18.4862 6.70047 18.4625 6.76691 18.4181C6.83335 18.3737 6.88513 18.3105 6.91568 18.2367L8.14138 15.2779L9.36684 18.2376C9.39745 18.3114 9.44925 18.3745 9.51571 18.4189C9.58216 18.4633 9.66029 18.487 9.7402 18.487C9.82012 18.487 9.89824 18.4633 9.9647 18.4189C10.0312 18.3745 10.083 18.3114 10.1136 18.2376L11.7125 14.3756C11.733 14.3266 11.7435 14.274 11.7436 14.2208C11.7437 14.1676 11.7333 14.115 11.713 14.0659C11.6927 14.0167 11.6629 13.9721 11.6253 13.9345C11.5877 13.8969 11.543 13.8671 11.4939 13.8468Z" fill="black"/>
<path d="M19.0101 13.8171C18.903 13.8171 18.8003 13.8597 18.7245 13.9355C18.6487 14.0112 18.6062 14.114 18.6062 14.2211V17.0372L15.7989 13.9494C15.744 13.8891 15.6722 13.8467 15.5929 13.828C15.5135 13.8092 15.4304 13.8149 15.3543 13.8443C15.2783 13.8737 15.2129 13.9254 15.1668 13.9927C15.1207 14.0599 15.096 14.1396 15.096 14.2211V18.0833C15.096 18.1904 15.1386 18.2932 15.2143 18.3689C15.2901 18.4447 15.3928 18.4872 15.4999 18.4872C15.6071 18.4872 15.7098 18.4447 15.7856 18.3689C15.8613 18.2932 15.9039 18.1904 15.9039 18.0833V15.2672L18.7112 18.355C18.766 18.4156 18.8379 18.4581 18.9173 18.477C18.9968 18.4959 19.0801 18.4903 19.1563 18.4609C19.2325 18.4314 19.298 18.3796 19.3442 18.3122C19.3903 18.2448 19.4149 18.165 19.4148 18.0833V14.2211C19.4147 14.168 19.4042 14.1154 19.3839 14.0664C19.3635 14.0173 19.3337 13.9728 19.2961 13.9353C19.2586 13.8978 19.214 13.868 19.1649 13.8477C19.1158 13.8275 19.0632 13.8171 19.0101 13.8171Z" fill="black"/>
<path d="M13.2563 13.8171C13.1492 13.8171 13.0464 13.8597 12.9707 13.9355C12.8949 14.0112 12.8523 14.114 12.8523 14.2211V18.0833C12.8523 18.1904 12.8949 18.2932 12.9707 18.3689C13.0464 18.4447 13.1492 18.4872 13.2563 18.4872C13.3634 18.4872 13.4662 18.4447 13.5419 18.3689C13.6177 18.2932 13.6602 18.1904 13.6602 18.0833V14.2211C13.6602 14.114 13.6177 14.0112 13.5419 13.9355C13.4662 13.8597 13.3634 13.8171 13.2563 13.8171Z" fill="black"/>
<path d="M9.96794 7.36304L9.63208 9.32253C9.61939 9.3968 9.62772 9.47314 9.65613 9.54293C9.68455 9.61271 9.73192 9.67316 9.79288 9.71743C9.85385 9.76171 9.92598 9.78805 10.0011 9.79349C10.0763 9.79892 10.1515 9.78323 10.2182 9.74818L11.9768 8.82348L13.7364 9.74702C13.803 9.78172 13.8779 9.79717 13.9528 9.79165C14.0277 9.78613 14.0995 9.75985 14.1603 9.71577C14.2211 9.67168 14.2683 9.61153 14.2968 9.54207C14.3253 9.47261 14.3339 9.39659 14.3216 9.32253L13.9857 7.36304L15.4085 5.97554C15.4624 5.92289 15.5005 5.85622 15.5185 5.78306C15.5366 5.70991 15.5338 5.63317 15.5105 5.56152C15.4872 5.48987 15.4443 5.42615 15.3868 5.37756C15.3292 5.32896 15.2592 5.29743 15.1846 5.28652L13.2184 5.00075L12.339 3.21923C12.3057 3.1516 12.2541 3.09465 12.1901 3.05483C12.1261 3.015 12.0522 2.9939 11.9768 2.9939C11.9014 2.9939 11.8276 3.015 11.7636 3.05483C11.6995 3.09465 11.648 3.1516 11.6147 3.21923L10.7357 5.00121L8.76925 5.28698C8.69473 5.29784 8.62473 5.32932 8.56716 5.37786C8.50958 5.42639 8.46672 5.49006 8.44341 5.56167C8.4201 5.63328 8.41727 5.70998 8.43524 5.78311C8.45321 5.85624 8.49127 5.92289 8.54512 5.97554L9.96794 7.36304ZM11.0616 5.77033C11.1264 5.76089 11.1879 5.73583 11.2409 5.69731C11.2939 5.65878 11.3367 5.60795 11.3656 5.5492L11.9768 4.31127L12.5878 5.5492C12.6168 5.60796 12.6597 5.65878 12.7127 5.69731C12.7657 5.73583 12.8272 5.76089 12.8921 5.77033L14.2586 5.96884L13.2697 6.93278C13.2229 6.97854 13.1879 7.03501 13.1678 7.0973C13.1477 7.15959 13.1431 7.22584 13.1543 7.29033L13.3874 8.65221L12.164 8.00982C12.1061 7.97919 12.0416 7.96319 11.976 7.96319C11.9105 7.96319 11.8459 7.97919 11.788 8.00982L10.566 8.65221L10.7994 7.29033C10.8106 7.22584 10.8059 7.1596 10.7858 7.09731C10.7657 7.03502 10.7307 6.97855 10.684 6.93278L9.6951 5.96884L11.0616 5.77033Z" fill="black"/>
<path d="M17.5474 7.65289L17.3396 8.85965C17.3269 8.93392 17.3353 9.01026 17.3637 9.08005C17.3921 9.14983 17.4394 9.21027 17.5004 9.25455C17.5614 9.29883 17.6335 9.32517 17.7087 9.33061C17.7838 9.33604 17.859 9.32034 17.9257 9.2853L19.0094 8.71561L20.0943 9.2853C20.161 9.32034 20.2362 9.33604 20.3113 9.33061C20.3865 9.32517 20.4586 9.29883 20.5196 9.25455C20.5805 9.21027 20.6279 9.14983 20.6563 9.08005C20.6847 9.01026 20.6931 8.93392 20.6804 8.85965L20.4726 7.65289L21.3498 6.79882C21.4038 6.74623 21.4419 6.67958 21.46 6.60641C21.4781 6.53325 21.4753 6.45649 21.4521 6.38481C21.4288 6.31313 21.3859 6.24938 21.3283 6.20079C21.2707 6.15219 21.2007 6.12067 21.1261 6.1098L19.9145 5.93368L19.3725 4.83587C19.3392 4.76825 19.2876 4.71132 19.2235 4.67151C19.1595 4.6317 19.0856 4.6106 19.0102 4.6106C18.9348 4.6106 18.8609 4.6317 18.7969 4.67151C18.7329 4.71132 18.6813 4.76825 18.6479 4.83587L18.1064 5.93368L16.8948 6.1098C16.8202 6.12059 16.7501 6.15204 16.6925 6.2006C16.6348 6.24916 16.5919 6.31288 16.5686 6.38456C16.5453 6.45624 16.5426 6.53301 16.5606 6.60618C16.5787 6.67936 16.6169 6.74601 16.6709 6.79859L17.5474 7.65289ZM18.4326 6.70211C18.4973 6.69264 18.5588 6.66759 18.6118 6.62911C18.6648 6.59063 18.7076 6.53988 18.7366 6.48121L19.0101 5.92722L19.2836 6.48121C19.3127 6.53991 19.3555 6.59068 19.4085 6.62916C19.4615 6.66764 19.5231 6.69267 19.5879 6.70211L20.1996 6.79098L19.7568 7.22193C19.7101 7.26777 19.6751 7.32428 19.655 7.3866C19.6349 7.44892 19.6303 7.51519 19.6414 7.57971L19.746 8.18887L19.1987 7.90126C19.1407 7.87079 19.0762 7.85487 19.0107 7.85487C18.9452 7.85487 18.8807 7.87079 18.8227 7.90126L18.2756 8.18887L18.38 7.57971C18.3911 7.51522 18.3865 7.44898 18.3664 7.38669C18.3463 7.32441 18.3113 7.26794 18.2645 7.22216L17.822 6.79075L18.4326 6.70211Z" fill="black"/>
<path d="M3.48074 7.65295L3.273 8.85972C3.2603 8.93399 3.26863 9.01033 3.29705 9.08011C3.32546 9.1499 3.37283 9.21034 3.43379 9.25462C3.49476 9.2989 3.56689 9.32524 3.64204 9.33067C3.71719 9.33611 3.79237 9.32041 3.85907 9.28536L4.94257 8.71568L6.02746 9.28536C6.09406 9.32025 6.16907 9.33585 6.24406 9.33042C6.31904 9.325 6.39102 9.29875 6.4519 9.25464C6.51278 9.21052 6.56014 9.1503 6.58866 9.08073C6.61717 9.01117 6.6257 8.93502 6.6133 8.86087L6.40555 7.65411L7.2827 6.80005C7.33659 6.7474 7.37469 6.68073 7.3927 6.60757C7.41072 6.53442 7.40792 6.45768 7.38464 6.38603C7.36135 6.31438 7.31851 6.25066 7.26093 6.20207C7.20335 6.15347 7.13334 6.12194 7.05879 6.11103L5.84695 5.9349L5.30543 4.83709C5.27208 4.76947 5.22048 4.71254 5.15645 4.67273C5.09243 4.63292 5.01854 4.61182 4.94315 4.61182C4.86775 4.61182 4.79387 4.63292 4.72984 4.67273C4.66582 4.71254 4.61421 4.76947 4.58086 4.83709L4.03934 5.93329L2.82773 6.10941C2.75318 6.12032 2.68317 6.15186 2.6256 6.20045C2.56802 6.24904 2.52517 6.31276 2.50189 6.38441C2.4786 6.45607 2.47581 6.5328 2.49382 6.60596C2.51184 6.67911 2.54994 6.74578 2.60383 6.79843L3.48074 7.65295ZM4.36481 6.70217C4.42962 6.69274 4.49116 6.66771 4.54416 6.62923C4.59715 6.59075 4.64001 6.53998 4.66904 6.48127L4.94257 5.92729L5.2161 6.48127C5.24511 6.53995 5.28793 6.5907 5.34088 6.62918C5.39384 6.66766 5.45533 6.6927 5.5201 6.70217L6.13202 6.79127L5.69045 7.222C5.64364 7.2678 5.60866 7.3243 5.58856 7.38664C5.56845 7.44897 5.56381 7.51525 5.57504 7.57978L5.67937 8.18893L5.13231 7.90132C5.07433 7.87085 5.0098 7.85493 4.9443 7.85493C4.8788 7.85493 4.81428 7.87085 4.75629 7.90132L4.20923 8.18893L4.31357 7.57978C4.32467 7.51526 4.31997 7.449 4.29987 7.38669C4.27977 7.32438 4.24487 7.26787 4.19815 7.222L3.75543 6.79058L4.36481 6.70217Z" fill="black"/>
</svg>
