<svg width="24" height="24" viewBox="0 0 24 24" fill="none" xmlns="http://www.w3.org/2000/svg">
<path d="M5.78951 12.7887L2.5792 9.57835C2.24214 9.24128 2.1906 8.71755 2.48741 8.34455C3.72512 6.78912 7.23057 2.99866 11.9995 2.99866C16.7684 2.99866 20.2739 6.78912 21.5116 8.34455C21.8084 8.71755 21.7569 9.24128 21.4198 9.57835L18.2095 12.7887L12.706 7.29406C12.3157 6.90429 11.6834 6.90429 11.293 7.29406L5.78951 12.7887ZM13.4995 17.9987H10.4995V19.9987L11.9995 20.9987L13.4995 19.9987V17.9987ZM16.0839 13.5016C16.4737 13.8922 16.4734 14.5248 16.0831 14.915L14.1995 16.7987C13.5995 16.3087 12.8395 15.9987 11.9995 15.9987C11.1595 15.9987 10.3995 16.3087 9.79951 16.7987L7.91588 14.915C7.52564 14.5248 7.52531 13.8922 7.91514 13.5016L11.2917 10.118C11.6824 9.72647 12.3167 9.72647 12.7074 10.118L16.0839 13.5016ZM12.9995 13.9987C12.9995 13.4487 12.5495 12.9987 11.9995 12.9987C11.4495 12.9987 10.9995 13.4487 10.9995 13.9987C10.9995 14.5487 11.4495 14.9987 11.9995 14.9987C12.5495 14.9987 12.9995 14.5487 12.9995 13.9987Z" fill="#2F6BFF"/>
</svg>
