<svg width="16" height="16" viewBox="0 0 16 16" fill="none" xmlns="http://www.w3.org/2000/svg">
<g clip-path="url(#clip0_610_5663)">
<path d="M12.2426 3.09087C13.3442 4.19229 13.9742 5.67894 13.9995 7.23648C14.0247 8.79401 13.4432 10.3003 12.378 11.4369L12.2426 11.5769L9.41398 14.4049C9.05506 14.7636 8.57323 14.9724 8.06608 14.9891C7.55893 15.0058 7.06439 14.8291 6.68264 14.4949L6.58664 14.4049L3.75731 11.5762C2.63208 10.451 1.99994 8.92484 1.99994 7.33353C1.99994 5.74222 2.63208 4.21609 3.75731 3.09087C4.88253 1.96564 6.40867 1.3335 7.99998 1.3335C9.59128 1.3335 11.1174 1.96564 12.2426 3.09087ZM7.99998 5.33353C7.73733 5.33353 7.47726 5.38526 7.23461 5.48577C6.99196 5.58628 6.77148 5.7336 6.58576 5.91932C6.40004 6.10504 6.25273 6.32552 6.15222 6.56817C6.05171 6.81082 5.99998 7.07089 5.99998 7.33353C5.99998 7.59618 6.05171 7.85625 6.15222 8.0989C6.25273 8.34155 6.40004 8.56203 6.58576 8.74775C6.77148 8.93346 6.99196 9.08078 7.23461 9.18129C7.47726 9.2818 7.73733 9.33353 7.99998 9.33353C8.53041 9.33353 9.03912 9.12282 9.41419 8.74775C9.78926 8.37267 9.99998 7.86397 9.99998 7.33353C9.99998 6.8031 9.78926 6.29439 9.41419 5.91932C9.03912 5.54425 8.53041 5.33353 7.99998 5.33353Z" fill="#1CCEB0"/>
</g>
<defs>
<clipPath id="clip0_610_5663">
<rect width="16" height="16" fill="white"/>
</clipPath>
</defs>
</svg>
