<svg width="64" height="64" viewBox="0 0 64 64" fill="none" xmlns="http://www.w3.org/2000/svg">
<path d="M39.6667 54.6999H18.3333C16.9188 54.6999 15.5623 54.138 14.5621 53.1378C13.5619 52.1376 13 50.781 13 49.3665V33.3665C13 31.952 13.5619 30.5955 14.5621 29.5953C15.5623 28.5951 16.9188 28.0332 18.3333 28.0332H45C45.9376 28.0328 46.8587 28.2796 47.6705 28.7487C48.4823 29.2179 49.1561 29.8927 49.624 30.7052" stroke="#0E0F12" stroke-width="3" stroke-linecap="round" stroke-linejoin="round"/>
<path d="M29 41.3666C29 42.0739 29.281 42.7521 29.781 43.2522C30.2811 43.7523 30.9594 44.0333 31.6667 44.0333C32.3739 44.0333 33.0522 43.7523 33.5523 43.2522C34.0524 42.7521 34.3333 42.0739 34.3333 41.3666C34.3333 40.6594 34.0524 39.9811 33.5523 39.481C33.0522 38.9809 32.3739 38.7 31.6667 38.7C30.9594 38.7 30.2811 38.9809 29.781 39.481C29.281 39.9811 29 40.6594 29 41.3666Z" stroke="#0E0F12" stroke-width="3" stroke-linecap="round" stroke-linejoin="round"/>
<path d="M21 28.0333V17.3666C21 14.5376 22.1238 11.8245 24.1242 9.82415C26.1246 7.82376 28.8377 6.69995 31.6667 6.69995C34.4956 6.69995 37.2088 7.82376 39.2091 9.82415C41.2095 11.8245 42.3333 14.5376 42.3333 17.3666V28.0333" stroke="#0E0F12" stroke-width="3" stroke-linecap="round" stroke-linejoin="round"/>
<path d="M50.3334 41.3667V49.3667" stroke="#0E0F12" stroke-width="3" stroke-linecap="round" stroke-linejoin="round"/>
<path d="M50.3334 57.3667V57.3925" stroke="#0E0F12" stroke-width="3" stroke-linecap="round" stroke-linejoin="round"/>
</svg>
