<svg width="122" height="122" viewBox="0 0 122 122" fill="none" xmlns="http://www.w3.org/2000/svg">
<g clip-path="url(#clip0_778_6048)">
<path d="M103.338 42.3659C98.4845 30.9327 89.4703 22.0734 77.9542 17.4203C66.4381 12.7671 53.7996 12.8776 42.3659 17.7297C30.9327 22.5833 22.0734 31.5975 17.4203 43.1136C12.7671 54.6297 12.8776 67.2682 17.7297 78.7019C22.5823 90.1346 31.5975 98.9944 43.1136 103.648C54.6297 108.301 67.2682 108.19 78.7019 103.338C90.1346 98.4855 98.9944 89.4703 103.648 77.9542C108.301 66.4381 108.19 53.7996 103.338 42.3659ZM76.519 98.195C66.4599 102.464 55.3389 102.561 45.2066 98.4675C35.0744 94.3735 27.1424 86.578 22.8728 76.519C18.6033 66.4599 18.5063 55.3389 22.6003 45.2066C26.6943 35.0744 34.4898 27.1424 44.5488 22.8728C54.6079 18.6033 65.7289 18.5063 75.8612 22.6003C85.9934 26.6943 93.9254 34.4898 98.195 44.5488C102.464 54.6079 102.561 65.7289 98.4675 75.8612C94.3735 85.9934 86.578 93.9254 76.519 98.195Z" fill="#FF2F32"/>
<path d="M94.6377 46.0584C90.771 36.9484 83.5886 29.8905 74.4134 26.1832C65.2381 22.4759 55.1687 22.5631 46.0587 26.4298C36.9488 30.2965 29.8908 37.4789 26.1835 46.6541C22.4762 55.8293 22.5635 65.8987 26.4302 75.0087C30.2968 84.1187 37.4792 91.1766 46.6545 94.8839C55.8297 98.5912 65.8991 98.504 75.0091 94.6373C84.1191 90.7706 91.177 83.5882 94.8843 74.413C98.5916 65.2378 98.5043 55.1683 94.6377 46.0584ZM73.9173 92.065C65.4948 95.6398 56.1847 95.7205 47.7014 92.2928C39.2181 88.8651 32.5773 82.3393 29.0025 73.9169C25.4276 65.4945 25.3469 56.1843 28.7746 47.701C32.2023 39.2177 38.7281 32.577 47.1505 29.0021C55.573 25.4272 64.8832 25.3465 73.3664 28.7742C81.8497 32.2019 88.4905 38.7277 92.0653 47.1502C95.6402 55.5726 95.7209 64.8828 92.2932 73.366C88.8655 81.8493 82.3397 88.4901 73.9173 92.065Z" fill="#FF2F32"/>
<path d="M46.9444 39.5589L49.5683 39.2557L51.3058 41.2444L51.8281 38.6555L54.2569 37.6185L51.9565 36.3212L51.7192 33.6904L49.7757 35.4784L47.1997 34.8908L48.3 37.2919L46.9444 39.5589Z" fill="#FF2F32"/>
<path d="M55.3765 42.9666L57.9994 42.663L59.738 44.6521L60.2591 42.0628L62.688 41.0257L60.3875 39.7284L60.1503 37.0977L58.2068 38.8856L55.6308 38.298L56.7311 40.6992L55.3765 42.9666Z" fill="#FF2F32"/>
<path d="M63.8077 46.3734L66.4316 46.0702L68.1691 48.0589L68.6903 45.4696L71.1191 44.4325L68.8187 43.1352L68.5824 40.5049L66.6379 42.2924L64.063 41.7052L65.1622 44.1059L63.8077 46.3734Z" fill="#FF2F32"/>
<path d="M72.2387 49.7796L74.8627 49.4764L76.6002 51.4651L77.1224 48.8763L79.5502 47.8387L77.2498 46.5414L77.0135 43.9111L75.069 45.6987L72.494 45.1115L73.5933 47.5122L72.2387 49.7796Z" fill="#FF2F32"/>
<path d="M80.6698 53.1859L83.2938 52.8827L85.0313 54.8714L85.5535 52.2825L87.9824 51.2454L85.6808 49.9477L85.4446 47.3174L83.5001 49.1049L80.9251 48.5177L82.0244 50.9184L80.6698 53.1859Z" fill="#FF2F32"/>
<path d="M38.4912 69.6464L38.254 67.0156L36.3105 68.8036L33.7349 68.2149L34.8348 70.6171L33.4792 72.8841L36.1031 72.5809L37.8406 74.5696L38.3628 71.9807L40.7921 70.9426L38.4912 69.6464Z" fill="#FF2F32"/>
<path d="M46.9223 73.0536L46.685 70.4228L44.7416 72.2108L42.166 71.6221L43.2658 74.0244L41.9113 76.2918L44.5342 75.9881L46.2728 77.9773L46.7939 75.388L49.2232 74.3498L46.9223 73.0536Z" fill="#FF2F32"/>
<path d="M55.3535 76.4604L55.1172 73.8301L53.1727 75.6176L50.5982 75.0294L51.697 77.4311L50.3424 79.6986L52.9664 79.3954L54.7039 81.3841L55.2251 78.7948L57.6543 77.7566L55.3535 76.4604Z" fill="#FF2F32"/>
<path d="M63.7845 79.8666L63.5483 77.2363L61.6038 79.0239L59.0293 78.4356L60.1281 80.8374L58.7735 83.1048L61.3975 82.8016L63.135 84.7903L63.6572 82.2015L66.0854 81.1629L63.7845 79.8666Z" fill="#FF2F32"/>
<path d="M72.2156 83.2729L71.9794 80.6426L70.0349 82.4301L67.4604 81.8419L68.5592 84.2436L67.2046 86.5111L69.8286 86.2079L71.5661 88.1966L72.0883 85.6077L74.5176 84.5695L72.2156 83.2729Z" fill="#FF2F32"/>
<path d="M41.6403 43.3441L39.8607 53.9484L45.8207 45.0332L50.1065 46.765L48.0269 57.4436L54.2869 48.4541L58.6579 50.2202L47.5928 65.3248L43.2218 63.5587L45.4225 52.0931L39.0829 61.8863L34.7332 60.1288L37.2672 41.5771L41.6381 43.3433L41.6403 43.3441Z" fill="#FF2F32"/>
<path d="M65.0568 52.8065L58.2573 69.6347L53.8661 67.8604L60.6656 51.0322L65.0568 52.8065Z" fill="#FF2F32"/>
<path d="M68.0119 54L72.4042 55.7747L74.5962 68.5236L78.7169 58.3254L83.1081 60.0997L76.3085 76.9278L71.9173 75.1535L69.8019 62.2151L65.6047 72.6029L61.2124 70.8281L68.0119 54Z" fill="#FF2F32"/>
<path d="M81.2266 73.2671L86.405 60.4512L90.7759 62.2173L85.5976 75.0332L81.2266 73.2671ZM79.0854 78.5663L80.766 74.4072L85.1369 76.1733L83.4564 80.3325L79.0854 78.5663Z" fill="#FF2F32"/>
</g>
<defs>
<clipPath id="clip0_778_6048">
<rect width="93" height="93" fill="white" transform="translate(34.8406) rotate(22.0014)"/>
</clipPath>
</defs>
</svg>
