<svg width="93" height="93" viewBox="0 0 93 93" fill="none" xmlns="http://www.w3.org/2000/svg">
<g clip-path="url(#clip0_721_7232)">
<path d="M79.3807 13.6193C70.5973 4.83715 58.9207 0 46.5 0C34.0793 0 22.4027 4.83715 13.6193 13.6193C4.83715 22.4027 0 34.0793 0 46.5C0 58.9207 4.83715 70.5973 13.6193 79.3807C22.4015 88.1629 34.0793 93 46.5 93C58.9207 93 70.5973 88.1629 79.3807 79.3807C88.1629 70.5985 93 58.9207 93 46.5C93 34.0793 88.1629 22.4027 79.3807 13.6193ZM75.4299 75.4299C67.7029 83.1569 57.4281 87.4131 46.5 87.4131C35.5719 87.4131 25.2971 83.1569 17.5701 75.4299C9.84307 67.7029 5.58689 57.4281 5.58689 46.5C5.58689 35.5719 9.84307 25.2971 17.5701 17.5701C25.2971 9.84307 35.5719 5.58689 46.5 5.58689C57.4281 5.58689 67.7029 9.84307 75.4299 17.5701C83.1569 25.2971 87.4131 35.5719 87.4131 46.5C87.4131 57.4281 83.1569 67.7029 75.4299 75.4299Z" fill="#6F7380"/>
<path d="M79.6196 29H12.6196V31H79.6196V29Z" fill="#6F7380"/>
<path d="M11 38.0039H19.0543C20.1806 38.0039 21.1933 38.2278 22.09 38.6756C22.9867 39.1234 23.749 39.7365 24.3748 40.5138C25.0005 41.2922 25.477 42.213 25.8042 43.2762C26.1303 44.3405 26.2945 45.4967 26.2945 46.7436C26.2945 47.9905 26.1177 49.2202 25.7629 50.2994C25.4081 51.3787 24.8869 52.3064 24.198 53.0837C23.5091 53.861 22.6606 54.4672 21.6525 54.9001C20.6433 55.3329 19.4791 55.5499 18.1576 55.5499H11.0011V38.0039H11ZM15.34 51.7633H17.9061C18.5881 51.7633 19.1817 51.6278 19.6903 51.3557C20.1978 51.0848 20.6192 50.7174 20.9521 50.2546C21.2863 49.7919 21.5366 49.2535 21.703 48.6369C21.8695 48.0204 21.9533 47.3682 21.9533 46.6782C21.9533 45.9881 21.8557 45.3681 21.6617 44.7734C21.4665 44.1786 21.1852 43.662 20.8167 43.2211C20.4481 42.7814 19.9923 42.4323 19.4504 42.1751C18.9084 41.9191 18.2816 41.7894 17.572 41.7894H15.34V51.7622V51.7633Z" fill="#6F7380"/>
<path d="M28.05 38.0034H37.3764C38.0997 38.0034 38.7771 38.1068 39.4109 38.3111C40.0435 38.5167 40.5901 38.829 41.0493 39.2469C41.5086 39.6648 41.8702 40.2044 42.1343 40.8646C42.3984 41.5248 42.5304 42.3033 42.5304 43.1977C42.5304 44.3722 42.3421 45.3217 41.9667 46.0485C41.5912 46.7753 41.0344 47.3586 40.2973 47.7983L43.4685 55.5471H38.9413L36.3545 49.1187L32.39 50.0429V55.546H28.05V38V38.0034ZM38.2111 43.309C38.2111 42.898 38.0825 42.5421 37.8253 42.2413C37.5681 41.9404 37.2237 41.79 36.792 41.79H32.3888V46.0393L36.3534 45.2689C37.063 45.1369 37.5498 44.8946 37.8138 44.5421C38.0779 44.1897 38.2099 43.7798 38.2099 43.309H38.2111Z" fill="#6F7380"/>
<path d="M44.3043 55.5499L49.9383 38.0039H55.4046L61.0386 55.5499H56.6986L55.113 50.6404L49.7293 52.2031L48.6443 55.5488H44.3043V55.5499ZM51.0646 48.0433L53.9855 47.1845L52.6709 43.0672L51.0646 48.0422V48.0433Z" fill="#6F7380"/>
<path d="M64.421 38.0039L66.5497 48.1524L68.5532 38.0039H72.7887L74.6878 48.3292L76.9198 38.0039H81.2391L77.0242 55.5499H72.7049L70.6394 44.4772L68.6152 55.5499H64.3165L60.1017 38.0039H64.421Z" fill="#6F7380"/>
<path d="M79.6196 62.5498H12.6196V64.5498H79.6196V62.5498Z" fill="#6F7380"/>
</g>
<defs>
<clipPath id="clip0_721_7232">
<rect width="93" height="93" fill="white"/>
</clipPath>
</defs>
</svg>
