<svg width="122" height="122" viewBox="0 0 122 122" fill="none" xmlns="http://www.w3.org/2000/svg">
<g clip-path="url(#clip0_721_7256)">
<path d="M103.337 42.3641C98.4831 30.9312 89.4687 22.0721 77.9525 17.4192C66.4362 12.7663 53.7978 12.8771 42.3642 17.7295C30.9312 22.5834 22.0721 31.5978 17.4192 43.114C12.7664 54.6303 12.8771 67.2687 17.7295 78.7024C22.5824 90.1349 31.5978 98.9944 43.1141 103.647C54.6303 108.3 67.2688 108.189 78.7024 103.337C90.135 98.4842 98.9945 89.4687 103.647 77.9525C108.3 66.4362 108.189 53.7978 103.337 42.3641ZM76.5193 98.1939C66.4603 102.464 55.3393 102.561 45.207 98.4672C35.0746 94.3735 27.1424 86.5782 22.8726 76.5193C18.6028 66.4603 18.5056 55.3393 22.5993 45.2069C26.693 35.0746 34.4883 27.1424 44.5473 22.8726C54.6063 18.6028 65.7273 18.5056 75.8596 22.5993C85.9919 26.693 93.9242 34.4883 98.1939 44.5473C102.464 54.6062 102.561 65.7272 98.4673 75.8596C94.3735 85.9919 86.5783 93.9241 76.5193 98.1939Z" fill="#9D1122"/>
<path d="M98.1496 56.8565L36.0283 31.7578L35.279 33.6122L97.4004 58.7108L98.1496 56.8565Z" fill="#9D1122"/>
<path d="M33.6803 39.957L38.1155 41.749L32.7312 55.0756L40.8555 58.358L39.3735 62.0262L26.814 56.9518L33.6803 39.957Z" fill="#9D1122"/>
<path d="M43.1971 53.6498C43.7196 52.3565 44.4206 51.251 45.303 50.333C46.1836 49.4157 47.1666 48.7165 48.2509 48.2378C49.3357 47.758 50.49 47.5103 51.7158 47.4927C52.9416 47.4752 54.1693 47.7155 55.3994 48.2125C56.6295 48.7095 57.699 49.3987 58.5691 50.2616C59.4387 51.1258 60.0964 52.107 60.5439 53.2045C60.9909 54.3032 61.2057 55.485 61.1892 56.7514C61.1726 58.0179 60.9031 59.2977 60.3801 60.5922C59.8571 61.8866 59.1534 63.0155 58.2856 63.938C57.4178 64.8605 56.4404 65.566 55.3533 66.0517C54.2656 66.5386 53.1083 66.7905 51.8837 66.8085C50.6579 66.8261 49.4232 66.5829 48.1802 66.0807C46.9372 65.5785 45.8993 64.9021 45.0304 64.0396C44.1608 63.1755 43.5045 62.1908 43.0603 61.085C42.6162 59.9793 42.3957 58.7912 42.3994 57.5196C42.4031 56.2479 42.6685 54.9582 43.1971 53.6498ZM47.2827 55.3005C46.9666 56.0827 46.7855 56.8406 46.7406 57.5747C46.6957 58.3087 46.7743 58.9893 46.9773 59.6181C47.1803 60.2469 47.5076 60.8035 47.9579 61.2915C48.4082 61.7795 48.9739 62.1603 49.6544 62.4353C50.3349 62.7102 51.0064 62.8292 51.6693 62.791C52.3322 62.7528 52.9548 62.5786 53.5371 62.2684C54.1195 61.9583 54.6488 61.5233 55.1269 60.9629C55.6045 60.4037 56.0007 59.7327 56.3167 58.9505C56.6328 58.1682 56.795 57.4571 56.8371 56.73C56.8792 56.003 56.7991 55.3259 56.5956 54.6983C56.3922 54.0707 56.0653 53.5129 55.615 53.0249C55.1648 52.5369 54.5991 52.1561 53.9186 51.8811C53.238 51.6061 52.5661 51.4884 51.9037 51.5254C51.2408 51.5636 50.6182 51.7378 50.0358 52.048C49.4535 52.3581 48.9255 52.7895 48.4508 53.3418C47.9761 53.894 47.5869 54.5474 47.2827 55.3005Z" fill="#9D1122"/>
<path d="M62.1861 64.7952C62.6807 65.7391 63.3526 66.6145 64.2011 67.4198C65.0496 68.225 66.01 68.8375 67.0813 69.2527C67.798 69.5259 68.3589 69.6288 68.7671 69.5611C69.1749 69.4946 69.4579 69.2621 69.619 68.8633C69.8084 68.3945 69.7723 67.9419 69.5106 67.5056C69.2488 67.0693 68.726 66.5521 67.9422 65.9538C67.2751 65.4368 66.5934 64.892 65.8977 64.3212C65.2021 63.7504 64.6103 63.1278 64.1235 62.4509C63.6361 61.7752 63.312 61.0322 63.1506 60.223C62.9893 59.4138 63.113 58.5049 63.5207 57.4957C63.8826 56.6 64.3682 55.8999 64.9784 55.3929C65.5881 54.887 66.2794 54.5461 67.0535 54.3706C67.8272 54.1962 68.6551 54.1702 69.5388 54.296C70.4224 54.4218 71.3115 54.6654 72.2072 55.0273C72.8328 55.28 73.4086 55.5616 73.9365 55.8742C74.4633 56.1864 74.9647 56.5413 75.4401 56.9401C75.9155 57.3389 76.365 57.7817 76.7896 58.2661C77.2136 58.7516 77.6321 59.3015 78.0454 59.9147L74.9188 62.6204C74.4485 61.8183 73.8617 61.1025 73.1583 60.4701C72.4544 59.8389 71.6529 59.3246 70.7546 58.929C70.4621 58.7945 70.176 58.6912 69.8999 58.6204C69.6226 58.5492 69.3651 58.52 69.129 58.532C68.8929 58.5441 68.6855 58.5963 68.5074 58.6903C68.3293 58.7843 68.1967 58.9375 68.1107 59.1503C68.0247 59.3631 67.9798 59.5653 67.9784 59.7538C67.9766 59.9435 68.0387 60.1467 68.1662 60.3629C68.2934 60.5802 68.5028 60.8294 68.7936 61.1128C69.0844 61.3962 69.4898 61.7328 70.0088 62.1247C70.8151 62.7484 71.5633 63.3608 72.2547 63.9625C72.946 64.5642 73.5056 65.1956 73.9324 65.8563C74.3603 66.5175 74.618 67.2296 74.7072 67.992C74.7959 68.7555 74.6477 69.6138 74.2631 70.5656C73.9069 71.4473 73.4263 72.1454 72.8207 72.661C72.2152 73.1767 71.5211 73.5247 70.7371 73.7044C69.9531 73.8841 69.0991 73.9104 68.1743 73.7857C67.2499 73.6598 66.2885 73.3965 65.2946 72.9949C63.8727 72.4204 62.6327 71.6719 61.5762 70.7486C60.5185 69.8248 59.6166 68.7748 58.8689 67.5954L62.1842 64.7931L62.1861 64.7952Z" fill="#9D1122"/>
<path d="M90.9052 70.6185L89.4232 74.2866L81.0428 70.9007L79.7507 74.0988L88.7496 77.7346L87.2766 81.3805L73.8424 75.9527L80.7087 58.958L93.9289 64.2993L92.4469 67.9674L83.6619 64.4181L82.5248 67.2326L90.9052 70.6185Z" fill="#9D1122"/>
<path d="M85.6858 87.7051L23.5645 62.6064L22.8153 64.4608L84.9366 89.5595L85.6858 87.7051Z" fill="#9D1122"/>
</g>
<defs>
<clipPath id="clip0_721_7256">
<rect width="93" height="93" fill="white" transform="translate(34.8384) rotate(22)"/>
</clipPath>
</defs>
</svg>
