<svg width="24" height="24" viewBox="0 0 24 24" fill="none" xmlns="http://www.w3.org/2000/svg">
<path d="M1.39965 15.2002L4.95209 17.7856C5.35367 18.0845 5.91742 18.0683 6.36534 17.7532L9.86372 15.2002C10.3966 14.8124 10.3966 14.1903 9.86372 13.8025L6.32673 11.2253C5.9097 10.9263 5.35367 10.9182 4.95209 11.2091L1.39965 13.8025C0.866784 14.1903 0.866784 14.8124 1.39965 15.2002ZM7.76315 10.2073L11.3233 12.7926C11.7249 13.0915 12.2887 13.0754 12.7289 12.7522L16.235 10.2073C16.7678 9.81948 16.7678 9.19737 16.235 8.80957L12.6902 6.23232C12.2809 5.92531 11.7249 5.92531 11.3233 6.21616L7.76315 8.80957C7.238 9.19737 7.238 9.81948 7.76315 10.2073ZM14.1421 15.2002L17.6559 17.7613C18.0884 18.0764 18.6521 18.0764 19.0614 17.7775L22.6061 15.2002C23.1313 14.8124 23.1313 14.1903 22.6061 13.8025L19.0614 11.2253C18.6521 10.9263 18.0961 10.9182 17.6945 11.2091L14.1421 13.8025C13.6092 14.1903 13.6092 14.8124 14.1421 15.2002Z" fill="#FFB820"/>
</svg>
