<svg width="24" height="24" viewBox="0 0 24 24" fill="none" xmlns="http://www.w3.org/2000/svg">
<path fill-rule="evenodd" clip-rule="evenodd" d="M10.2222 1.99951C13.7778 4.22186 15.5556 7.55539 15.5556 12.0001C17.3333 12.0001 18.2222 10.8889 18.2222 8.66656C19.4074 9.77774 20 11.7223 20 14.5002C20 18.6224 17.3902 21.9291 12.1729 21.9995C12.3992 21.9825 12.6381 21.9552 12.8889 21.9173C14.6667 21.3617 15.5556 19.7228 15.5556 17.0004C12.7485 18.5794 11.2712 17.1666 11.1234 12.7619L11.1125 12.2602C11.1116 12.1745 11.1111 12.0878 11.1111 12.0001C8.21678 14.2528 7.64134 17.3161 9.38481 21.19C9.68493 21.5625 10.1259 21.8095 10.7077 21.931C6.23904 21.4314 4 18.3139 4 14.5002C4 12.1235 5.03277 10.7151 6.25679 9.4297L6.59473 9.08154L7.28387 8.38826L7.6275 8.03552C8.99314 6.60883 10.2222 4.96264 10.2222 1.99951Z" fill="#FF2F32"/>
</svg>
