<svg width="24" height="24" viewBox="0 0 24 24" fill="none" xmlns="http://www.w3.org/2000/svg">
<path d="M12 4V20C8.85 20 6.50933 15.9285 6.50933 15.9285H3.9C3.40294 15.9285 3 15.5305 3 15.0396V8.89369C3 8.40276 3.40294 8.0048 3.9 8.0048H6.50933C6.50933 8.0048 8.85 4 12 4Z" fill="#2ED573" stroke="#2ED573" stroke-width="2" stroke-linejoin="round"/>
<path d="M16 8C16.1558 8.24733 16.297 8.52431 16.421 8.82613C16.7847 9.71129 17 10.8099 17 12C17 13.1798 16.7884 14.2696 16.4305 15.1508C16.3042 15.4616 16.1598 15.7464 16 16" stroke="#2ED573" stroke-width="2" stroke-linecap="round" stroke-linejoin="round"/>
<path d="M17 20C19.3956 18.3674 21 15.3783 21 11.9615C21 8.59768 19.445 5.64854 17.1111 4" stroke="#2ED573" stroke-width="2" stroke-linecap="round"/>
</svg>
