<svg width="64" height="64" viewBox="0 0 64 64" fill="none" xmlns="http://www.w3.org/2000/svg">
<path d="M4 32C4 35.677 4.72424 39.318 6.13137 42.7151C7.5385 46.1123 9.60097 49.1989 12.201 51.799C14.8011 54.399 17.8877 56.4615 21.2849 57.8686C24.682 59.2758 28.323 60 32 60C35.677 60 39.318 59.2758 42.7151 57.8686C46.1123 56.4615 49.1989 54.399 51.799 51.799C54.399 49.1989 56.4615 46.1123 57.8686 42.7151C59.2758 39.318 60 35.677 60 32C60 28.323 59.2758 24.682 57.8686 21.2849C56.4615 17.8877 54.399 14.8011 51.799 12.201C49.1989 9.60097 46.1123 7.53851 42.7151 6.13137C39.318 4.72424 35.677 4 32 4C28.323 4 24.682 4.72424 21.2849 6.13137C17.8877 7.53851 14.8011 9.60097 12.201 12.201C9.60097 14.8011 7.5385 17.8877 6.13137 21.2849C4.72424 24.682 4 28.323 4 32Z" stroke="#0E0F12" stroke-width="3" stroke-linecap="round" stroke-linejoin="round"/>
<path d="M23 26C23 28.3869 23.9482 30.6761 25.636 32.364C27.3239 34.0518 29.6131 35 32 35C34.3869 35 36.6761 34.0518 38.364 32.364C40.0518 30.6761 41 28.3869 41 26C41 23.6131 40.0518 21.3239 38.364 19.636C36.6761 17.9482 34.3869 17 32 17C29.6131 17 27.3239 17.9482 25.636 19.636C23.9482 21.3239 23 23.6131 23 26Z" stroke="#0E0F12" stroke-width="3" stroke-linecap="round" stroke-linejoin="round"/>
<path d="M13.3333 52.3137C14.1253 49.6207 15.7461 47.2603 17.9551 45.5825C20.1641 43.9048 22.8437 42.9992 25.5964 43H38.3971C41.1533 42.999 43.8361 43.9068 46.0468 45.5884C48.2574 47.27 49.8776 49.6356 50.6666 52.3333" stroke="#0E0F12" stroke-width="3" stroke-linecap="round" stroke-linejoin="round"/>
</svg>
