<svg width="24" height="24" viewBox="0 0 24 24" fill="none" xmlns="http://www.w3.org/2000/svg">
<g clip-path="url(#clip0_80_42270)">
<path d="M17.0467 3C17.7357 2.99985 18.4013 3.25001 18.9196 3.70394L19.057 3.83279L20.1664 4.94129C20.677 5.45138 20.9745 6.13666 20.9984 6.85806C21.0224 7.57947 20.7709 8.28296 20.2952 8.82577L20.1664 8.9622L18.5501 10.5795L20.7215 12.7519C20.8846 12.9151 20.9826 13.1321 20.9971 13.3624C21.0116 13.5926 20.9416 13.8203 20.8002 14.0025L20.7215 14.0916L16.932 17.8813C16.7615 18.0513 16.5328 18.1499 16.2922 18.1573C16.0516 18.1646 15.8172 18.0801 15.6367 17.9209C15.4562 17.7617 15.343 17.5397 15.3202 17.3001C15.2973 17.0605 15.3666 16.8212 15.5138 16.6307L15.5924 16.5417L18.7112 13.4218L17.2087 11.9201L10.1374 18.9917C9.51123 19.6179 8.67756 19.9933 7.79363 20.0472L7.5729 20.0547C6.93437 20.0547 6.31289 19.8861 5.76815 19.5735L4.61614 20.7236C4.44565 20.8936 4.21688 20.9922 3.97629 20.9996C3.73571 21.0069 3.50135 20.9224 3.32081 20.7632C3.14027 20.604 3.0271 20.382 3.00427 20.1424C2.98145 19.9028 3.05068 19.6635 3.19791 19.473L3.27655 19.384L4.42666 18.2319C4.04904 17.5736 3.88743 16.8134 3.96459 16.0584C4.04175 15.3034 4.35379 14.5917 4.85677 14.0234L5.00835 13.8623L15.0373 3.83279C15.5242 3.34538 16.1716 3.05145 16.8591 3.00568L17.0467 3ZM17.0467 4.89487C16.8384 4.89485 16.636 4.96344 16.4707 5.09004L16.3769 5.17247L14.7597 6.78973L17.2096 9.23885L18.8268 7.62253C18.974 7.47515 19.0686 7.28335 19.0958 7.07681L19.1053 6.95269C19.1053 6.74401 19.0363 6.54119 18.9092 6.37571L18.8268 6.28191L17.7174 5.17247C17.6293 5.08437 17.5248 5.0145 17.4097 4.96687C17.2946 4.91924 17.1712 4.89477 17.0467 4.89487Z" fill="#36C9FF"/>
</g>
<defs>
<clipPath id="clip0_80_42270">
<rect width="24" height="24" fill="white"/>
</clipPath>
</defs>
</svg>
