<svg width="40" height="40" viewBox="0 0 40 40" fill="none" xmlns="http://www.w3.org/2000/svg">
<path d="M14.3333 13.6667L11.8333 16L19.9999 24L36.6666 7.33333L34.3333 5L19.9999 19.3333L14.3333 13.6667Z" fill="#1CCEB0"/>
<path d="M29.8334 18.5C30 19 30 19.5 30 20C30 26.5 24.8334 31.6667 18.3334 31.6667C11.8334 31.6667 6.66671 26.5 6.66671 20C6.66671 13.5 11.8334 8.33333 18.3334 8.33333C20.3334 8.33333 22.3334 8.83333 24.1667 9.83333L25.8334 7C23.5 5.66667 21 5 18.3334 5C10 5 3.33337 11.6667 3.33337 20C3.33337 28.3333 10 35 18.3334 35C26.6667 35 33.3334 28.3333 33.3334 20C33.3334 19.3333 33.3334 18.8333 33.1667 18.1667L29.8334 18.5Z" fill="#1CCEB0"/>
</svg>
