<svg width="64" height="64" viewBox="0 0 64 64" fill="none" xmlns="http://www.w3.org/2000/svg">
<circle cx="32" cy="32" r="22.5" stroke="#0E0F12" stroke-width="3"/>
<path d="M28.1001 25.7308C28.1001 26.1898 28.2845 26.63 28.6127 26.9546C28.9408 27.2792 29.386 27.4615 29.8501 27.4615C30.3142 27.4615 30.7593 27.2792 31.0875 26.9546C31.4157 26.63 31.6001 26.1898 31.6001 25.7308C31.6001 25.2717 31.4157 24.8315 31.0875 24.5069C30.7593 24.1823 30.3142 24 29.8501 24C29.386 24 28.9408 24.1823 28.6127 24.5069C28.2845 24.8315 28.1001 25.2717 28.1001 25.7308Z" fill="#0E0F12" stroke="#0E0F12" stroke-width="3" stroke-linecap="round" stroke-linejoin="round"/>
<path d="M40.7 25.7308C40.7 26.1898 40.8843 26.63 41.2125 26.9546C41.5407 27.2792 41.9858 27.4615 42.45 27.4615C42.9141 27.4615 43.3592 27.2792 43.6874 26.9546C44.0156 26.63 44.2 26.1898 44.2 25.7308C44.2 25.2717 44.0156 24.8315 43.6874 24.5069C43.3592 24.1823 42.9141 24 42.45 24C41.9858 24 41.5407 24.1823 41.2125 24.5069C40.8843 24.8315 40.7 25.2717 40.7 25.7308Z" fill="#0E0F12" stroke="#0E0F12" stroke-width="3" stroke-linecap="round" stroke-linejoin="round"/>
<path d="M27.3999 39.2308C27.3999 39.2308 30.3166 35.0769 36.1499 35.0769C41.9832 35.0769 44.8999 39.2308 44.8999 39.2308" stroke="#0E0F12" stroke-width="3" stroke-linecap="round"/>
<path d="M25.1943 27.463C25.1943 27.463 21.3123 27.3673 19.8076 28.6725C19.8076 28.6725 18.0583 30.1905 19.7087 31.4983C19.7087 31.4983 21.3864 32.8513 23.0115 31.4405C23.0115 31.4405 23.7511 30.7992 23.9888 29.6659C23.9888 29.6659 24.1923 28.6662 25.1943 27.463Z" fill="#0E0F12"/>
<path d="M23.8152 36.0434C23.8152 36.0434 21.112 35.9767 20.0649 36.8855C20.0649 36.8855 18.8468 37.9431 19.9959 38.8524C19.9959 38.8524 21.164 39.7949 22.2953 38.8125C22.2953 38.8125 22.8099 38.3657 22.9754 37.5767C22.9754 37.5767 23.1173 36.8808 23.8152 36.0434Z" fill="#0E0F12"/>
</svg>
