<svg width="20" height="20" viewBox="0 0 20 20" fill="none" xmlns="http://www.w3.org/2000/svg">
<path d="M15 1.33989C16.5083 2.21075 17.7629 3.46042 18.6398 4.96519C19.5167 6.46997 19.9854 8.17766 19.9994 9.91923C20.0135 11.6608 19.5725 13.3758 18.72 14.8946C17.8676 16.4133 16.6332 17.6831 15.1392 18.5782C13.6452 19.4733 11.9434 19.9627 10.2021 19.998C8.46083 20.0332 6.74055 19.6131 5.21155 18.7791C3.68256 17.9452 2.39787 16.7264 1.48467 15.2434C0.571462 13.7604 0.0614093 12.0646 0.00500011 10.3239L0 9.99989L0.00500011 9.67589C0.0610032 7.94888 0.563548 6.26585 1.46364 4.79089C2.36373 3.31592 3.63065 2.09934 5.14089 1.25977C6.65113 0.420205 8.35315 -0.0137108 10.081 0.000330246C11.8089 0.0143713 13.5036 0.47589 15 1.33989ZM8.511 7.13989C8.30148 7.01517 8.05361 6.9713 7.81401 7.01652C7.57441 7.06175 7.35959 7.19296 7.20995 7.38547C7.06031 7.57799 6.98617 7.81854 7.00146 8.0619C7.01675 8.30525 7.12043 8.53463 7.293 8.70689L8.585 9.99989L7.293 11.2929L7.21 11.3869C7.05459 11.5879 6.98151 11.8405 7.0056 12.0934C7.02969 12.3463 7.14916 12.5806 7.33972 12.7486C7.53029 12.9167 7.77767 13.0059 8.03162 12.9981C8.28557 12.9904 8.52704 12.8862 8.707 12.7069L10 11.4149L11.293 12.7069L11.387 12.7899C11.588 12.9453 11.8406 13.0184 12.0935 12.9943C12.3464 12.9702 12.5807 12.8507 12.7488 12.6602C12.9168 12.4696 13.006 12.2222 12.9982 11.9683C12.9905 11.7143 12.8863 11.4729 12.707 11.2929L11.415 9.99989L12.707 8.70689L12.79 8.61289C12.9454 8.4119 13.0185 8.15929 12.9944 7.90637C12.9703 7.65344 12.8508 7.41917 12.6603 7.25114C12.4697 7.08311 12.2223 6.99391 11.9684 7.00166C11.7144 7.00942 11.473 7.11355 11.293 7.29289L10 8.58489L8.707 7.29289L8.613 7.20989L8.511 7.13989Z" fill="#707070"/>
</svg>
