<svg width="64" height="64" viewBox="0 0 64 64" fill="none" xmlns="http://www.w3.org/2000/svg">
<path d="M13 36.0333C13 34.6188 13.5619 33.2622 14.5621 32.262C15.5623 31.2619 16.9188 30.7 18.3333 30.7H45C46.4145 30.7 47.771 31.2619 48.7712 32.262C49.7714 33.2622 50.3333 34.6188 50.3333 36.0333V52.0333C50.3333 53.4478 49.7714 54.8043 48.7712 55.8045C47.771 56.8047 46.4145 57.3666 45 57.3666H18.3333C16.9188 57.3666 15.5623 56.8047 14.5621 55.8045C13.5619 54.8043 13 53.4478 13 52.0333V36.0333Z" stroke="#0E0F12" stroke-width="3" stroke-linecap="round" stroke-linejoin="round"/>
<path d="M29 44.0334C29 44.7406 29.281 45.4189 29.781 45.919C30.2811 46.4191 30.9594 46.7 31.6667 46.7C32.3739 46.7 33.0522 46.4191 33.5523 45.919C34.0524 45.4189 34.3333 44.7406 34.3333 44.0334C34.3333 43.3261 34.0524 42.6478 33.5523 42.1477C33.0522 41.6477 32.3739 41.3667 31.6667 41.3667C30.9594 41.3667 30.2811 41.6477 29.781 42.1477C29.281 42.6478 29 43.3261 29 44.0334Z" stroke="#0E0F12" stroke-width="3" stroke-linecap="round" stroke-linejoin="round"/>
<path d="M21 30.7V17.3666C21 14.5376 22.1238 11.8245 24.1242 9.82415C26.1246 7.82376 28.8377 6.69995 31.6667 6.69995C34.4956 6.69995 37.2088 7.82376 39.2091 9.82415C41.2095 11.8245 42.3333 14.5376 42.3333 17.3666" stroke="#0E0F12" stroke-width="3" stroke-linecap="round" stroke-linejoin="round"/>
</svg>
