<svg width="122" height="122" viewBox="0 0 122 122" fill="none" xmlns="http://www.w3.org/2000/svg">
<g clip-path="url(#clip0_721_7232)">
<path d="M103.337 42.3641C98.4831 30.9312 89.4687 22.0721 77.9525 17.4192C66.4362 12.7663 53.7978 12.8771 42.3642 17.7295C30.9312 22.5834 22.0721 31.5978 17.4192 43.114C12.7664 54.6303 12.8771 67.2687 17.7295 78.7024C22.5824 90.1349 31.5978 98.9944 43.1141 103.647C54.6303 108.3 67.2688 108.189 78.7024 103.337C90.135 98.4842 98.9945 89.4687 103.647 77.9525C108.3 66.4362 108.189 53.7978 103.337 42.3641ZM76.5193 98.1939C66.4603 102.464 55.3393 102.561 45.207 98.4672C35.0746 94.3735 27.1424 86.5782 22.8726 76.5192C18.6028 66.4603 18.5056 55.3393 22.5993 45.2069C26.693 35.0746 34.4883 27.1424 44.5473 22.8726C54.6063 18.6028 65.7273 18.5056 75.8596 22.5993C85.9919 26.693 93.9241 34.4883 98.1939 44.5473C102.464 54.6062 102.561 65.7272 98.4673 75.8596C94.3735 85.9919 86.5783 93.9241 76.5193 98.1939Z" fill="#6F7380"/>
<path d="M97.7969 56.7139L35.6755 31.6152L34.9263 33.4696L97.0476 58.5682L97.7969 56.7139Z" fill="#6F7380"/>
<path d="M30.801 39.3574L38.2687 42.3746C39.3131 42.7965 40.1681 43.3835 40.8318 44.1346C41.4955 44.8856 41.9726 45.7397 42.2616 46.6948C42.5502 47.651 42.647 48.6832 42.5522 49.7916C42.4558 50.9006 42.1749 52.0341 41.7078 53.1901C41.2407 54.3462 40.6161 55.4201 39.8829 56.2879C39.1496 57.1557 38.3188 57.8206 37.3889 58.2832C36.459 58.7458 35.4452 58.9901 34.3484 59.0138C33.2505 59.037 32.0898 58.8021 30.8645 58.3071L24.2292 55.6262L30.802 39.3579L30.801 39.3574ZM29.6706 53.7407L32.0498 54.702C32.6822 54.9575 33.2833 55.0542 33.8568 54.9925C34.4289 54.9313 34.9572 54.7485 35.4392 54.4443C35.9223 54.1404 36.3561 53.7349 36.7415 53.2256C37.1268 52.7163 37.4488 52.143 37.7073 51.5032C37.9658 50.8635 38.1075 50.252 38.1504 49.6279C38.1923 49.0034 38.125 48.4189 37.9484 47.8721C37.7714 47.3263 37.4796 46.8319 37.0734 46.3905C36.6669 45.9501 36.1343 45.5949 35.4764 45.3291L33.4069 44.493L29.671 53.7397L29.6706 53.7407Z" fill="#6F7380"/>
<path d="M46.6096 45.7434L55.2569 49.2372C55.9276 49.5081 56.5169 49.8577 57.028 50.2846C57.5376 50.7121 57.9273 51.2064 58.1966 51.766C58.4658 52.3255 58.599 52.9613 58.5966 53.6724C58.5941 54.3834 58.4249 55.1546 58.0899 55.9839C57.6499 57.0729 57.1196 57.8828 56.4992 58.416C55.8789 58.9492 55.1441 59.2814 54.2959 59.413L54.3334 67.7855L50.1359 66.0896L50.1456 59.1602L46.1235 58.532L44.062 63.6344L40.0381 62.0086L46.6109 45.7402L46.6096 45.7434ZM54.0433 54.4691C54.1973 54.088 54.2114 53.7098 54.0856 53.3346C53.9599 52.9593 53.6968 52.6908 53.2966 52.5291L49.214 50.8797L47.6222 54.8195L51.5867 55.5904C52.294 55.7338 52.8362 55.6915 53.2131 55.4636C53.5899 55.2357 53.8659 54.9051 54.0423 54.4687L54.0433 54.4691Z" fill="#6F7380"/>
<path d="M55.1073 68.1014L66.9039 53.9435L71.9722 55.9913L70.6231 74.3701L66.5991 72.7443L66.9681 67.5984L61.3911 67.0305L59.1317 69.7261L55.1078 68.1003L55.1073 68.1014ZM64.1874 63.6738L67.2173 63.9717L67.5408 59.6618L64.1878 63.6728L64.1874 63.6738Z" fill="#6F7380"/>
<path d="M80.3321 59.369L78.5041 69.5759L84.1634 60.917L88.0905 62.5036L85.9833 72.7885L91.9207 64.0511L95.9255 65.6692L85.4447 80.3586L81.4399 78.7406L83.6727 67.7004L77.648 77.2086L73.6624 75.5983L76.3273 57.751L80.3321 59.369Z" fill="#6F7380"/>
<path d="M85.2289 87.8213L23.1075 62.7227L22.3583 64.577L84.4796 89.6757L85.2289 87.8213Z" fill="#6F7380"/>
</g>
<defs>
<clipPath id="clip0_721_7232">
<rect width="93" height="93" fill="white" transform="translate(34.8384) rotate(22)"/>
</clipPath>
</defs>
</svg>
