<svg width="24" height="24" viewBox="0 0 24 24" fill="none" xmlns="http://www.w3.org/2000/svg">
<path d="M9.1317 11.6508C9.543 11.3088 9.9579 11.3088 10.3791 11.6607L10.4763 11.7489L14.9637 16.2363L15.0483 16.311C15.2215 16.4452 15.4377 16.5117 15.6563 16.4979C15.875 16.4841 16.0811 16.391 16.2361 16.2361C16.391 16.0811 16.4841 15.875 16.4979 15.6563C16.5117 15.4377 16.4452 15.2215 16.311 15.0483L16.2363 14.9637L15.0735 13.8L15.3363 13.5363L15.4317 13.4508C15.843 13.1088 16.2579 13.1088 16.6791 13.4607L16.7763 13.5489L20.9829 17.7564C20.8977 18.6134 20.508 19.4115 19.8847 20.0058C19.2613 20.6002 18.4455 20.9513 17.5854 20.9955L17.4 21H6.6C5.70712 20.9999 4.84612 20.6681 4.18418 20.0688C3.52225 19.4696 3.10662 18.6458 3.018 17.7573L9.0363 11.7363L9.1317 11.6508ZM17.4 3C18.3236 3 19.2119 3.35499 19.8811 3.99155C20.5504 4.62811 20.9493 5.49754 20.9955 6.42L21 6.6V15.2265L18.0363 12.2637L17.9013 12.1404C16.7709 11.1549 15.3363 11.1531 14.2149 12.1251L14.0763 12.2511L13.8 12.5265L11.7363 10.4637L11.6013 10.3404C10.4709 9.3549 9.0363 9.3531 7.9149 10.3251L7.7763 10.4511L3 15.2265V6.6C3 5.67638 3.35499 4.78809 3.99155 4.11887C4.62811 3.44964 5.49754 3.05068 6.42 3.0045L6.6 3H17.4ZM14.709 7.5L14.5947 7.5063C14.376 7.53232 14.1743 7.63766 14.0281 7.80237C13.8818 7.96708 13.801 8.17971 13.801 8.4C13.801 8.62029 13.8818 8.83292 14.0281 8.99763C14.1743 9.16234 14.376 9.26768 14.5947 9.2937L14.7 9.3L14.8143 9.2937C15.033 9.26768 15.2346 9.16234 15.3809 8.99763C15.5272 8.83292 15.608 8.62029 15.608 8.4C15.608 8.17971 15.5272 7.96708 15.3809 7.80237C15.2346 7.63766 15.033 7.53232 14.8143 7.5063L14.709 7.5Z" fill="#FFB020"/>
</svg>
