<svg width="16" height="5" viewBox="0 0 16 5" fill="none" xmlns="http://www.w3.org/2000/svg">
<path d="M3.20937 3.81818H0.979128V0.424243C0.979128 0.188553 0.761544 0 0.489564 0C0.217584 0 0 0.188553 0 0.424243V4.21886C0 4.45455 0.217584 4.6431 0.489564 4.6431H3.18217C3.45415 4.6431 3.67173 4.45455 3.67173 4.21886C3.67173 3.98317 3.48135 3.81818 3.20937 3.81818Z" fill="#FF3033"/>
<path d="M6.11744 0.0239258H5.27431C4.51276 0.0239258 3.88721 0.566013 3.88721 1.22595V3.41786C3.88721 4.0778 4.51276 4.61988 5.27431 4.61988H6.11744C6.87899 4.61988 7.50454 4.0778 7.50454 3.41786V1.22595C7.53174 0.566013 6.90619 0.0239258 6.11744 0.0239258ZM6.57981 3.44143C6.57981 3.65355 6.38943 3.81854 6.14464 3.81854H5.3015C5.05672 3.81854 4.86634 3.65355 4.86634 3.44143V1.24952C4.86634 1.03739 5.05672 0.87241 5.3015 0.87241H6.14464C6.38943 0.87241 6.57981 1.03739 6.57981 1.24952V3.44143Z" fill="#FF3033"/>
<path d="M9.107 0.848485H10.9837C11.2556 0.848485 11.4732 0.659933 11.4732 0.424243C11.4732 0.188553 11.2556 0 10.9837 0H9.107C8.37265 0 7.80149 0.518519 7.80149 1.13131V1.57912C7.80149 2.21549 8.39985 2.71044 9.107 2.71044H10.1405C10.3309 2.71044 10.4941 2.85185 10.4941 3.01684V3.51178C10.4941 3.67677 10.3309 3.81818 10.1405 3.81818H8.26386C7.99187 3.81818 7.77429 4.00673 7.77429 4.24242C7.77429 4.47811 7.99187 4.66667 8.26386 4.66667H10.1405C10.8749 4.66667 11.446 4.14815 11.446 3.53535V3.08754C11.446 2.45118 10.8477 1.95623 10.1405 1.95623H9.107C8.91661 1.95623 8.75342 1.81481 8.75342 1.64983V1.15488C8.75342 0.989899 8.91661 0.848485 9.107 0.848485Z" fill="#FF3033"/>
<path d="M14.8437 2.73401C15.1156 2.73401 15.3332 2.54545 15.3332 2.33333C15.3332 2.12121 15.1156 1.90909 14.8437 1.90909H12.6134V0.942761C12.6134 0.895623 12.6678 0.848485 12.7222 0.848485H14.8165C15.0884 0.848485 15.306 0.659933 15.306 0.424243C15.306 0.188553 15.0884 0 14.8165 0H12.7222C12.1239 0 11.6615 0.424243 11.6615 0.919192V3.70034C11.6615 4.21886 12.1511 4.61953 12.7222 4.61953H14.8165C15.0884 4.61953 15.306 4.43098 15.306 4.19529C15.306 3.9596 15.0884 3.77104 14.8165 3.77104H12.7222C12.6678 3.77104 12.6134 3.7239 12.6134 3.67677V2.73401H14.8437Z" fill="#FF3033"/>
</svg>
