<svg width="24" height="24" viewBox="0 0 24 24" fill="none" xmlns="http://www.w3.org/2000/svg">
<g clip-path="url(#clip0_494_9677)">
<path d="M19.3292 13.4872C21.3538 13.8984 23.3276 12.5907 23.7387 10.5662C24.1498 8.54163 22.8422 6.56784 20.8176 6.15674C21.2287 4.13218 19.9211 2.15839 17.8966 1.74852C15.872 1.33742 13.8982 2.64502 13.4883 4.66958C13.8994 2.64502 12.5918 0.671233 10.5673 0.26013C8.54273 -0.150973 6.56894 1.15663 6.15783 3.18119C4.13328 2.77009 2.15948 4.07769 1.74838 6.10225C1.33728 8.12681 2.64488 10.1006 4.66944 10.5105C2.64488 10.0994 0.671094 11.407 0.261229 13.4315C-0.149874 15.4561 1.15773 17.4299 3.18229 17.841C2.77119 19.8655 4.07879 21.8393 6.10335 22.2504C8.12791 22.6615 10.1017 21.3539 10.5128 19.3294C10.1017 21.3539 11.4093 23.3277 13.4339 23.7376C15.4584 24.1487 17.4322 22.8411 17.8433 20.8165C19.8679 21.2276 21.8417 19.92 22.2515 17.8955C22.6626 15.8709 21.355 13.8971 19.3305 13.4872H19.3292Z" fill="#4DD9A6"/>
<path d="M10.8832 9.93019C10.9351 9.51512 10.6887 9.1425 10.3328 9.09791C9.97684 9.05332 9.64614 9.35365 9.59414 9.76872C9.54215 10.1838 9.78856 10.5564 10.1445 10.601C10.5005 10.6456 10.8312 10.3453 10.8832 9.93019Z" fill="white"/>
<path d="M14.0133 9.91285C14.0653 9.49779 13.8189 9.12516 13.4629 9.08058C13.107 9.03599 12.7763 9.33632 12.7243 9.75139C12.6723 10.1665 12.9187 10.5391 13.2746 10.5837C13.6306 10.6283 13.9613 10.3279 14.0133 9.91285Z" fill="white"/>
<path d="M14.5 12.0171C14.5 13.1203 13.3797 14.0171 12 14.0171C10.6203 14.0171 9.5 13.1203 9.5 12.0171" stroke="white" stroke-miterlimit="10" stroke-linecap="round"/>
</g>
<defs>
<clipPath id="clip0_494_9677">
<rect width="24" height="24" fill="white"/>
</clipPath>
</defs>
</svg>
