<svg width="64" height="64" viewBox="0 0 64 64" fill="none" xmlns="http://www.w3.org/2000/svg">
<g clip-path="url(#clip0_342_5114)">
<path d="M50.9282 14.5593C50.5726 14.5593 50.2171 14.4235 49.9412 14.1456C49.3956 13.5961 49.3956 12.7069 49.9412 12.1635L53.8832 8.19317C54.4288 7.64362 55.3116 7.64362 55.8511 8.19317C56.3967 8.74272 56.3967 9.63189 55.8511 10.1753L51.9091 14.1456C51.6394 14.4173 51.2777 14.5593 50.9221 14.5593H50.9282Z" fill="#0E0F12"/>
<path d="M60.6084 21.506H55.0357C54.2632 21.506 53.644 20.8761 53.644 20.1043C53.644 19.3325 54.2694 18.7026 55.0357 18.7026H60.6084C61.3808 18.7026 62 19.3325 62 20.1043C62 20.8761 61.3747 21.506 60.6084 21.506Z" fill="#0E0F12"/>
<path d="M44.0313 10.4224C43.2588 10.4224 42.6396 9.79253 42.6396 9.02069V3.40167C42.6396 2.62365 43.265 2 44.0313 2C44.7976 2 45.4229 2.62982 45.4229 3.40167V9.01451C45.4229 9.79253 44.7976 10.4162 44.0313 10.4162V10.4224Z" fill="#0E0F12"/>
<path d="M50.7872 29.0516C50.0883 29.0516 49.4385 29.2121 48.8377 29.4838V28.1624C48.8377 25.532 46.7165 23.3955 44.1049 23.3955C43.406 23.3955 42.7439 23.556 42.1431 23.8339C42.0818 21.259 39.9913 19.1843 37.4226 19.1843C34.8538 19.1843 32.7633 21.259 32.702 23.8339C32.1012 23.556 31.4452 23.3955 30.7402 23.3955C28.1286 23.3955 26.0074 25.532 26.0074 28.1624V38.9003L25.4618 37.9432C24.8303 36.8441 23.8127 36.0537 22.5866 35.7265C21.3604 35.3992 20.0853 35.5659 18.994 36.2019C16.7318 37.5171 15.9594 40.4378 17.2591 42.7163L19.3435 46.347C19.5948 56.733 25.6764 62 37.4226 62C49.1687 62 55.4526 56.5601 55.52 45.7666V33.8123C55.52 31.1819 53.3989 29.0454 50.7872 29.0454V29.0516ZM37.4287 59.1967C26.9454 59.1967 22.231 55.109 22.1268 45.9457C22.1268 45.7049 22.0593 45.4702 21.9428 45.2603L19.6807 41.3146C19.4232 40.8639 19.3557 40.339 19.4906 39.8265C19.6255 39.3202 19.9443 38.8941 20.3918 38.6348C21.3237 38.0914 22.513 38.4187 23.0525 39.351L25.9522 44.4082C26.0135 44.507 26.0503 44.6181 26.0932 44.7231C26.3139 45.3714 26.976 45.7543 27.6381 45.6493C28.3064 45.5381 28.803 44.9515 28.803 44.2661V28.1624C28.803 27.0818 29.6735 26.1988 30.7525 26.1988C31.8315 26.1988 32.702 27.0757 32.702 28.1624V40.7218C32.702 41.4999 33.3273 42.1235 34.0937 42.1235C34.86 42.1235 35.4853 41.4937 35.4853 40.7218V23.9512C35.4853 22.8706 36.362 21.9877 37.4348 21.9877C38.5077 21.9877 39.3843 22.8706 39.3843 23.9512V40.7218C39.3843 41.4999 40.0097 42.1235 40.776 42.1235C41.5423 42.1235 42.1676 41.4937 42.1676 40.7218V28.1624C42.1676 27.0818 43.0443 26.1988 44.1171 26.1988C45.19 26.1988 46.0667 27.0757 46.0667 28.1624V40.7218H48.8561V33.8123C48.8561 32.7317 49.7328 31.8549 50.7995 31.8549C51.8662 31.8549 52.749 32.7379 52.749 33.8185V42.0618V42.4569V45.816C52.6938 54.9423 47.8323 59.1967 37.4409 59.1967H37.4287Z" fill="#0E0F12"/>
<path d="M37.2509 13.806C36.644 13.4541 35.9941 13.2627 35.3382 13.2009C36.5581 10.941 35.7857 8.08823 33.5542 6.79771C31.3288 5.50719 28.4903 6.24816 27.1538 8.44637C26.7737 7.90299 26.2833 7.43371 25.6764 7.08175C23.4142 5.7727 20.5144 6.55072 19.2086 8.8292L13.8811 18.1284V17.0231C13.8811 14.3926 11.7538 12.2562 9.14831 12.2562C6.54282 12.2562 4.41551 14.3926 4.41551 17.0231V21.2157C-0.525743 30.3358 2.1288 37.9617 12.2994 43.8771C12.5201 44.0067 12.7592 44.0623 12.9922 44.0623C13.4765 44.0623 13.9424 43.8091 14.1999 43.3584C14.5861 42.6853 14.3593 41.827 13.6911 41.438C4.61168 36.1648 2.55794 30.2494 7.021 22.2593C7.13748 22.0493 7.19879 21.8147 7.19879 21.5739V17.0169C7.19879 15.9363 8.06933 15.0533 9.14218 15.0533C10.215 15.0533 11.0917 15.9363 11.0917 17.0169V22.8459C11.0917 22.9694 11.0733 23.0929 11.0549 23.2102C10.9323 23.8832 11.3063 24.5439 11.9439 24.7786C12.5753 25.0132 13.2926 24.7539 13.6298 24.1611L21.624 10.2185C21.8815 9.76777 22.2984 9.44668 22.8072 9.31083C23.31 9.16881 23.8372 9.24291 24.2847 9.50225C24.7322 9.76159 25.051 10.1815 25.1859 10.694C25.3208 11.2003 25.2533 11.7313 24.9959 12.1821L18.7611 23.062C18.3748 23.735 18.6017 24.5933 19.2699 24.9762C19.932 25.359 20.7842 25.1305 21.1704 24.4637L27.4052 13.5899L29.4957 9.94683C30.0291 9.00827 31.2307 8.69336 32.1564 9.23056C33.0882 9.76776 33.407 10.9718 32.8675 11.9104L25.9338 24.0067C25.5476 24.6798 25.7744 25.5381 26.4427 25.9271C26.6634 26.0567 26.9025 26.1123 27.1354 26.1123C27.6198 26.1123 28.0857 25.8592 28.3432 25.4084L33.1863 16.9613C33.7197 16.029 34.9151 15.7017 35.847 16.2451C36.7788 16.7884 37.0976 17.9864 36.5581 18.9249C36.1719 19.598 36.3987 20.4562 37.067 20.8391C37.2877 20.9688 37.5268 21.0305 37.7597 21.0305C38.2441 21.0305 38.71 20.7773 38.9675 20.3266C40.2733 18.0543 39.4947 15.1274 37.2325 13.8122L37.2509 13.806Z" fill="#0E0F12"/>
</g>
<defs>
<clipPath id="clip0_342_5114">
<rect width="60" height="60" fill="white" transform="translate(2 2)"/>
</clipPath>
</defs>
</svg>
