<svg width="24" height="24" viewBox="0 0 24 24" fill="none" xmlns="http://www.w3.org/2000/svg">
<path fill-rule="evenodd" clip-rule="evenodd" d="M9.25191 4.57241C10.4733 2.47587 13.5267 2.47586 14.7481 4.57241L21.5701 16.2828C22.7915 18.3793 21.2648 21 18.822 21H5.17797C2.73523 21 1.20849 18.3793 2.42986 16.2828L9.25191 4.57241ZM14.7305 13.1043C13.7723 13.1035 12.8341 13.3761 12.0277 13.8895C11.2193 13.3828 10.2813 13.1169 9.32503 13.1234C9.04419 13.1246 8.76391 13.1489 8.48715 13.1962C8.3965 13.2117 8.31441 13.2588 8.25567 13.3291C8.19692 13.3993 8.16536 13.488 8.1667 13.5792V18.1754C8.16587 18.2317 8.17754 18.2874 8.2009 18.3387C8.22427 18.39 8.25877 18.4356 8.30189 18.4721C8.34502 18.5087 8.39578 18.5354 8.45049 18.5503C8.50518 18.5652 8.56252 18.568 8.61842 18.5584C9.17171 18.4634 9.73863 18.4791 10.2857 18.6048C10.8327 18.7304 11.3489 18.9634 11.8038 19.2899L11.8502 19.3167H11.8926C11.9355 19.3344 11.9814 19.3436 12.0277 19.3436C12.0741 19.3436 12.1201 19.3344 12.1629 19.3167H12.2054L12.2517 19.2899C12.7034 18.9561 13.2181 18.7156 13.7653 18.5827C14.3125 18.4498 14.881 18.4272 15.4371 18.5163C15.493 18.5258 15.5504 18.5231 15.6051 18.5082C15.6598 18.4932 15.7105 18.4665 15.7537 18.43C15.7968 18.3934 15.8312 18.3479 15.8546 18.2966C15.878 18.2453 15.8897 18.1895 15.8889 18.1333V13.5371C15.8848 13.4498 15.8509 13.3666 15.7926 13.3011C15.7343 13.2356 15.6551 13.1919 15.5684 13.1771C15.2916 13.1298 15.0113 13.1054 14.7305 13.1043ZM10.0833 10.3988C9.66911 10.3988 9.33333 10.8067 9.33332 11.3098C9.33332 11.813 9.66911 12.2208 10.0833 12.2208C10.4975 12.2208 10.8333 11.813 10.8333 11.3098C10.8333 10.8067 10.4975 10.3988 10.0833 10.3988ZM14.0278 10.3988C13.6136 10.3988 13.2778 10.8067 13.2777 11.3098C13.2778 11.813 13.6136 12.2208 14.0278 12.2208C14.442 12.2208 14.7778 11.813 14.7778 11.3098C14.7778 10.8067 14.442 10.3988 14.0278 10.3988Z" fill="black"/>
</svg>
