<svg width="40" height="40" viewBox="0 0 40 40" fill="none" xmlns="http://www.w3.org/2000/svg">
<path d="M14.3334 13.6665L11.8334 15.9999L20 23.9999L36.6667 7.33321L34.3334 4.99988L20 19.3332L14.3334 13.6665Z" fill="#2F6BFF"/>
<path d="M29.8334 18.5001C30 19.0001 30 19.5001 30 20.0001C30 26.5001 24.8334 31.6668 18.3334 31.6668C11.8334 31.6668 6.66671 26.5001 6.66671 20.0001C6.66671 13.5001 11.8334 8.33346 18.3334 8.33346C20.3334 8.33346 22.3334 8.83346 24.1667 9.83346L25.8334 7.00012C23.5 5.66679 21 5.00012 18.3334 5.00012C10 5.00012 3.33337 11.6668 3.33337 20.0001C3.33337 28.3335 10 35.0001 18.3334 35.0001C26.6667 35.0001 33.3334 28.3335 33.3334 20.0001C33.3334 19.3335 33.3334 18.8335 33.1667 18.1668L29.8334 18.5001Z" fill="#2F6BFF"/>
</svg>
