<svg width="12" height="14" viewBox="0 0 12 14" fill="none" xmlns="http://www.w3.org/2000/svg">
<path d="M10.2427 1.75737C11.3443 2.85879 11.9743 4.34545 11.9995 5.90298C12.0248 7.46051 11.4433 8.96681 10.378 10.1034L10.2427 10.2434L7.41404 13.0714C7.05512 13.4301 6.57329 13.6389 6.06614 13.6556C5.55899 13.6723 5.06445 13.4957 4.6827 13.1614L4.5867 13.0714L1.75737 10.2427C0.632145 9.11748 0 7.59135 0 6.00004C0 4.40873 0.632145 2.8826 1.75737 1.75737C2.8826 0.632145 4.40873 0 6.00004 0C7.59135 0 9.11748 0.632145 10.2427 1.75737ZM6.00004 4.00004C5.73739 4.00004 5.47732 4.05177 5.23467 4.15228C4.99202 4.25279 4.77154 4.40011 4.58582 4.58582C4.40011 4.77154 4.25279 4.99202 4.15228 5.23467C4.05177 5.47732 4.00004 5.73739 4.00004 6.00004C4.00004 6.26268 4.05177 6.52275 4.15228 6.7654C4.25279 7.00806 4.40011 7.22853 4.58582 7.41425C4.77154 7.59997 4.99202 7.74729 5.23467 7.8478C5.47732 7.94831 5.73739 8.00004 6.00004 8.00004C6.53047 8.00004 7.03918 7.78932 7.41425 7.41425C7.78932 7.03918 8.00004 6.53047 8.00004 6.00004C8.00004 5.4696 7.78932 4.9609 7.41425 4.58582C7.03918 4.21075 6.53047 4.00004 6.00004 4.00004Z" fill="#0E0F12"/>
</svg>
