<svg width="93" height="93" viewBox="0 0 93 93" fill="none" xmlns="http://www.w3.org/2000/svg">
<g clip-path="url(#clip0_721_7256)">
<path d="M79.3807 13.6193C70.5973 4.83715 58.9207 0 46.5 0C34.0793 0 22.4027 4.83715 13.6193 13.6193C4.83715 22.4027 0 34.0793 0 46.5C0 58.9207 4.83715 70.5973 13.6193 79.3807C22.4015 88.1629 34.0793 93 46.5 93C58.9207 93 70.5973 88.1629 79.3807 79.3807C88.1629 70.5985 93 58.9207 93 46.5C93 34.0793 88.1629 22.4027 79.3807 13.6193ZM75.4299 75.4299C67.7029 83.1569 57.4281 87.4131 46.5 87.4131C35.5719 87.4131 25.2971 83.1569 17.5701 75.4299C9.84307 67.7029 5.58689 57.4281 5.58689 46.5C5.58689 35.5719 9.84307 25.2971 17.5701 17.5701C25.2971 9.84307 35.5719 5.58689 46.5 5.58689C57.4281 5.58689 67.7029 9.84307 75.4299 17.5701C83.1569 25.2971 87.4131 35.5719 87.4131 46.5C87.4131 57.4281 83.1569 67.7029 75.4299 75.4299Z" fill="#9D1122"/>
<path d="M80 29H13V31H80V29Z" fill="#9D1122"/>
<path d="M13.8945 37.4814H18.678V51.8547H27.4404V55.8109H13.8945V37.4814Z" fill="#9D1122"/>
<path d="M27.8477 46.6124C27.8477 45.2176 28.0836 43.93 28.5577 42.7483C29.0307 41.5678 29.6802 40.5514 30.5062 39.7014C31.3322 38.8501 32.3096 38.188 33.4396 37.7125C34.5696 37.2371 35.7979 37 37.1247 37C38.4514 37 39.7012 37.2384 40.8312 37.7125C41.9611 38.188 42.9385 38.8514 43.7646 39.7014C44.5906 40.5526 45.2325 41.5678 45.6916 42.7483C46.1506 43.9287 46.3802 45.2163 46.3802 46.6124C46.3802 48.0085 46.1506 49.3188 45.6916 50.4992C45.2325 51.6797 44.5906 52.6999 43.7646 53.5575C42.9385 54.4163 41.9599 55.0835 40.8312 55.5589C39.7012 56.0344 38.4653 56.2715 37.1247 56.2715C35.7841 56.2715 34.5683 56.0331 33.4396 55.5589C32.3096 55.0835 31.3322 54.4163 30.5062 53.5575C29.6802 52.6987 29.0307 51.6797 28.5577 50.4992C28.0848 49.3188 27.8477 48.0236 27.8477 46.6124ZM32.2541 46.6124C32.2541 47.4561 32.3702 48.2267 32.6035 48.9241C32.8368 49.6215 33.1647 50.2231 33.5884 50.73C34.0122 51.237 34.5242 51.6305 35.1245 51.9142C35.7248 52.198 36.3919 52.3392 37.1259 52.3392C37.8599 52.3392 38.5271 52.198 39.1274 51.9142C39.7277 51.6305 40.2397 51.2358 40.6634 50.73C41.0872 50.2243 41.4151 49.6228 41.6484 48.9241C41.8817 48.2267 41.9977 47.4561 41.9977 46.6124C41.9977 45.7687 41.8817 45.0486 41.6484 44.3588C41.4151 43.6689 41.0872 43.0711 40.6634 42.5654C40.2397 42.0597 39.7277 41.665 39.1274 41.3812C38.5271 41.0974 37.8599 40.9562 37.1259 40.9562C36.3919 40.9562 35.7248 41.0987 35.1245 41.3812C34.5242 41.665 34.0122 42.0597 33.5884 42.5654C33.1647 43.0711 32.8368 43.6689 32.6035 44.3588C32.3702 45.0486 32.2541 45.8002 32.2541 46.6124Z" fill="#9D1122"/>
<path d="M49.6288 49.8321C50.441 50.522 51.3919 51.0819 52.4803 51.5107C53.5686 51.9395 54.6885 52.1476 55.8374 52.1312C56.6042 52.1161 57.1629 52.0013 57.516 51.7857C57.8691 51.5713 58.0444 51.2497 58.0444 50.8196C58.0444 50.3139 57.8414 49.9078 57.4353 49.6014C57.0292 49.2949 56.3507 49.0111 55.3998 48.7501C54.5876 48.5206 53.7515 48.2709 52.8927 48.0022C52.0338 47.7336 51.2519 47.378 50.5469 46.9328C49.842 46.4889 49.2631 45.9214 48.8103 45.2315C48.3576 44.5417 48.1319 43.6526 48.1319 42.5642C48.1319 41.5982 48.3198 40.7671 48.6956 40.0684C49.0714 39.371 49.5847 38.7959 50.2367 38.3432C50.8887 37.8917 51.6466 37.5575 52.5131 37.3431C53.3795 37.1287 54.295 37.0215 55.2611 37.0215C55.9358 37.0215 56.5752 37.0669 57.1818 37.1589C57.7871 37.251 58.3849 37.3923 58.9751 37.584C59.5654 37.7756 60.148 38.0178 60.7231 38.3078C61.2982 38.5992 61.8922 38.9523 62.5051 39.3659L60.6197 43.046C59.8832 42.4784 59.071 42.0345 58.1819 41.7117C57.2928 41.3901 56.357 41.2135 55.3758 41.1832C55.0543 41.1681 54.7503 41.1795 54.4678 41.2173C54.1841 41.2551 53.9344 41.3245 53.72 41.4241C53.5056 41.5238 53.3328 41.6499 53.2029 41.8037C53.073 41.9576 53.0074 42.1493 53.0074 42.3788C53.0074 42.6083 53.0415 42.8126 53.1108 42.9879C53.1802 43.1645 53.3139 43.3297 53.5131 43.4823C53.7124 43.6362 53.9999 43.7888 54.3758 43.9426C54.7516 44.0965 55.2535 44.2566 55.8816 44.4256C56.8627 44.7018 57.7859 44.9894 58.6523 45.2883C59.5187 45.5872 60.2741 45.963 60.9173 46.4157C61.5617 46.8685 62.0675 47.4322 62.4357 48.1056C62.804 48.7804 62.9881 49.6316 62.9881 50.6582C62.9881 51.6091 62.804 52.4364 62.4357 53.1414C62.0675 53.8464 61.5542 54.429 60.8946 54.8893C60.235 55.3496 59.4531 55.6939 58.5489 55.9247C57.6446 56.1542 56.6546 56.2703 55.5827 56.2703C54.0491 56.2703 52.619 56.0407 51.2935 55.5804C49.9668 55.1201 48.7372 54.4845 47.6022 53.6711L49.6263 49.8309L49.6288 49.8321Z" fill="#9D1122"/>
<path d="M78.4384 44.4732V48.4294H69.3998V51.8786H79.1055V55.8109H64.6163V37.4814H78.8747V41.4376H69.3998V44.4732H78.4384Z" fill="#9D1122"/>
<path d="M80 62.2715H13V64.2715H80V62.2715Z" fill="#9D1122"/>
</g>
<defs>
<clipPath id="clip0_721_7256">
<rect width="93" height="93" fill="white"/>
</clipPath>
</defs>
</svg>
