<svg width="18" height="24" viewBox="0 0 18 24" fill="none" xmlns="http://www.w3.org/2000/svg">
<path d="M13.0472 5.34409C11.3814 5.34409 10.0174 6.36149 9.14534 6.36149C8.21738 6.36149 7.00994 5.41118 5.55652 5.41118C2.79503 5.41118 0 7.69192 0 11.9851C0 14.6683 1.02857 17.4968 2.31428 19.3192C3.40994 20.8621 4.37142 22.1254 5.75776 22.1254C7.12173 22.1254 7.72546 21.2199 9.42484 21.2199C11.1466 21.2199 11.5379 22.1031 13.0472 22.1031C14.5453 22.1031 15.5404 20.728 16.4907 19.3751C17.5416 17.8211 17.9888 16.3118 18 16.2335C17.9105 16.2112 15.0484 15.0372 15.0484 11.7615C15.0484 8.92173 17.2956 7.64719 17.4298 7.54658C15.9428 5.41118 13.6733 5.34409 13.0472 5.34409ZM12.2646 3.53291C12.9466 2.70559 13.4273 1.57639 13.4273 0.436024C13.4273 0.279503 13.4161 0.122981 13.3938 0C12.2758 0.0447205 10.9341 0.737888 10.1404 1.67702C9.5031 2.39254 8.92173 3.53291 8.92173 4.67329C8.92173 4.85217 8.95527 5.01987 8.96646 5.07577C9.03353 5.08695 9.14534 5.10931 9.26831 5.10931C10.2633 5.10931 11.5155 4.4385 12.2646 3.53291Z" fill="white"/>
</svg>
