<svg width="241" height="188" viewBox="0 0 241 188" fill="none" xmlns="http://www.w3.org/2000/svg">
<path d="M11.3906 151.742C10.0555 151.916 8.7917 151.164 8.21367 149.952L5.84579 144.986C5.45171 144.16 6.00773 143.195 6.91787 143.075C8.83603 142.822 10.7043 142.433 12.5227 141.907C14.9322 141.168 17.1447 140.232 19.1599 139.101C21.1314 137.969 22.8838 136.62 24.4172 135.054C25.2817 134.171 26.0417 133.225 26.6973 132.217C27.5899 130.845 29.1708 129.984 30.7824 130.291L37.7203 131.613C38.5524 131.772 39.029 132.654 38.6775 133.422C38.4584 133.901 38.2175 134.357 37.9546 134.793C40.8461 136.881 44.2852 138.578 48.272 139.884C51.7208 141.001 55.2337 141.767 58.8108 142.184C59.7022 142.287 60.2609 143.214 59.9071 144.036L57.657 149.263C57.1121 150.529 55.8291 151.331 54.4544 151.187C50.646 150.788 46.8985 149.936 43.2119 148.63C39.5501 147.298 36.2783 145.668 33.3966 143.739C32.3579 143.044 30.9775 143.096 29.993 143.866C27.3303 145.947 24.3545 147.687 21.0657 149.087C17.8552 150.434 14.6302 151.319 11.3906 151.742ZM5.76523 155.167C5.68802 154.032 6.59092 153.069 7.73228 153.069H57.8596C59.0009 153.069 59.9038 154.032 59.8266 155.167L59.4368 160.897C59.3667 161.929 58.5069 162.729 57.4698 162.729H8.12211C7.085 162.729 6.22521 161.929 6.15506 160.897L5.76523 155.167ZM58.1293 176.306C58.1293 179.831 56.7274 182.55 53.9235 184.465C51.1634 186.423 47.6367 187.402 43.3433 187.402H22.3143C17.9771 187.402 14.4065 186.423 11.6026 184.465C8.84259 182.55 7.46256 179.831 7.46256 176.306C7.46256 172.781 8.84259 170.04 11.6026 168.082C14.4065 166.124 17.9771 165.144 22.3143 165.144H43.3433C47.6367 165.144 51.1634 166.124 53.9235 168.082C56.7274 170.04 58.1293 172.781 58.1293 176.306ZM44.7233 176.306C44.7233 175.523 44.3947 174.914 43.7376 174.478C43.0804 174 42.2261 173.76 41.1747 173.76H24.4829C23.3876 173.76 22.5114 174 21.8543 174.478C21.1971 174.914 20.8685 175.523 20.8685 176.306C20.8685 177.046 21.1971 177.633 21.8543 178.068C22.5114 178.504 23.3876 178.721 24.4829 178.721H41.1747C42.2261 178.721 43.0804 178.504 43.7376 178.068C44.3947 177.633 44.7233 177.046 44.7233 176.306Z" fill="#65E7D1"/>
<path d="M100.016 162.534H83.9812C81.1773 162.534 78.6582 162.164 76.4239 161.424C74.2334 160.641 72.3495 159.531 70.7724 158.095C69.239 156.702 68.0561 155.027 67.2237 153.069C66.4351 151.067 66.0408 148.87 66.0408 146.476C66.0408 144.127 66.4351 141.973 67.2237 140.014C68.0561 138.013 69.239 136.316 70.7724 134.923C72.3495 133.487 74.2334 132.378 76.4239 131.594C78.6582 130.811 81.1773 130.419 83.9812 130.419H100.016C102.776 130.419 105.251 130.811 107.442 131.594C109.676 132.378 111.56 133.487 113.093 134.923C114.67 136.316 115.875 138.013 116.708 140.014C117.54 141.973 117.956 144.127 117.956 146.476C117.956 148.87 117.54 151.067 116.708 153.069C115.875 155.027 114.67 156.702 113.093 158.095C111.56 159.531 109.676 160.641 107.442 161.424C105.251 162.164 102.776 162.534 100.016 162.534ZM86.2155 152.09H97.7158C99.7749 152.09 101.396 151.589 102.579 150.589C103.805 149.544 104.419 148.174 104.419 146.476C104.419 144.779 103.805 143.409 102.579 142.364C101.396 141.32 99.7749 140.798 97.7158 140.798H86.2155C84.1126 140.798 82.4697 141.32 81.2869 142.364C80.1478 143.409 79.5783 144.779 79.5783 146.476C79.5783 148.174 80.1478 149.544 81.2869 150.589C82.4697 151.589 84.1126 152.09 86.2155 152.09ZM117.039 174.544C118.177 174.544 119.078 175.501 119.007 176.632L118.598 183.081C118.533 184.116 117.671 184.922 116.631 184.922H67.3005C66.2598 184.922 65.3984 184.116 65.3328 183.081L64.9245 176.632C64.8528 175.501 65.7544 174.544 66.8922 174.544H74.9864C75.782 174.544 76.3952 173.845 76.289 173.059L75.376 166.303C75.2698 165.517 75.883 164.818 76.6786 164.818H84.5694C85.6069 164.818 86.4668 165.619 86.5365 166.651L86.9873 173.322C87.0337 174.009 87.6071 174.544 88.2987 174.544H95.6326C96.3242 174.544 96.8976 174.01 96.944 173.322L97.3948 166.651C97.4645 165.619 98.3244 164.818 99.3619 164.818H107.253C108.048 164.818 108.662 165.517 108.555 166.303L107.642 173.059C107.536 173.845 108.149 174.544 108.945 174.544H117.039Z" fill="#65E7D1"/>
<path d="M135.068 144.518C135.068 146.085 135.55 147.325 136.514 148.239C137.477 149.109 138.748 149.544 140.325 149.544C141.859 149.544 143.107 149.109 144.071 148.239C145.079 147.325 145.582 146.085 145.582 144.518C145.582 142.995 145.079 141.777 144.071 140.863C143.107 139.949 141.859 139.492 140.325 139.492C138.748 139.492 137.477 139.949 136.514 140.863C135.55 141.777 135.068 142.995 135.068 144.518ZM123.962 144.518C123.962 142.473 124.356 140.58 125.145 138.84C125.977 137.099 127.116 135.619 128.562 134.401C130.008 133.139 131.716 132.16 133.688 131.464C135.703 130.767 137.916 130.419 140.325 130.419C142.691 130.419 144.881 130.767 146.897 131.464C148.912 132.16 150.643 133.139 152.088 134.401C153.534 135.619 154.651 137.099 155.44 138.84C156.272 140.58 156.688 142.473 156.688 144.518C156.688 146.607 156.272 148.522 155.44 150.262C154.651 152.003 153.534 153.482 152.088 154.701C150.643 155.963 148.912 156.942 146.897 157.638C144.881 158.291 142.691 158.617 140.325 158.617C137.916 158.617 135.703 158.291 133.688 157.638C131.716 156.942 130.008 155.963 128.562 154.701C127.116 153.482 125.977 152.003 125.145 150.262C124.356 148.522 123.962 146.607 123.962 144.518ZM175.261 179.113C175.944 179.113 176.513 179.634 176.571 180.312L177.005 185.394C177.07 186.159 176.465 186.815 175.695 186.815H129.125C128.36 186.815 127.757 186.167 127.814 185.406L128.93 170.664C128.982 169.98 129.553 169.452 130.241 169.452H163.658C164.2 169.452 164.64 169.014 164.64 168.473C164.64 167.933 164.2 167.494 163.658 167.494H129.571C128.889 167.494 128.32 166.974 128.262 166.296L127.83 161.279C127.764 160.514 128.369 159.857 129.14 159.857H174.46C175.225 159.857 175.828 160.506 175.77 161.266L174.655 175.944C174.603 176.627 174.032 177.155 173.344 177.155H139.928C139.385 177.155 138.945 177.593 138.945 178.134C138.945 178.674 139.385 179.113 139.928 179.113H175.261ZM173.906 130.419C174.995 130.419 175.877 131.299 175.877 132.384V156.261C175.877 157.346 174.995 158.226 173.906 158.226H166.612C165.523 158.226 164.64 157.346 164.64 156.261V132.384C164.64 131.299 165.523 130.419 166.612 130.419H173.906Z" fill="#65E7D1"/>
<path d="M233.733 130.419C234.459 130.419 235.047 131.006 235.047 131.729V185.505C235.047 186.228 234.459 186.815 233.733 186.815H225.124C224.398 186.815 223.81 186.228 223.81 185.505V131.729C223.81 131.006 224.398 130.419 225.124 130.419H233.733ZM185.718 132.4C185.67 131.645 186.271 131.007 187.029 131.007H212.704C213.43 131.007 214.018 131.593 214.018 132.317V146.215C214.018 150.262 213.492 154.157 212.441 157.899C211.389 161.641 209.878 165.144 207.906 168.408C205.891 171.672 203.416 174.674 200.481 177.416C197.766 179.911 194.676 182.09 191.212 183.952C190.707 184.224 190.086 184.125 189.682 183.72L183.844 177.873C183.206 177.234 183.391 176.159 184.19 175.736C189.756 172.791 194.157 168.977 197.392 164.296C200.984 159.161 202.781 153.526 202.781 147.39V142.63C202.781 141.906 202.192 141.32 201.466 141.32H187.52C186.826 141.32 186.252 140.783 186.208 140.093L185.718 132.4Z" fill="#65E7D1"/>
<path fill-rule="evenodd" clip-rule="evenodd" d="M45.8383 9.98894C53.5585 -3.3296 72.8588 -3.32963 80.5789 9.98894L123.7 84.3804C131.42 97.699 121.77 114.347 106.33 114.347H20.0875C4.64728 114.347 -5.00302 97.699 2.71708 84.3804L45.8383 9.98894ZM80.4679 64.1888C74.4114 64.1839 68.481 65.9155 63.384 69.1769C58.2739 65.9583 52.3448 64.2691 46.3005 64.3104C44.5254 64.3177 42.7537 64.4725 41.0044 64.7729C40.4314 64.8714 39.9125 65.1706 39.5412 65.6166C39.1699 66.0627 38.9704 66.6264 38.9788 67.206V96.4036C38.9736 96.761 39.0474 97.1154 39.195 97.4411C39.3427 97.7669 39.5608 98.0563 39.8334 98.2886C40.106 98.5209 40.4269 98.6904 40.7727 98.7852C41.1184 98.8799 41.4808 98.8974 41.8341 98.8367C45.3314 98.233 48.9148 98.3332 52.3727 99.1313C55.8305 99.9295 59.0933 101.409 61.9686 103.484L62.2615 103.654H62.5301C62.8007 103.767 63.0909 103.824 63.384 103.824C63.6772 103.824 63.9676 103.767 64.2383 103.654H64.5069L64.7997 103.484C67.655 101.363 70.9083 99.8351 74.3668 98.9908C77.8253 98.1466 81.4188 98.0031 84.9339 98.569C85.2873 98.6298 85.6499 98.6122 85.9957 98.5175C86.3415 98.4228 86.6623 98.2532 86.935 98.0209C87.2075 97.7886 87.4253 97.4992 87.573 97.1734C87.7207 96.8476 87.7947 96.4934 87.7895 96.1359V66.9383C87.7641 66.3839 87.5493 65.8549 87.1809 65.4389C86.8125 65.0229 86.3123 64.7451 85.7637 64.6513C84.0144 64.3509 82.2429 64.1961 80.4679 64.1888ZM51.0935 47.0017C48.4754 47.0017 46.3529 49.5929 46.3529 52.7891C46.3529 55.9854 48.4754 58.5765 51.0935 58.5766C53.7117 58.5766 55.8341 55.9855 55.8341 52.7891C55.834 49.5928 53.7117 47.0017 51.0935 47.0017ZM76.026 47.0017C73.4079 47.0017 71.2851 49.5928 71.2851 52.7891C71.2851 55.9855 73.4078 58.5766 76.026 58.5766C78.6441 58.5765 80.7666 55.9854 80.7666 52.7891C80.7665 49.5929 78.6441 47.0018 76.026 47.0017Z" fill="#65E7D1"/>
<path d="M183.791 0C199.017 0 212.852 5.95224 223.098 15.6561C212.405 26.2454 205.781 40.9357 205.781 57.1736C205.781 73.4115 212.405 88.1016 223.098 98.6909C212.852 108.395 199.017 114.347 183.791 114.347C168.486 114.347 154.585 108.333 144.323 98.5389C154.926 87.9612 161.487 73.3339 161.487 57.1736C161.487 41.0133 154.926 26.3857 144.323 15.808C154.585 6.01418 168.486 3.39734e-05 183.791 0Z" fill="#65E7D1"/>
<path d="M137.422 23.4433C145.606 32.3139 150.606 44.1603 150.606 57.1736C150.606 70.1869 145.606 82.033 137.422 90.9036C130.503 81.4483 126.417 69.7882 126.417 57.1736C126.417 44.559 130.503 32.8987 137.422 23.4433Z" fill="#65E7D1"/>
<path d="M230.154 23.9895C236.834 33.3461 240.765 44.8008 240.765 57.1736C240.765 69.5463 236.834 81.0006 230.154 90.3571C221.934 81.7163 216.89 70.0334 216.89 57.1736C216.89 44.3136 221.934 32.6304 230.154 23.9895Z" fill="#65E7D1"/>
</svg>
