<svg width="64" height="18" viewBox="0 0 64 18" fill="none" xmlns="http://www.w3.org/2000/svg">
<path d="M0 17.2031V0.234375H3.51562V14.2969H10.8281V17.2031H0ZM27.9609 8.71875C27.9609 14.25 24.5156 17.4375 20.0391 17.4375C15.5156 17.4375 12.0938 14.2266 12.0938 8.71875C12.0938 3.1875 15.5156 0 20.0391 0C24.5156 0 27.9609 3.1875 27.9609 8.71875ZM24.375 8.71875C24.375 5.08594 22.6641 3.11719 20.0391 3.11719C17.4141 3.11719 15.6797 5.08594 15.6797 8.71875C15.6797 12.3516 17.4141 14.3203 20.0391 14.3203C22.6641 14.3203 24.375 12.3516 24.375 8.71875ZM41.7656 5.69531C41.2969 4.10156 40.0078 3.11719 38.1562 3.11719C35.5312 3.11719 33.75 5.13281 33.75 8.69531C33.75 12.2812 35.4844 14.3203 38.1797 14.3203C40.6055 14.3203 42.0469 12.9492 42.0938 10.8047H38.4141V8.15625H45.4922V10.2656C45.4922 14.7188 42.4453 17.4375 38.1562 17.4375C33.3984 17.4375 30.1641 14.1094 30.1641 8.74219C30.1641 3.23438 33.6094 0 38.0859 0C41.9062 0 44.8594 2.34375 45.3281 5.69531H41.7656ZM63.6094 8.71875C63.6094 14.25 60.1641 17.4375 55.6875 17.4375C51.1641 17.4375 47.7422 14.2266 47.7422 8.71875C47.7422 3.1875 51.1641 0 55.6875 0C60.1641 0 63.6094 3.1875 63.6094 8.71875ZM60.0234 8.71875C60.0234 5.08594 58.3125 3.11719 55.6875 3.11719C53.0625 3.11719 51.3281 5.08594 51.3281 8.71875C51.3281 12.3516 53.0625 14.3203 55.6875 14.3203C58.3125 14.3203 60.0234 12.3516 60.0234 8.71875Z" fill="#0E0F12"/>
</svg>
