<svg width="24" height="24" viewBox="0 0 24 24" fill="none" xmlns="http://www.w3.org/2000/svg">
<path d="M21.2634 9.53512C20.9724 9.11248 20.6613 8.71739 20.3402 8.34987C19.9689 7.91804 19.2664 7.88129 18.8449 8.26718L15.8344 11.0236C16.0551 11.63 16.0953 12.3283 15.8946 13.0541C15.5433 14.3496 14.3993 15.3971 12.9843 15.7186C12.1916 15.9024 11.4289 15.8656 10.7666 15.6635C10.7666 15.6635 9.33151 16.9774 8.29788 17.9238C7.79612 18.3832 7.95668 19.1917 8.62904 19.4306C9.70282 19.8073 10.8167 20.0002 11.9607 20.0002C13.747 20.0002 15.4831 19.5225 17.0687 18.6312C18.6844 17.7124 20.1395 16.3618 21.3136 14.6436C22.267 13.2563 22.2168 10.9225 21.2634 9.53512Z" fill="#0E0F12"/>
<path d="M14.02 10.1812L9.98001 13.8191C9.47001 13.3509 9.14001 12.7025 9.14001 12.0002C9.14001 10.5864 10.42 9.4248 12 9.4248C12.78 9.4248 13.5 9.72196 14.02 10.1812Z" fill="#0E0F12"/>
<path d="M18.004 6.19188L14.6662 9.39431C13.9474 8.69525 12.953 8.2796 11.8502 8.2796C9.64464 8.2796 7.87234 9.98945 7.87234 12.0961C7.87234 13.1541 8.31541 14.1082 9.03418 14.7978L5.70618 18.0002H5.69634C4.60341 17.15 3.59911 16.0637 2.74249 14.7789C1.75787 13.2958 1.75787 10.8869 2.74249 9.40375C3.88464 7.68445 5.2828 6.33358 6.83849 5.4078C8.39418 4.50092 10.0976 4.00024 11.8502 4.00024C14.0459 4.00024 16.1726 4.77487 18.004 6.19188Z" fill="#0E0F12"/>
<path d="M14.86 12.0002C14.86 13.414 13.58 14.5756 12 14.5756C11.94 14.5756 11.89 14.5756 11.83 14.5576L14.84 11.8472C14.86 11.9012 14.86 11.9462 14.86 12.0002Z" fill="#0E0F12"/>
<path d="M21.7675 3.20255C21.4674 2.93248 20.9774 2.93248 20.6773 3.20255L2.22503 19.8207C1.92499 20.0908 1.92499 20.5319 2.22503 20.802C2.37505 20.928 2.56507 21 2.7651 21C2.96512 21 3.15514 20.928 3.30516 20.7929L21.7675 4.17479C22.0775 3.90473 22.0775 3.47262 21.7675 3.20255Z" fill="#0E0F12"/>
</svg>
