<svg width="24" height="24" viewBox="0 0 24 24" fill="none" xmlns="http://www.w3.org/2000/svg">
<path d="M21.25 9.33779C18.94 5.94725 15.56 3.99512 12 3.99512C10.22 3.99512 8.49 4.48081 6.91 5.38683C5.33 6.30218 3.91 7.63785 2.75 9.33779C1.75 10.8042 1.75 13.186 2.75 14.6524C5.06 18.0523 8.44 19.9951 12 19.9951C13.78 19.9951 15.51 19.5094 17.09 18.6034C18.67 17.6881 20.09 16.3524 21.25 14.6524C22.25 13.1954 22.25 10.8042 21.25 9.33779ZM12 15.7733C9.76 15.7733 7.96 14.0827 7.96 11.9998C7.96 9.91689 9.76 8.22629 12 8.22629C14.24 8.22629 16.04 9.91689 16.04 11.9998C16.04 14.0827 14.24 15.7733 12 15.7733Z" fill="#0E0F12"/>
<path d="M11.9947 8.99512C10.345 8.99512 9 10.3401 9 12.0004C9 13.6501 10.345 14.9951 11.9947 14.9951C13.6445 14.9951 15 13.6501 15 12.0004C15 10.3506 13.6445 8.99512 11.9947 8.99512Z" fill="#0E0F12"/>
</svg>
