<svg width="24" height="24" viewBox="0 0 24 24" fill="none" xmlns="http://www.w3.org/2000/svg">
<path d="M17 1.99987H19.67C20.236 1.98986 20.7859 2.18801 21.2154 2.55669C21.6449 2.92538 21.9241 3.43893 22 3.99987V10.9999C21.9241 11.5608 21.6449 12.0744 21.2154 12.4431C20.7859 12.8117 20.236 13.0099 19.67 12.9999H17M10 14.9999V18.9999C10 19.7955 10.3161 20.5586 10.8787 21.1212C11.4413 21.6838 12.2044 21.9999 13 21.9999L17 12.9999V1.99987H5.72C5.23767 1.99442 4.76962 2.16347 4.40209 2.47587C4.03457 2.78827 3.79232 3.22297 3.72 3.69987L2.34 12.6999C2.29649 12.9865 2.31583 13.2792 2.39666 13.5576C2.47749 13.8361 2.6179 14.0936 2.80814 14.3124C2.99839 14.5311 3.23392 14.7059 3.49843 14.8247C3.76294 14.9434 4.05009 15.0032 4.34 14.9999H10Z" stroke="#1CCEB0" stroke-width="2" stroke-linecap="round" stroke-linejoin="round"/>
</svg>
