<svg width="53" height="47" viewBox="0 0 53 47" fill="none" xmlns="http://www.w3.org/2000/svg">
<path d="M33.347 26.6204C31.0886 28.1109 28.9518 29.797 26.9679 31.6492C26.6337 30.4738 26.2541 29.257 25.4161 28.3822C24.5781 27.5074 23.1433 27.1091 22.1693 27.8153C21.3814 28.3871 21.1284 29.4695 21.1069 30.4567C21.0591 32.6853 21.9258 34.9187 23.4537 36.5094C24.337 37.4306 25.5403 38.1637 26.7936 38.0293C27.6865 37.934 28.4768 37.416 29.2073 36.8833C32.5807 34.43 37.3244 29.4695 41.1347 27.8153" fill="#00ADFF"/>
<path d="M33.347 26.6204C31.0886 28.1109 28.9518 29.797 26.9679 31.6492C26.6337 30.4738 26.2541 29.257 25.4161 28.3822C24.5781 27.5074 23.1433 27.1091 22.1693 27.8153C21.3814 28.3871 21.1284 29.4695 21.1069 30.4567C21.0591 32.6853 21.9258 34.9187 23.4537 36.5094C24.337 37.4306 25.5403 38.1637 26.7936 38.0293C27.6865 37.934 28.4768 37.416 29.2073 36.8833C32.5807 34.43 37.3244 29.4695 41.1347 27.8153" stroke="black" stroke-width="0.5" stroke-miterlimit="10"/>
<path d="M38.3009 29.1666C45.7624 29.1666 51.8111 22.9756 51.8111 15.3386C51.8111 7.70153 45.7624 1.5105 38.3009 1.5105C30.8394 1.5105 24.7906 7.70153 24.7906 15.3386C24.7906 22.9756 30.8394 29.1666 38.3009 29.1666Z" fill="#00ADFF" stroke="black" stroke-width="0.5" stroke-miterlimit="10"/>
<path d="M37.5751 26.425C37.3841 30.8625 40.8315 37.4284 43.5125 40.9202C42.5767 41.1035 41.6074 41.3161 40.8554 41.9172C40.1057 42.5183 39.6521 43.6252 40.0771 44.4976C40.6238 45.6216 42.1302 45.7047 43.355 45.6314C44.5821 45.5581 45.8259 45.4799 46.9862 45.0669C48.1465 44.654 49.2327 43.8549 49.7197 42.6991C49.8558 42.3766 49.9442 42.0198 49.894 41.6704C49.7914 40.9569 49.1659 40.4681 48.6215 40.0063C45.1956 37.1034 43.4457 32.2627 44.2049 27.7763" fill="#00ADFF"/>
<path d="M37.5751 26.425C37.3841 30.8625 40.8315 37.4284 43.5125 40.9202C42.5767 41.1035 41.6074 41.3161 40.8554 41.9172C40.1057 42.5183 39.6521 43.6252 40.0771 44.4976C40.6238 45.6216 42.1302 45.7047 43.355 45.6314C44.5821 45.5581 45.8259 45.4799 46.9862 45.0669C48.1465 44.654 49.2327 43.8549 49.7197 42.6991C49.8558 42.3766 49.9442 42.0198 49.894 41.6704C49.7914 40.9569 49.1659 40.4681 48.6215 40.0063C45.1956 37.1034 43.4457 32.2627 44.2049 27.7763" stroke="black" stroke-width="0.5" stroke-miterlimit="10"/>
<path d="M34.9238 7.18763C35.0349 6.75425 34.8303 6.32381 34.4668 6.22621C34.1034 6.12861 33.7186 6.40081 33.6076 6.83419C33.4965 7.26757 33.7011 7.69802 34.0646 7.79562C34.428 7.89322 34.8128 7.62101 34.9238 7.18763Z" fill="#222221"/>
<path d="M38.0282 7.52992C38.1393 7.09653 37.9346 6.66609 37.5712 6.56849C37.2077 6.47089 36.823 6.74309 36.7119 7.17647C36.6008 7.60986 36.8054 8.0403 37.1689 8.1379C37.5324 8.2355 37.9171 7.9633 38.0282 7.52992Z" fill="#222221"/>
<path d="M30.6779 7.66333C31.9528 7.98588 32.7335 9.3054 32.4183 10.6103C32.1032 11.9151 30.814 12.7142 29.5392 12.3916" stroke="#222221" stroke-width="0.5" stroke-miterlimit="10"/>
<path d="M40.4328 8.53555C39.1221 8.43292 37.9786 9.43478 37.8783 10.7763C37.778 12.1178 38.7569 13.2883 40.0675 13.3909" stroke="#222221" stroke-width="0.5" stroke-miterlimit="10"/>
<path d="M35.1161 10.8766C35.4536 10.8766 35.7273 10.5965 35.7273 10.251C35.7273 9.90556 35.4536 9.62549 35.1161 9.62549C34.7785 9.62549 34.5049 9.90556 34.5049 10.251C34.5049 10.5965 34.7785 10.8766 35.1161 10.8766Z" stroke="#222221" stroke-width="0.5" stroke-miterlimit="10"/>
<path d="M24.5137 12.636H21.7133V24.2893H24.5137V12.636Z" fill="#FF88B4" stroke="black" stroke-width="0.5" stroke-miterlimit="10"/>
<path d="M24.9076 12.8485C25.8316 12.8485 26.5812 11.1624 26.5812 9.08541C26.5812 7.00839 25.8316 5.32234 24.9076 5.32234L9.44931 1.06812V17.1027L24.9076 12.8485Z" fill="#FF88B4" stroke="black" stroke-width="0.5" stroke-miterlimit="10"/>
<path d="M9.44929 17.1027C11.4192 17.1027 13.0161 13.5132 13.0161 9.08541C13.0161 4.65758 11.4192 1.06812 9.44929 1.06812C7.47943 1.06812 5.88254 4.65758 5.88254 9.08541C5.88254 13.5132 7.47943 17.1027 9.44929 17.1027Z" fill="#FF88B4" stroke="black" stroke-width="0.5" stroke-miterlimit="10"/>
<path d="M12.5242 5.01925C12.2449 4.69426 11.9274 4.5061 11.5884 4.5061C10.4639 4.5061 9.54956 6.55624 9.54956 9.08532C9.54956 11.6144 10.4615 13.6645 11.5884 13.6645C11.925 13.6645 12.2425 13.4764 12.5242 13.1514C12.837 11.9589 13.0184 10.5686 13.0184 9.08532C13.0184 7.60209 12.837 6.2117 12.5242 5.01925Z" fill="#FF3600" stroke="black" stroke-width="0.5" stroke-miterlimit="10"/>
<path d="M38.8452 21.7382C38.8452 21.7382 32.4709 21.2763 29.3004 21.616C26.7865 21.8848 23.6829 23.043 21.3074 21.6649C19.7532 20.7632 19.2304 18.845 19.5933 17.1345C19.8249 16.0422 20.3071 15.2188 21.3194 14.7423C22.365 14.2511 23.7545 14.1534 24.6713 14.9769C24.8933 15.1748 25.0843 15.424 25.3564 15.5364C25.588 15.6317 25.8459 15.6146 26.0965 15.5975C29.9569 15.319 34.6792 15.1748 38.542 14.8987" fill="#00ADFF"/>
<path d="M38.8452 21.7382C38.8452 21.7382 32.4709 21.2763 29.3004 21.616C26.7865 21.8848 23.6829 23.043 21.3074 21.6649C19.7532 20.7632 19.2304 18.845 19.5933 17.1345C19.8249 16.0422 20.3071 15.2188 21.3194 14.7423C22.365 14.2511 23.7545 14.1534 24.6713 14.9769C24.8933 15.1748 25.0843 15.424 25.3564 15.5364C25.588 15.6317 25.8459 15.6146 26.0965 15.5975C29.9569 15.319 34.6792 15.1748 38.542 14.8987" stroke="black" stroke-width="0.5" stroke-miterlimit="10"/>
<path d="M2.75983 1.58618L4.34266 2.34124" stroke="#222221" stroke-width="0.5" stroke-miterlimit="10"/>
<path d="M1.6282 4.81177L3.31609 5.2736" stroke="#222221" stroke-width="0.5" stroke-miterlimit="10"/>
<path d="M1.06 8.18872L2.8004 8.34511" stroke="#222221" stroke-width="0.5" stroke-miterlimit="10"/>
<path d="M1.07431 11.6146L2.81472 11.4583" stroke="#222221" stroke-width="0.5" stroke-miterlimit="10"/>
<path d="M1.66879 14.9867L3.35668 14.5249" stroke="#222221" stroke-width="0.5" stroke-miterlimit="10"/>
<path d="M2.82666 18.2023L4.4095 17.4473" stroke="#222221" stroke-width="0.5" stroke-miterlimit="10"/>
</svg>
