<svg width="24" height="24" viewBox="0 0 24 24" fill="none" xmlns="http://www.w3.org/2000/svg">
<path d="M12 20C16.4183 20 20 16.4183 20 12C20 7.58172 16.4183 4 12 4C7.58172 4 4 7.58172 4 12C4 16.4183 7.58172 20 12 20Z" fill="#89E4D1" stroke="#89E4D1" stroke-width="1.5" stroke-linecap="round" stroke-linejoin="round"/>
<path d="M5.59998 6.3999C7.19998 7.99992 7.99998 9.86658 7.99998 11.9999C7.99998 14.1333 7.19998 15.9999 5.59998 17.5999" fill="#89E4D1"/>
<path d="M5.59998 6.3999C7.19998 7.99992 7.99998 9.86658 7.99998 11.9999C7.99998 14.1333 7.19998 15.9999 5.59998 17.5999" stroke="#F5F5F5" stroke-linecap="round" stroke-linejoin="round"/>
<path d="M18.4 17.5999C16.8 15.9999 16 14.1333 16 11.9999C16 9.86658 16.8 7.99992 18.4 6.3999" fill="#89E4D1"/>
<path d="M18.4 17.5999C16.8 15.9999 16 14.1333 16 11.9999C16 9.86658 16.8 7.99992 18.4 6.3999" stroke="#F5F5F5" stroke-linecap="round" stroke-linejoin="round"/>
</svg>
