<svg width="58" height="46" viewBox="0 0 58 46" fill="none" xmlns="http://www.w3.org/2000/svg">
<path d="M25.9228 34.5985C21.962 33.9516 16.6492 36.0211 13.227 38.1436C13.1634 37.2527 13.077 36.3296 12.618 35.5676C12.159 34.8057 11.216 34.267 10.3865 34.5709C9.32079 34.9599 9.08447 36.3526 9.01857 37.499C8.95267 38.6477 8.88904 39.8125 9.13673 40.9359C9.38442 42.0593 9.98433 43.1527 10.9683 43.7282C11.2432 43.8894 11.5545 44.0091 11.8727 43.9999C12.5248 43.9791 13.0293 43.4497 13.502 42.9939C16.4742 40.1141 21.1758 39.2877 25.1206 40.4686" fill="#FFD700"/>
<path d="M25.9228 34.5985C21.962 33.9516 16.6492 36.0211 13.227 38.1436C13.1634 37.2527 13.077 36.3296 12.618 35.5676C12.159 34.8057 11.216 34.267 10.3865 34.5709C9.32079 34.9599 9.08447 36.3526 9.01857 37.499C8.95267 38.6477 8.88904 39.8125 9.13673 40.9359C9.38442 42.0593 9.98433 43.1527 10.9683 43.7282C11.2432 43.8894 11.5545 44.0091 11.8727 43.9999C12.5248 43.9791 13.0293 43.4497 13.502 42.9939C16.4742 40.1141 21.1758 39.2877 25.1206 40.4686" stroke="black" stroke-width="0.5" stroke-miterlimit="10"/>
<path d="M35.569 34.4281C39.5253 33.7536 44.8517 35.7886 48.2853 37.8903C48.3421 36.9994 48.4239 36.074 48.8784 35.3098C49.3328 34.5455 50.2736 33.9999 51.103 34.2969C52.171 34.679 52.4165 36.0717 52.4892 37.2158C52.5619 38.3645 52.6323 39.5293 52.3937 40.655C52.1551 41.7807 51.5598 42.8787 50.5804 43.4588C50.3054 43.6223 49.9964 43.7443 49.6782 43.7351C49.0261 43.719 48.5171 43.1918 48.0444 42.7383C45.054 39.8769 40.3456 39.0827 36.4098 40.289" fill="#FFD700"/>
<path d="M35.569 34.4281C39.5253 33.7536 44.8517 35.7886 48.2853 37.8903C48.3421 36.9994 48.4239 36.074 48.8784 35.3098C49.3328 34.5455 50.2736 33.9999 51.103 34.2969C52.171 34.679 52.4165 36.0717 52.4892 37.2158C52.5619 38.3645 52.6323 39.5293 52.3937 40.655C52.1551 41.7807 51.5598 42.8787 50.5804 43.4588C50.3054 43.6223 49.9964 43.7443 49.6782 43.7351C49.0261 43.719 48.5171 43.1918 48.0444 42.7383C45.054 39.8769 40.3456 39.0827 36.4098 40.289" stroke="black" stroke-width="0.5" stroke-miterlimit="10"/>
<path d="M30.1721 41.7162C37.5892 41.7162 43.6019 35.6251 43.6019 28.1114C43.6019 20.5977 37.5892 14.5066 30.1721 14.5066C22.7551 14.5066 16.7424 20.5977 16.7424 28.1114C16.7424 35.6251 22.7551 41.7162 30.1721 41.7162Z" fill="#FFD700" stroke="black" stroke-width="0.5" stroke-miterlimit="10"/>
<path d="M28.9769 18.7163C29.0213 18.2992 28.7711 17.9298 28.418 17.8911C28.0649 17.8525 27.7426 18.1594 27.6982 18.5765C27.6537 18.9936 27.9039 19.3631 28.2571 19.4017C28.6102 19.4403 28.9325 19.1335 28.9769 18.7163Z" fill="#222221"/>
<path d="M31.9278 18.5935C31.9722 18.1764 31.722 17.807 31.3689 17.7683C31.0158 17.7297 30.6935 18.0366 30.6491 18.4537C30.6046 18.8708 30.8548 19.2403 31.208 19.2789C31.5611 19.3175 31.8834 19.0106 31.9278 18.5935Z" fill="#222221"/>
<path d="M34.6146 20.1558C34.6328 22.856 32.4854 25.059 29.8199 25.0774C27.1544 25.0958 24.9797 22.9205 24.9616 20.2202L34.6146 20.1558Z" stroke="black" stroke-width="0.5" stroke-miterlimit="10"/>
<path d="M40.6228 28.6133H20.3964V43.2724H40.6228V28.6133Z" fill="white" stroke="black" stroke-width="0.5" stroke-miterlimit="10"/>
<path d="M40.9137 28.6133H20.1055V33.6593H40.9137V28.6133Z" fill="white" stroke="black" stroke-width="0.5" stroke-miterlimit="10"/>
<path d="M41.3113 20.7037C41.3113 20.7037 41.0614 11.6108 41.2932 6.57867C41.2977 6.48659 41.2977 6.39451 41.2954 6.30243C41.6408 6.07223 41.9635 5.8052 42.2544 5.50824C42.6225 5.13071 42.9497 4.68643 43.0793 4.17078C43.2088 3.65513 43.1111 3.05892 42.7339 2.6883C42.4498 2.41206 42.0521 2.29235 41.6613 2.2302C40.232 2.0046 38.6618 2.40285 37.6233 3.45486C36.3371 4.76009 36.5257 6.65003 36.4189 8.35121C36.3235 9.88664 36.2599 11.4221 36.2121 12.9598C36.1576 14.7139 36.2462 15.1651 36.2371 16.9192" fill="#FFD700"/>
<path d="M41.3113 20.7037C41.3113 20.7037 41.0614 11.6108 41.2932 6.57867C41.2977 6.48659 41.2977 6.39451 41.2954 6.30243C41.6408 6.07223 41.9635 5.8052 42.2544 5.50824C42.6225 5.13071 42.9497 4.68643 43.0793 4.17078C43.2088 3.65513 43.1111 3.05892 42.7339 2.6883C42.4498 2.41206 42.0521 2.29235 41.6613 2.2302C40.232 2.0046 38.6618 2.40285 37.6233 3.45486C36.3371 4.76009 36.5257 6.65003 36.4189 8.35121C36.3235 9.88664 36.2599 11.4221 36.2121 12.9598C36.1576 14.7139 36.2462 15.1651 36.2371 16.9192" stroke="black" stroke-width="0.5" stroke-miterlimit="10"/>
<path d="M36.7916 5.30554C36.3371 4.83363 35.9758 4.26964 35.7395 3.65731C35.6759 3.49387 35.6213 3.32122 35.6395 3.14857C35.6736 2.81478 35.9894 2.55926 36.3167 2.52473C36.6439 2.4902 36.9711 2.63983 37.2233 2.85852C37.4756 3.07721 37.6596 3.36036 37.8437 3.6389" fill="#FFD700"/>
<path d="M36.7916 5.30554C36.3371 4.83363 35.9758 4.26964 35.7395 3.65731C35.6759 3.49387 35.6213 3.32122 35.6395 3.14857C35.6736 2.81478 35.9894 2.55926 36.3167 2.52473C36.6439 2.4902 36.9711 2.63983 37.2233 2.85852C37.4756 3.07721 37.6596 3.36036 37.8437 3.6389" stroke="black" stroke-width="0.5" stroke-miterlimit="10"/>
<path d="M19.2693 20.2663C19.2693 20.2663 19.9146 11.1941 19.901 6.15507C19.901 6.06299 19.9055 5.97091 19.9101 5.87883C19.576 5.63251 19.2647 5.35167 18.9875 5.0409C18.6353 4.64726 18.3285 4.18916 18.2217 3.66891C18.1149 3.14866 18.2376 2.55705 18.6307 2.20484C18.9261 1.94011 19.3306 1.84113 19.7215 1.79509C21.1576 1.63164 22.7119 2.10125 23.7004 3.1993C24.9298 4.56209 24.6593 6.44051 24.6912 8.14399C24.7207 9.68172 24.7162 11.2195 24.6957 12.7572C24.673 14.5113 24.648 14.8773 24.5798 16.6315" fill="#FFD700"/>
<path d="M19.2693 20.2663C19.2693 20.2663 19.9146 11.1941 19.901 6.15507C19.901 6.06299 19.9055 5.97091 19.9101 5.87883C19.576 5.63251 19.2647 5.35167 18.9875 5.0409C18.6353 4.64726 18.3285 4.18916 18.2217 3.66891C18.1149 3.14866 18.2376 2.55705 18.6307 2.20484C18.9261 1.94011 19.3306 1.84113 19.7215 1.79509C21.1576 1.63164 22.7119 2.10125 23.7004 3.1993C24.9298 4.56209 24.6593 6.44051 24.6912 8.14399C24.7207 9.68172 24.7162 11.2195 24.6957 12.7572C24.673 14.5113 24.648 14.8773 24.5798 16.6315" stroke="black" stroke-width="0.5" stroke-miterlimit="10"/>
<path d="M24.4526 5.08704C24.9275 4.63584 25.3115 4.08797 25.5774 3.48715C25.6478 3.32831 25.7092 3.15796 25.7001 2.98301C25.6796 2.64922 25.3774 2.37759 25.0502 2.32924C24.723 2.2809 24.3912 2.41442 24.1299 2.6216C23.8708 2.82878 23.6709 3.10271 23.4777 3.37205" fill="#FFD700"/>
<path d="M24.4526 5.08704C24.9275 4.63584 25.3115 4.08797 25.5774 3.48715C25.6478 3.32831 25.7092 3.15796 25.7001 2.98301C25.6796 2.64922 25.3774 2.37759 25.0502 2.32924C24.723 2.2809 24.3912 2.41442 24.1299 2.6216C23.8708 2.82878 23.6709 3.10271 23.4777 3.37205" stroke="black" stroke-width="0.5" stroke-miterlimit="10"/>
<path d="M29.9722 28.7307C29.9722 30.3467 29.9699 31.965 29.9676 33.581C29.9676 36.1339 29.9631 38.6891 29.9631 41.2421C29.9631 41.8314 29.9631 42.4207 29.9631 43.01C29.9631 43.6016 30.872 43.6039 30.872 43.01C30.872 41.394 30.8743 39.7757 30.8766 38.1597C30.8766 35.6068 30.8811 33.0516 30.8811 30.4986C30.8811 29.9093 30.8811 29.32 30.8811 28.7307C30.8811 28.1391 29.9722 28.1368 29.9722 28.7307Z" fill="#FF5500" stroke="black" stroke-width="0.5" stroke-miterlimit="10"/>
<path d="M35.4918 26.2216C34.6714 25.6162 33.5693 25.7566 32.7104 26.2009C31.8923 26.6221 31.2379 27.2736 30.6243 27.9504C30.2698 27.2736 29.8631 26.6313 29.3018 26.1042C28.6292 25.4734 27.6521 25.0153 26.7181 25.1972C25.7523 25.386 24.9866 26.2377 25.1479 27.2736C25.3047 28.275 26.1546 28.9587 27.059 29.2671C28.0793 29.6147 29.1586 29.5756 30.2176 29.518C30.3016 29.5134 30.3789 29.4789 30.4448 29.4306C31.406 29.769 32.3831 30.0728 33.4125 30.0222C34.3397 29.9784 35.3531 29.5802 35.8713 28.7561C36.3871 27.9366 36.3053 26.8178 35.4963 26.2193L35.4918 26.2216ZM26.2636 27.467C25.9796 26.9306 26.2432 26.3758 26.8045 26.2262C27.4634 26.0489 28.1497 26.4403 28.6224 26.8684C29.12 27.3196 29.4677 27.9113 29.7722 28.5121C29.1564 28.542 28.5383 28.5512 27.9293 28.4384C27.3226 28.3279 26.5749 28.0517 26.2636 27.467ZM35.0532 28.1461C34.7123 28.74 33.9647 28.961 33.3307 28.9978C32.6604 29.0392 31.9968 28.8689 31.356 28.6594C31.7537 28.2174 32.1627 27.7892 32.6422 27.4393C33.1648 27.0595 33.9011 26.6935 34.5578 26.8846C35.1236 27.048 35.3441 27.6304 35.0509 28.1461H35.0532Z" fill="#FF5500" stroke="black" stroke-width="0.5" stroke-miterlimit="10"/>
<path d="M51.053 13.1118L51.2484 15.1721C51.3825 16.5901 52.5096 17.7112 53.9321 17.847L56 18.0427L53.9321 18.2384C52.5096 18.3719 51.3825 19.4953 51.2484 20.9133L51.053 22.9736L50.8576 20.9133C50.7235 19.4953 49.5964 18.3742 48.1739 18.2384L46.106 18.0427L48.1739 17.847C49.5964 17.7135 50.7235 16.5901 50.8576 15.1721L51.053 13.1118Z" fill="white" stroke="black" stroke-width="0.5" stroke-miterlimit="10"/>
<path d="M6.92343 18.4939L7.11885 20.5542C7.25292 21.9722 8.38002 23.0933 9.80253 23.2291L11.8704 23.4248L9.80253 23.6204C8.38002 23.754 7.25292 24.8773 7.11885 26.2954L6.92343 28.3556L6.728 26.2954C6.59393 24.8773 5.46683 23.7563 4.04432 23.6204L1.97646 23.4248L4.04432 23.2291C5.46683 23.0956 6.59393 21.9722 6.728 20.5542L6.92343 18.4939Z" fill="white" stroke="black" stroke-width="0.5" stroke-miterlimit="10"/>
<path d="M12.0249 4.82227L12.1544 6.19426C12.2431 7.13807 12.9952 7.88622 13.9405 7.976L15.3176 8.10491L13.9405 8.23382C12.9929 8.3236 12.2431 9.06945 12.1544 10.0156L12.0249 11.3876L11.8954 10.0156C11.8068 9.07175 11.0546 8.3236 10.1093 8.23382L8.73224 8.10491L10.1093 7.976C11.0569 7.88622 11.8068 7.14038 11.8954 6.19426L12.0249 4.82227Z" fill="white" stroke="black" stroke-width="0.5" stroke-miterlimit="10"/>
</svg>
