<svg width="54" height="47" viewBox="0 0 54 47" fill="none" xmlns="http://www.w3.org/2000/svg">
<g clip-path="url(#clip0_546_831)">
<path d="M16.1925 36.8579C15.1672 36.8579 14.2137 37.0117 13.4205 37.2718C12.6301 37.0089 11.6766 36.8579 10.6486 36.8579C9.62045 36.8579 8.66974 37.0117 7.87656 37.2718C7.08614 37.0089 6.13266 36.8579 5.10456 36.8579C2.3602 36.8579 0.13266 37.9513 0.13266 39.3019C0.13266 40.6525 2.35744 41.7459 5.10456 41.7459C6.1299 41.7459 7.08337 41.5921 7.87656 41.332C8.66698 41.5949 9.62045 41.7459 10.6486 41.7459C11.6766 41.7459 12.6274 41.5921 13.4205 41.332C14.211 41.5949 15.1644 41.7459 16.1925 41.7459C18.9369 41.7459 21.1644 40.6525 21.1644 39.3019C21.1644 37.9513 18.9397 36.8579 16.1925 36.8579Z" fill="white" stroke="black" stroke-width="0.5" stroke-miterlimit="10" stroke-linecap="round"/>
<path d="M46.5048 6.05957C45.4242 6.05957 44.4182 6.22176 43.5836 6.4958C42.749 6.21896 41.743 6.05957 40.6624 6.05957C39.5818 6.05957 38.5758 6.22176 37.7411 6.4958C36.9065 6.21896 35.9005 6.05957 34.8199 6.05957C31.9263 6.05957 29.5771 7.21165 29.5771 8.63218C29.5771 10.0527 31.9235 11.2048 34.8199 11.2048C35.9005 11.2048 36.9065 11.0426 37.7411 10.7686C38.5758 11.0454 39.5818 11.2048 40.6624 11.2048C41.743 11.2048 42.749 11.0426 43.5836 10.7686C44.4182 11.0454 45.4242 11.2048 46.5048 11.2048C49.3984 11.2048 51.7476 10.0527 51.7476 8.63218C51.7476 7.21165 49.4012 6.05957 46.5048 6.05957Z" fill="white" stroke="black" stroke-width="0.5" stroke-miterlimit="10" stroke-linecap="round"/>
<path d="M50.6449 23.9556C51.695 23.9556 52.5463 23.0943 52.5463 22.0318C52.5463 20.9693 51.695 20.1079 50.6449 20.1079C49.5947 20.1079 48.7434 20.9693 48.7434 22.0318C48.7434 23.0943 49.5947 23.9556 50.6449 23.9556Z" fill="white" stroke="black" stroke-width="0.5" stroke-miterlimit="10" stroke-linecap="round"/>
<path d="M29.3865 33.8578C37.9676 33.8578 44.924 26.8193 44.924 18.1369C44.924 9.45451 37.9676 2.41602 29.3865 2.41602C20.8053 2.41602 13.8489 9.45451 13.8489 18.1369C13.8489 26.8193 20.8053 33.8578 29.3865 33.8578Z" fill="#FFD700" stroke="black" stroke-width="0.5" stroke-miterlimit="10" stroke-linecap="round"/>
<path d="M29.1628 11.0136C29.4768 11.0136 29.7313 10.8853 29.7313 10.727C29.7313 10.5687 29.4768 10.4404 29.1628 10.4404C28.8489 10.4404 28.5944 10.5687 28.5944 10.727C28.5944 10.8853 28.8489 11.0136 29.1628 11.0136Z" stroke="#222221" stroke-width="0.5" stroke-miterlimit="10" stroke-linecap="round"/>
<path d="M21.825 28.2065C19.5228 28.8721 17.3782 30.0186 15.5928 31.537C14.6891 32.3059 13.8627 33.1868 13.3791 34.2382C12.8954 35.2896 12.7877 36.5312 13.2989 37.5714C14.1778 39.3611 16.4965 40.0322 18.5721 40.323C20.7554 40.6278 22.9719 40.7369 25.1773 40.6418C25.1 41.4891 25.1912 42.3475 25.4399 43.1669C25.5643 43.5723 25.7605 44.003 26.164 44.1931C26.9793 44.5734 27.8222 43.7149 28.1981 42.9376C29.1764 40.9186 29.5108 38.6256 29.1405 36.4361C26.5509 36.7325 23.9143 36.6514 21.3496 36.1956C20.7057 36.081 19.918 35.7818 19.9152 35.1694C19.9152 34.6604 20.4708 34.3277 20.9682 34.1347C22.7812 33.4273 24.8015 33.1952 26.7444 33.4664" fill="#FFD700"/>
<path d="M21.825 28.2065C19.5228 28.8721 17.3782 30.0186 15.5928 31.537C14.6891 32.3059 13.8627 33.1868 13.3791 34.2382C12.8954 35.2896 12.7877 36.5312 13.2989 37.5714C14.1778 39.3611 16.4965 40.0322 18.5721 40.323C20.7554 40.6278 22.9719 40.7369 25.1773 40.6418C25.1 41.4891 25.1912 42.3475 25.4399 43.1669C25.5643 43.5723 25.7605 44.003 26.164 44.1931C26.9793 44.5734 27.8222 43.7149 28.1981 42.9376C29.1764 40.9186 29.5108 38.6256 29.1405 36.4361C26.5509 36.7325 23.9143 36.6514 21.3496 36.1956C20.7057 36.081 19.918 35.7818 19.9152 35.1694C19.9152 34.6604 20.4708 34.3277 20.9682 34.1347C22.7812 33.4273 24.8015 33.1952 26.7444 33.4664" stroke="black" stroke-width="0.5" stroke-miterlimit="10" stroke-linecap="round"/>
<path d="M37.3625 28.2065C39.6647 28.8721 41.8093 30.0186 43.5947 31.537C44.4984 32.3059 45.3247 33.1868 45.8084 34.2382C46.292 35.2896 46.3998 36.5312 45.8885 37.5714C45.0097 39.3611 42.6909 40.0322 40.6154 40.323C38.4321 40.6278 36.2156 40.7369 34.0101 40.6418C34.0875 41.4891 33.9963 42.3475 33.7476 43.1669C33.6232 43.5723 33.427 44.003 33.0235 44.1931C32.2082 44.5734 31.3653 43.7149 30.9894 42.9376C30.0111 40.9186 29.6766 38.6256 30.047 36.4361C32.6366 36.7325 35.2731 36.6514 37.8379 36.1956C38.4818 36.081 39.2695 35.7818 39.2722 35.1694C39.2722 34.6604 38.7167 34.3277 38.2192 34.1347C36.4063 33.4273 34.386 33.1952 32.4431 33.4664" fill="#FFD700"/>
<path d="M37.3625 28.2065C39.6647 28.8721 41.8093 30.0186 43.5947 31.537C44.4984 32.3059 45.3247 33.1868 45.8084 34.2382C46.292 35.2896 46.3998 36.5312 45.8885 37.5714C45.0097 39.3611 42.6909 40.0322 40.6154 40.323C38.4321 40.6278 36.2156 40.7369 34.0101 40.6418C34.0875 41.4891 33.9963 42.3475 33.7476 43.1669C33.6232 43.5723 33.427 44.003 33.0235 44.1931C32.2082 44.5734 31.3653 43.7149 30.9894 42.9376C30.0111 40.9186 29.6766 38.6256 30.047 36.4361C32.6366 36.7325 35.2731 36.6514 37.8379 36.1956C38.4818 36.081 39.2695 35.7818 39.2722 35.1694C39.2722 34.6604 38.7167 34.3277 38.2192 34.1347C36.4063 33.4273 34.386 33.1952 32.4431 33.4664" stroke="black" stroke-width="0.5" stroke-miterlimit="10" stroke-linecap="round"/>
<path d="M18.5223 22.9635C18.1244 26.059 16.7895 28.9476 14.8162 31.3328C13.1608 33.3322 9.80563 37.0541 6.90927 35.4546C5.63243 34.7499 5.70153 33.2847 6.2819 31.9368C6.86228 30.5862 7.9346 29.4957 9.09259 28.6036C12.1852 26.224 13.3597 24.823 14.5481 20.897" fill="#FFD700"/>
<path d="M18.5223 22.9635C18.1244 26.059 16.7895 28.9476 14.8162 31.3328C13.1608 33.3322 9.80563 37.0541 6.90927 35.4546C5.63243 34.7499 5.70153 33.2847 6.2819 31.9368C6.86228 30.5862 7.9346 29.4957 9.09259 28.6036C12.1852 26.224 13.3597 24.823 14.5481 20.897" stroke="black" stroke-width="0.5" stroke-miterlimit="10" stroke-linecap="round"/>
<path d="M8.30218 29.5459C7.64994 29.6941 7.02534 29.957 6.46431 30.3205C6.12438 30.5414 5.80379 30.8014 5.56611 31.1314C5.36989 31.4027 5.25105 31.8165 5.48873 32.0486C5.62415 32.18 5.8259 32.2024 6.01107 32.2024C6.58868 32.2024 7.16353 32.0374 7.65547 31.7354" fill="#FFD700"/>
<path d="M8.30218 29.5459C7.64994 29.6941 7.02534 29.957 6.46431 30.3205C6.12438 30.5414 5.80379 30.8014 5.56611 31.1314C5.36989 31.4027 5.25105 31.8165 5.48873 32.0486C5.62415 32.18 5.8259 32.2024 6.01107 32.2024C6.58868 32.2024 7.16353 32.0374 7.65547 31.7354" stroke="black" stroke-width="0.5" stroke-miterlimit="10" stroke-linecap="round"/>
<path d="M40.6983 22.9635C41.0963 26.059 42.4311 28.9476 44.4044 31.3328C46.0599 33.3322 49.415 37.0541 52.3114 35.4546C53.5882 34.7499 53.5191 33.2847 52.9387 31.9368C52.3584 30.5862 51.2861 29.4957 50.1281 28.6036C47.0355 26.224 45.8609 24.823 44.6725 20.897" fill="#FFD700"/>
<path d="M40.6983 22.9635C41.0963 26.059 42.4311 28.9476 44.4044 31.3328C46.0599 33.3322 49.415 37.0541 52.3114 35.4546C53.5882 34.7499 53.5191 33.2847 52.9387 31.9368C52.3584 30.5862 51.2861 29.4957 50.1281 28.6036C47.0355 26.224 45.8609 24.823 44.6725 20.897" stroke="black" stroke-width="0.5" stroke-miterlimit="10" stroke-linecap="round"/>
<path d="M50.9185 29.5459C51.5707 29.6941 52.1953 29.957 52.7563 30.3205C53.0963 30.5414 53.4169 30.8014 53.6546 31.1314C53.8508 31.4027 53.9696 31.8165 53.7319 32.0486C53.5965 32.18 53.3948 32.2024 53.2096 32.2024C52.632 32.2024 52.0571 32.0374 51.5652 31.7354" fill="#FFD700"/>
<path d="M50.9185 29.5459C51.5707 29.6941 52.1953 29.957 52.7563 30.3205C53.0963 30.5414 53.4169 30.8014 53.6546 31.1314C53.8508 31.4027 53.9696 31.8165 53.7319 32.0486C53.5965 32.18 53.3948 32.2024 53.2096 32.2024C52.632 32.2024 52.0571 32.0374 51.5652 31.7354" stroke="black" stroke-width="0.5" stroke-miterlimit="10" stroke-linecap="round"/>
<path d="M30.2709 7.3876C30.2875 7.87696 30.6384 8.26005 31.053 8.24607C31.4676 8.23209 31.7881 7.82383 31.7716 7.33447" stroke="black" stroke-width="0.5" stroke-linecap="round" stroke-linejoin="round"/>
<path d="M26.7941 7.29825C26.8107 7.7876 27.1617 8.1707 27.5763 8.15672C27.9908 8.14274 28.3114 7.73447 28.2948 7.24512" stroke="black" stroke-width="0.5" stroke-linecap="round" stroke-linejoin="round"/>
<path d="M9.13404 10.3376C9.71711 10.3376 10.1898 9.85931 10.1898 9.26937C10.1898 8.67942 9.71711 8.20117 9.13404 8.20117C8.55098 8.20117 8.07831 8.67942 8.07831 9.26937C8.07831 9.85931 8.55098 10.3376 9.13404 10.3376Z" fill="white" stroke="black" stroke-width="0.5" stroke-miterlimit="10" stroke-linecap="round"/>
</g>
<defs>
<clipPath id="clip0_546_831">
<rect width="54" height="47" fill="white"/>
</clipPath>
</defs>
</svg>
