<svg width="48" height="65" viewBox="0 0 48 65" fill="none" xmlns="http://www.w3.org/2000/svg">
<path d="M10.5739 25.6049C11.2967 25.8716 11.8792 26.2701 12.321 26.8004C12.1543 25.3532 12.1665 23.9018 12.357 22.4469C12.5384 20.994 12.8924 19.5818 13.4194 18.2092C13.9442 16.9808 14.3104 16.0521 14.5183 15.4229C14.8759 14.3448 15.0029 13.3975 14.8998 12.58C15.7897 14.2687 17.0325 15.7102 18.6277 16.9041C18.8034 14.0668 19.7642 11.4113 21.5096 8.93645C23.2598 6.44977 25.1947 4.1371 27.3126 2C27.4619 4.56648 27.6645 6.53008 27.9211 7.89184C28.329 10.0537 29.0073 11.8978 29.9565 13.4233C30.1882 13.796 30.5401 14.3026 31.0115 14.9446C31.5279 15.6515 31.8855 16.155 32.0855 16.4547C32.8987 17.663 33.3596 18.7462 33.4686 19.7038C34.0024 18.9625 34.4267 18.1711 34.7405 17.3309C35.0558 16.4789 35.2505 15.6155 35.3241 14.7418C35.268 16.2075 35.7495 18.0373 36.7679 20.2315C37.0457 20.8344 37.4674 21.7302 38.0325 22.919C38.4996 23.9688 38.8335 24.8857 39.034 25.6703C39.4869 27.4795 39.4832 29.2881 39.0224 31.0972C39.5991 30.8697 40.1181 30.5577 40.579 30.1618C41.0345 29.7664 41.3948 29.318 41.6599 28.816C41.1943 29.8704 40.9276 31.4252 40.8604 33.482C40.8435 34.0349 40.8271 34.4797 40.8123 34.817C41.1848 34.6661 41.5747 34.5426 41.9826 34.4453C42.9948 34.2048 44.0006 34.1569 45.0005 34.3011L42.09 38.4687C39.7525 42.9607 36.806 45.4031 33.2506 45.7949C29.7009 46.181 27.273 46.0976 25.9672 45.5457C22.0318 46.1677 18.9203 46.1944 16.633 45.626C14.3537 45.0535 12.6358 44.3513 11.4787 43.5193C10.2967 42.6662 9.36393 41.67 8.67982 40.5296C8.51475 40.2506 8.10894 39.4191 7.46292 38.0342C6.98833 37.0184 6.50052 36.239 6 35.6953C6.54972 35.6757 7.0878 35.7802 7.61424 36.0099C8.12957 36.2369 8.54914 36.552 8.87241 36.9561C8.57295 34.9488 8.60681 32.9404 8.97346 30.931C9.24436 29.4781 9.37927 28.486 9.37927 27.9547C9.37451 26.8375 9.04066 25.973 8.37771 25.3609C9.11314 25.2605 9.84487 25.3418 10.5724 25.6054L10.5739 25.6049Z" fill="#EB4C3F" stroke="black" stroke-width="0.5" stroke-linejoin="round"/>
<path d="M24.166 12C24.7112 13.0363 25.6031 14.1454 26.8423 15.3273C28.3218 16.6438 29.4123 17.6367 30.1124 18.3063C31.323 19.4684 32.2135 20.6157 32.784 21.7486C33.4876 23.1272 33.6868 24.4384 33.3832 25.6823C33.9543 25.7181 34.5132 25.6578 35.0612 25.4998C35.616 25.3472 36.1087 25.1116 36.5379 24.7932C37.1882 26.467 37.3984 28.2165 37.1698 30.0435C36.9378 31.8633 36.297 33.5299 35.2461 35.0445L37.2073 35.3486C37.2947 35.9324 37.2278 36.5096 37.0074 37.0814C36.7883 37.6562 36.4403 38.1541 35.9619 38.5757C36.4437 38.7414 36.9596 38.8064 37.509 38.7707C38.0501 38.7301 38.5469 38.5906 39 38.3521C38.16 39.5888 37.4953 40.5011 37.0074 41.0884C36.9883 41.1105 36.9603 41.1445 36.9235 41.1898C36.1455 42.12 35.343 42.8779 34.5166 43.4628C33.5019 44.1748 32.3944 44.6494 31.194 44.8879C29.8947 45.1473 28.1642 44.9565 26.0003 44.3155C23.1117 44.7812 20.8679 44.9177 19.2684 44.7257C17.6804 44.5397 16.2235 44.0811 14.8976 43.3489C13.8624 42.7729 12.9623 42.0532 12.1987 41.1898C11.9988 40.9656 11.8063 40.7283 11.6221 40.4766C10.7493 39.2942 10.2088 38.0259 10 36.6729L12.2676 37.2299C11.6023 35.7451 11.1846 34.2014 11.0134 32.598C10.8482 30.9999 10.9376 29.418 11.2829 27.8522C11.5818 28.1616 11.938 28.4216 12.3516 28.6321C12.7671 28.8426 13.2052 28.9863 13.6659 29.0626C14.4131 25.7234 15.0416 22.8774 15.5527 20.525C16.2522 20.7135 16.9107 20.9979 17.5269 21.3777C18.1465 21.7587 18.6747 22.2024 19.1114 22.7086C20.2613 19.0284 21.9461 15.4584 24.1666 12H24.166Z" fill="#F87A27" stroke="black" stroke-width="0.5" stroke-linejoin="round"/>
<path d="M5.90005 17.5418C5.24256 18.1158 4.90848 18.8348 4.89859 19.6991C4.88645 20.5583 5.20376 21.3006 5.851 21.9269C6.09453 22.1599 6.35618 22.3521 6.63539 22.5037L10.9995 31.1818L15.8292 29.6652L11.5416 20.5535C11.5802 20.3644 11.6008 20.1609 11.603 19.9417C11.6174 19.0875 11.3008 18.3469 10.6536 17.7206C10.0036 17.0895 9.2141 16.7568 8.28485 16.722C7.35981 16.6852 6.56504 16.9589 5.90005 17.5418Z" fill="#18AE6E"/>
<path d="M15.7358 29.3981L11.5416 20.5535C11.5802 20.3644 11.6008 20.1609 11.603 19.9417C11.6174 19.0875 11.3008 18.3469 10.6536 17.7206C10.0036 17.0895 9.2141 16.7568 8.28485 16.722C7.35981 16.6852 6.56504 16.9589 5.90005 17.5418C5.24256 18.1158 4.90848 18.8348 4.89859 19.6991C4.88645 20.5583 5.20376 21.3006 5.851 21.9269C6.09453 22.1599 6.35617 22.3521 6.63539 22.5037L11.136 31.2243" stroke="black" stroke-width="0.5" stroke-linecap="round"/>
<path d="M24.2952 47.5454C31.7192 47.5454 37.7376 41.4751 37.7376 33.9871C37.7376 26.499 31.7192 20.4287 24.2952 20.4287C16.8712 20.4287 10.8528 26.499 10.8528 33.9871C10.8528 41.4751 16.8712 47.5454 24.2952 47.5454Z" fill="#18AE6E" stroke="black" stroke-width="0.5" stroke-miterlimit="10" stroke-linecap="round"/>
<path d="M16.8376 44.5186C16.8376 44.5186 17.9566 55.0045 20.35 58.6292C19.4079 58.7353 18.43 58.8679 17.6386 59.3961C16.8495 59.9243 16.3163 60.9709 16.6702 61.8584C17.1269 62.9991 18.6165 63.1993 19.8359 63.2234C22.3441 63.2716 29.2638 61.827 25.4859 58.1396C22.3059 55.0334 22.6215 46.3635 22.6215 46.3635" fill="#18AE6E"/>
<path d="M16.8376 44.5186C16.8376 44.5186 17.9566 55.0045 20.35 58.6292C19.4079 58.7353 18.43 58.8679 17.6386 59.3961C16.8495 59.9243 16.3163 60.9709 16.6702 61.8584C17.1269 62.9991 18.6165 63.1993 19.8359 63.2234C22.3441 63.2716 29.2638 61.827 25.4859 58.1396C22.3059 55.0334 22.6215 46.3635 22.6215 46.3635" stroke="black" stroke-width="0.5" stroke-miterlimit="10" stroke-linecap="round"/>
<path d="M22.3817 24.0072C22.4923 23.5821 22.2889 23.1599 21.9274 23.0643C21.5659 22.9686 21.1833 23.2357 21.0727 23.6609C20.9621 24.086 21.1655 24.5082 21.527 24.6039C21.8884 24.6995 22.2711 24.4324 22.3817 24.0072Z" fill="#222221"/>
<path d="M25.4693 24.3412C25.5798 23.9161 25.3764 23.4939 25.015 23.3982C24.6535 23.3026 24.2708 23.5697 24.1602 23.9948C24.0497 24.42 24.253 24.8422 24.6145 24.9378C24.976 25.0335 25.3587 24.7664 25.4693 24.3412Z" fill="#222221"/>
<path d="M20.1061 26.5397C21.9687 25.8789 24.0489 25.862 25.9211 26.4939" stroke="#222221" stroke-width="0.5" stroke-miterlimit="10" stroke-linecap="round"/>
<path d="M23.9533 45.3291C23.9533 45.3291 25.1153 55.0047 27.5111 58.6294C26.5691 58.7355 25.5911 58.8682 24.7997 59.3963C24.0107 59.9245 23.4775 60.9711 23.8313 61.8586C24.288 62.9993 25.7776 63.1995 26.9971 63.2236C29.5053 63.2719 36.4249 61.8273 32.6471 58.1398C29.467 55.0336 29.8424 45.5534 29.8424 45.5534" fill="#18AE6E"/>
<path d="M23.9533 45.3291C23.9533 45.3291 25.1153 55.0047 27.5111 58.6294C26.5691 58.7355 25.5911 58.8682 24.7997 59.3963C24.0107 59.9245 23.4775 60.9711 23.8313 61.8586C24.288 62.9993 25.7776 63.1995 26.9971 63.2236C29.5053 63.2719 36.4249 61.8273 32.6471 58.1398C29.467 55.0336 29.8424 45.5534 29.8424 45.5534" stroke="black" stroke-width="0.5" stroke-miterlimit="10" stroke-linecap="round"/>
<path d="M24.3263 22.5558C24.5606 22.4666 24.7925 22.3798 25.0269 22.2905" stroke="black" stroke-width="0.5" stroke-miterlimit="10" stroke-linecap="round"/>
<path d="M22.1122 22.0879C22.2294 22.2398 22.5235 22.481 22.6406 22.6329" stroke="black" stroke-width="0.5" stroke-miterlimit="10" stroke-linecap="round"/>
<path d="M38.6653 18.8892C39.4216 19.3292 39.8883 19.9723 40.0648 20.8189C40.2426 21.6602 40.0744 22.4484 39.5598 23.1849C39.3657 23.4594 39.146 23.6972 38.9011 23.8985L36.166 33.4288L31.4174 32.5002L33.7083 22.9057C33.6339 22.7273 33.5744 22.5314 33.5299 22.3167C33.3509 21.4807 33.5188 20.6942 34.0333 19.9577C34.5496 19.2161 35.2604 18.7412 36.166 18.5324C37.067 18.3226 37.9 18.4419 38.6653 18.8892Z" fill="#18AE6E"/>
<path d="M31.2979 32.3764L33.7083 22.9057C33.6339 22.7273 33.5744 22.5314 33.5299 22.3167C33.3509 21.4807 33.5188 20.6942 34.0333 19.9577C34.5496 19.2161 35.2604 18.7412 36.166 18.5324C37.067 18.3226 37.9 18.4419 38.6653 18.8892C39.4216 19.3292 39.8883 19.9723 40.0648 20.8189C40.2426 21.6602 40.0744 22.4484 39.5598 23.1849C39.3657 23.4594 39.146 23.6972 38.9011 23.8985L36.166 33.305" stroke="black" stroke-width="0.5" stroke-linecap="round"/>
</svg>
