<svg width="38" height="61" viewBox="0 0 38 61" fill="none" xmlns="http://www.w3.org/2000/svg">
<path d="M19.564 46.7874C22.573 51.7312 25.9122 49.1638 28.5516 47.2661C28.6379 47.9983 28.7448 48.757 29.1387 49.3662C29.5346 49.9754 30.3074 50.3784 30.9546 50.0946C31.7875 49.7276 31.9207 48.5678 31.9282 47.6199C31.9339 46.6701 31.9395 45.7052 31.6975 44.7895C31.4574 43.8737 30.934 42.9958 30.1292 42.5626C29.9041 42.4415 29.6509 42.3563 29.3995 42.3772C28.8817 42.4207 28.439 42.8293 28.1426 43.2778C24.5803 48.6832 22.8413 46.5074 21.1211 43.1794" fill="#18AE6E"/>
<path d="M19.564 46.7874C22.573 51.7312 25.9122 49.1638 28.5516 47.2661C28.6379 47.9983 28.7448 48.757 29.1387 49.3662C29.5346 49.9754 30.3074 50.3784 30.9546 50.0946C31.7875 49.7276 31.9207 48.5678 31.9282 47.6199C31.9339 46.6701 31.9395 45.7052 31.6975 44.7895C31.4574 43.8737 30.934 42.9958 30.1292 42.5626C29.9041 42.4415 29.6509 42.3563 29.3995 42.3772C28.8817 42.4207 28.439 42.8293 28.1426 43.2778C24.5803 48.6832 22.8413 46.5074 21.1211 43.1794" stroke="black" stroke-width="0.5" stroke-linejoin="round"/>
<path d="M17.2642 47.7673C11.597 47.7673 7.00289 43.1338 7.00289 37.4181C7.00289 31.7024 11.597 27.0688 17.2642 27.0688C22.9313 27.0688 27.5255 31.7024 27.5255 37.4181C27.5255 43.1338 22.9313 47.7673 17.2642 47.7673Z" fill="#18AE6E" stroke="black" stroke-width="0.5" stroke-linejoin="round"/>
<path d="M11.5708 45.4573C11.5708 45.4573 12.4243 53.4623 14.2514 56.2284C13.533 56.3079 12.7845 56.4101 12.1823 56.8131C11.5801 57.2161 11.1731 58.0145 11.4432 58.6918C11.7921 59.5621 12.9289 59.7154 13.8594 59.7324C15.7747 59.7702 21.0554 58.6672 18.1721 55.8519C15.7447 53.4812 15.9867 46.863 15.9867 46.863" fill="#18AE6E"/>
<path d="M11.5708 45.4573C11.5708 45.4573 12.4243 53.4623 14.2514 56.2284C13.533 56.3079 12.7845 56.4101 12.1823 56.8131C11.5801 57.2161 11.1731 58.0145 11.4432 58.6918C11.7921 59.5621 12.9289 59.7154 13.8594 59.7324C15.7747 59.7702 21.0554 58.6672 18.1721 55.8519C15.7447 53.4812 15.9867 46.863 15.9867 46.863" stroke="black" stroke-width="0.5" stroke-linejoin="round"/>
<path d="M16.6279 29.2643C16.3944 29.2025 16.2629 28.9304 16.3341 28.6565C16.4053 28.3826 16.6524 28.2106 16.8859 28.2724C17.1194 28.3342 17.2509 28.6063 17.1797 28.8802C17.1084 29.1541 16.8614 29.3261 16.6279 29.2643Z" fill="black"/>
<path d="M18.6202 29.4816C18.3867 29.4198 18.2552 29.1477 18.3264 28.8738C18.3977 28.5999 18.6447 28.4279 18.8782 28.4897C19.1117 28.5515 19.2432 28.8236 19.172 29.0975C19.1007 29.3714 18.8537 29.5434 18.6202 29.4816Z" fill="black"/>
<path d="M14.7354 29.9485C14.5516 31.3769 15.649 32.6976 17.1873 32.8981C18.7236 33.0987 20.1193 32.1035 20.3032 30.675L14.7354 29.9485Z" stroke="black" stroke-width="0.5" stroke-miterlimit="10"/>
<path d="M12.3943 29.3204C12.2986 26.524 12.6982 25.1031 14.1595 20.8991C14.4071 20.1877 14.454 19.3968 14.2946 18.6608C14.1351 17.9249 13.6099 17.2191 12.8745 17.0791C12.2405 16.958 11.5876 17.2835 11.1506 17.7584C10.7116 18.2351 10.4508 18.8463 10.2126 19.4498C8.60868 23.5157 7.66884 28.0395 8.77001 32.2719" fill="#18AE6E"/>
<path d="M12.3943 29.3204C12.2986 26.524 12.6982 25.1031 14.1595 20.8991C14.4071 20.1877 14.454 19.3968 14.2946 18.6608C14.1351 17.9249 13.6099 17.2191 12.8745 17.0791C12.2405 16.958 11.5876 17.2835 11.1506 17.7584C10.7116 18.2351 10.4508 18.8463 10.2126 19.4498C8.60868 23.5157 7.66884 28.0395 8.77001 32.2719" stroke="black" stroke-width="0.5" stroke-linejoin="round"/>
<path d="M13.5423 22.1288C14.032 22.0399 14.5047 21.8639 14.9343 21.6123C15.195 21.4609 15.4408 21.2774 15.6284 21.0409C15.7822 20.846 15.8854 20.5433 15.7147 20.3636C15.619 20.2614 15.4689 20.2387 15.3301 20.233C14.9005 20.216 14.4672 20.3182 14.0901 20.5263" fill="#18AE6E"/>
<path d="M13.5423 22.1288C14.032 22.0399 14.5047 21.8639 14.9343 21.6123C15.195 21.4609 15.4408 21.2774 15.6284 21.0409C15.7822 20.846 15.8854 20.5433 15.7147 20.3636C15.619 20.2614 15.4689 20.2387 15.3301 20.233C14.9005 20.216 14.4672 20.3182 14.0901 20.5263" stroke="black" stroke-width="0.5" stroke-linejoin="round"/>
<path d="M26.6381 33.5737C27.7487 28.9667 28.092 24.9745 26.3211 20.8916C25.854 19.8151 24.5896 18.4396 23.1602 18.6269C21.8883 18.7934 21.5113 19.9872 21.6107 21.2019C21.6988 22.2841 21.9014 23.5366 22.3104 24.4978C23.4941 27.2733 23.3009 28.7869 22.9482 31.7611" fill="#18AE6E"/>
<path d="M26.6381 33.5737C27.7487 28.9667 28.092 24.9745 26.3211 20.8916C25.854 19.8151 24.5896 18.4396 23.1602 18.6269C21.8883 18.7934 21.5113 19.9872 21.6107 21.2019C21.6988 22.2841 21.9014 23.5366 22.3104 24.4978C23.4941 27.2733 23.3009 28.7869 22.9482 31.7611" stroke="black" stroke-width="0.5" stroke-linejoin="round"/>
<path d="M22.2241 23.8772C21.7851 23.6105 21.1079 22.9823 20.8247 22.5888C20.654 22.3504 20.5151 22.0893 20.4682 21.8017C20.4289 21.5652 20.5076 21.2492 20.7872 21.1471C20.9447 21.0903 21.1098 21.1263 21.2524 21.1717C21.6951 21.3173 22.0703 21.5766 22.3254 21.9095" fill="#18AE6E"/>
<path d="M22.2241 23.8772C21.7851 23.6105 21.1079 22.9823 20.8247 22.5888C20.654 22.3504 20.5151 22.0893 20.4682 21.8017C20.4289 21.5652 20.5076 21.2492 20.7872 21.1471C20.9447 21.0903 21.1098 21.1263 21.2524 21.1717C21.6951 21.3173 22.0703 21.5766 22.3254 21.9095" stroke="black" stroke-width="0.5" stroke-linejoin="round"/>
<path d="M32.6242 30.6846L32.4535 32.4763C32.3353 33.708 31.3523 34.6843 30.1105 34.7997L28.304 34.97L30.1105 35.1402C31.3523 35.2575 32.3353 36.2319 32.4535 37.4636L32.6242 39.2553L32.7949 37.4636C32.9131 36.2319 33.8961 35.2556 35.1379 35.1402L36.9444 34.97L35.1379 34.7997C33.8961 34.6824 32.9131 33.708 32.7949 32.4763L32.6242 30.6846Z" fill="white" stroke="black" stroke-width="0.5" stroke-miterlimit="10"/>
<path d="M4.86247 13.229L4.71052 14.8126C4.60734 15.9005 3.73692 16.7633 2.64138 16.8654L1.04497 17.0149L2.64138 17.1644C3.73879 17.2684 4.60734 18.1293 4.71052 19.2172L4.86247 20.8008L5.01442 19.2172C5.11759 18.1293 5.98802 17.2665 7.08356 17.1644L8.67996 17.0149L7.08356 16.8654C5.98614 16.7614 5.11759 15.9005 5.01442 14.8126L4.86247 13.229Z" fill="white" stroke="black" stroke-width="0.5" stroke-miterlimit="10"/>
<path d="M31.7256 9.33716L31.5737 10.9208C31.4705 12.0087 30.6001 12.8714 29.5045 12.9736L27.9081 13.123L29.5045 13.2725C30.602 13.3766 31.4705 14.2374 31.5737 15.3253L31.7256 16.9089L31.8776 15.3253C31.9808 14.2374 32.8512 13.3747 33.9467 13.2725L35.5431 13.123L33.9467 12.9736C32.8493 12.8695 31.9808 12.0087 31.8776 10.9208L31.7256 9.33716Z" fill="white" stroke="black" stroke-width="0.5" stroke-miterlimit="10"/>
<path d="M13.1559 3.38683L13.3172 1.92432L26.685 3.4171L26.5237 4.87962C28.4053 5.15207 29.7503 6.88703 29.5402 8.80552C29.3245 10.7637 27.5705 12.1808 25.6289 11.9652C25.3944 11.9387 25.1674 11.8895 24.9517 11.8195C23.7886 13.5109 21.8939 14.6177 19.7816 14.7294L19.1757 20.2521L21.4268 20.5038C21.8377 20.5492 22.1322 20.9219 22.0872 21.3362C22.0421 21.7506 21.6726 22.0476 21.2617 22.0022L14.5778 21.2568C14.167 21.2114 13.8725 20.8386 13.9175 20.4243C13.9625 20.0099 14.3321 19.7129 14.7429 19.7583L16.994 20.0099L17.6 14.4872C15.5646 13.912 13.9532 12.4136 13.1859 10.5064C12.9589 10.5253 12.7282 10.5253 12.4937 10.4989C10.5521 10.2813 9.14706 8.51226 9.36091 6.55404C9.57102 4.63555 11.2612 3.23926 13.1559 3.38872V3.38683ZM25.7096 11.2273C27.2478 11.3994 28.6379 10.2756 28.8086 8.72416C28.9737 7.21246 27.9194 5.84454 26.443 5.6175L26.1035 8.70713C26.006 9.59259 25.7414 10.4194 25.3494 11.1611C25.4676 11.1894 25.5857 11.214 25.7096 11.2292V11.2273ZM12.5744 9.76098C12.6982 9.77422 12.8201 9.77801 12.9402 9.77422C12.7169 8.96445 12.6381 8.0998 12.7357 7.21435L13.0752 4.12471C11.5839 4.02065 10.2576 5.1218 10.0925 6.6354C9.92181 8.18683 11.0361 9.58881 12.5744 9.76098Z" fill="#FFD700" stroke="black" stroke-width="0.5" stroke-miterlimit="10"/>
<path d="M13.5425 1.14131L26.6336 2.60129C27.0774 2.65079 27.3974 3.0538 27.3483 3.50143C27.2993 3.94906 26.8997 4.27181 26.4558 4.22232L13.3648 2.76233C12.921 2.71283 12.601 2.30983 12.65 1.8622C12.6991 1.41456 13.0987 1.09181 13.5425 1.14131Z" fill="#FFD700" stroke="black" stroke-width="0.5" stroke-miterlimit="10"/>
<path d="M19.7554 5.1123L18.6111 6.68266L16.692 6.46698L17.4686 8.25113L16.3243 9.82149L18.2434 10.0353L19.02 11.8194L20.1643 10.251L22.0834 10.4648L21.3086 8.68062L22.4511 7.11026L20.532 6.89646L19.7554 5.1123Z" fill="#FFEA92" stroke="black" stroke-width="0.5" stroke-miterlimit="10"/>
</svg>
