<svg width="60" height="48" viewBox="0 0 60 48" fill="none" xmlns="http://www.w3.org/2000/svg">
<path d="M40.655 35.3178C40.655 35.3178 42.3889 30.6424 42.7416 27.5396C43.8925 28.2925 45.1181 29.0454 46.4813 29.1547C47.8444 29.264 49.3809 28.5111 49.7038 27.1601C49.9639 26.0671 49.3869 24.9468 48.6784 24.0846C47.0821 22.1385 44.6907 20.8847 42.2035 20.6904C40.7627 20.578 39.1843 20.8665 38.2008 21.9412C37.5013 22.7063 37.1994 23.7507 36.9572 24.7677C35.8452 29.4462 33.9201 32.9983 33.9201 32.9983" fill="#FF88B4"/>
<path d="M40.655 35.3178C40.655 35.3178 42.3889 30.6424 42.7416 27.5396C43.8925 28.2925 45.1181 29.0454 46.4813 29.1547C47.8444 29.264 49.3809 28.5111 49.7038 27.1601C49.9639 26.0671 49.3869 24.9468 48.6784 24.0846C47.0821 22.1385 44.6907 20.8847 42.2035 20.6904C40.7627 20.578 39.1843 20.8665 38.2008 21.9412C37.5013 22.7063 37.1994 23.7507 36.9572 24.7677C35.8452 29.4462 33.9201 32.9983 33.9201 32.9983" stroke="black" stroke-width="0.5" stroke-miterlimit="10"/>
<path d="M36.0066 37.8561C32.7452 42.2401 26.6201 43.1296 22.2825 39.8659C18.9913 44.2135 12.8571 45.0605 8.54053 41.7513C4.22392 38.439 3.34805 32.2182 6.56159 27.813C2.28384 24.4703 1.44683 18.2405 4.70521 13.8565C7.96658 9.4725 14.0917 8.58295 18.4293 11.8466C21.7205 7.50213 27.8547 6.65205 32.1713 9.96129C36.4879 13.2736 37.3638 19.4943 34.1502 23.8996C38.431 27.2422 39.265 33.4721 36.0066 37.8561Z" fill="#FF88B4" stroke="black" stroke-width="0.5" stroke-miterlimit="10"/>
<path d="M15.2684 17.7713C14.7822 17.7422 14.4152 17.2519 14.4485 16.6761C14.4819 16.1003 14.9031 15.657 15.3893 15.6861C15.8755 15.7152 16.2426 16.2055 16.2092 16.7813C16.1758 17.3571 15.7546 17.8004 15.2684 17.7713Z" fill="#222221"/>
<path d="M19.2976 17.4024C18.8114 17.3733 18.4443 16.883 18.4777 16.3072C18.5111 15.7314 18.9323 15.2881 19.4185 15.3172C19.9047 15.3463 20.2718 15.8367 20.2384 16.4125C20.205 16.9883 19.7838 17.4315 19.2976 17.4024Z" fill="#222221"/>
<path d="M10.932 18.4744C12.633 18.5503 13.9513 20.0136 13.8765 21.7411C13.8018 23.4686 12.3609 24.8075 10.66 24.7316" stroke="#222221" stroke-width="0.5" stroke-miterlimit="10"/>
<path d="M23.5411 17.0566C21.8521 17.2661 20.6474 18.8266 20.8536 20.542C21.0599 22.2573 22.5964 23.4808 24.2854 23.2713" stroke="#222221" stroke-width="0.5" stroke-miterlimit="10"/>
<path d="M20.9015 20.1926C20.9015 20.1926 19.7027 21.6013 17.0273 21.7713C14.3518 21.9414 13.6942 20.6268 13.6942 20.6268" stroke="#222221" stroke-width="0.5" stroke-miterlimit="10"/>
<path d="M28.8412 30.4117C28.8412 30.4117 30.6587 26.2828 30.7842 24.4733C30.856 23.4441 30.7633 22.3178 30.0847 21.5527C29.2148 20.5721 27.6215 20.5538 26.4945 21.2127C25.3675 21.8715 24.6322 23.0494 24.0851 24.2456C23.5082 25.5056 21.9567 29.5374 21.9567 29.5374" fill="#FF88B4"/>
<path d="M28.8412 30.4117C28.8412 30.4117 30.6587 26.2828 30.7842 24.4733C30.856 23.4441 30.7633 22.3178 30.0847 21.5527C29.2148 20.5721 27.6215 20.5538 26.4945 21.2127C25.3675 21.8715 24.6322 23.0494 24.0851 24.2456C23.5082 25.5056 21.9567 29.5374 21.9567 29.5374" stroke="black" stroke-width="0.5" stroke-miterlimit="10"/>
<path d="M15.8853 31.9996C15.4011 29.9534 14.5551 27.9557 13.165 26.3921C11.775 24.8286 9.79904 23.7387 7.72743 23.7113C6.76785 23.6992 5.72756 23.9603 5.14763 24.7375C4.50791 25.5937 4.63944 26.8688 5.23432 27.7553C5.8292 28.6448 6.79774 29.2065 7.78722 29.589C8.36416 29.8137 9.00089 30.0202 9.3626 30.5302C9.49712 30.7215 9.58381 30.9461 9.66751 31.1647C9.91862 31.8175 10.1667 32.4702 10.4178 33.1229" fill="#FF88B4"/>
<path d="M15.8853 31.9996C15.4011 29.9534 14.5551 27.9557 13.165 26.3921C11.775 24.8286 9.79904 23.7387 7.72743 23.7113C6.76785 23.6992 5.72756 23.9603 5.14763 24.7375C4.50791 25.5937 4.63944 26.8688 5.23432 27.7553C5.82919 28.6448 6.79774 29.2065 7.78722 29.589C8.36416 29.8137 9.00089 30.0202 9.3626 30.5302C9.49712 30.7215 9.58381 30.9461 9.66751 31.1647C9.91862 31.8175 10.1667 32.4702 10.4178 33.1229" stroke="black" stroke-width="0.5" stroke-miterlimit="10"/>
<path d="M28.3988 41.8425C33.8543 41.7362 43.1243 38.5787 45.9014 37.2338C45.8834 38.6243 45.9043 40.0785 46.5381 41.3112C47.1718 42.5438 48.6127 43.4637 49.9131 43.0265C50.9623 42.6713 51.5931 41.5814 51.9368 40.5127C52.7141 38.1051 52.4929 35.3818 51.336 33.1382C50.6664 31.8388 49.5872 30.6335 48.1703 30.3542C47.1629 30.1569 46.1285 30.4514 45.154 30.7823C40.658 32.3094 35.5762 33.1109 35.5762 33.1109" fill="#FF88B4"/>
<path d="M28.3988 41.8425C33.8543 41.7362 43.1243 38.5787 45.9014 37.2338C45.8834 38.6243 45.9043 40.0785 46.5381 41.3112C47.1718 42.5438 48.6127 43.4637 49.9131 43.0265C50.9623 42.6713 51.5931 41.5814 51.9368 40.5127C52.7141 38.1051 52.4929 35.3818 51.336 33.1382C50.6664 31.8388 49.5872 30.6335 48.1703 30.3542C47.1629 30.1569 46.1285 30.4514 45.154 30.7823C40.658 32.3094 35.5762 33.1109 35.5762 33.1109" stroke="black" stroke-width="0.5" stroke-miterlimit="10"/>
</svg>
