<svg width="24" height="24" viewBox="0 0 24 24" fill="none" xmlns="http://www.w3.org/2000/svg">
<path d="M12 20C16.4183 20 20 16.4183 20 12C20 7.58172 16.4183 4 12 4C7.58172 4 4 7.58172 4 12C4 16.4183 7.58172 20 12 20Z" fill="#FFB020" stroke="#FFB020" stroke-width="1.5" stroke-linecap="round" stroke-linejoin="round"/>
<path d="M5.6001 6.3999C7.2001 7.99992 8.0001 9.86658 8.0001 11.9999C8.0001 14.1333 7.2001 15.9999 5.6001 17.5999" fill="#FFB020"/>
<path d="M5.6001 6.3999C7.2001 7.99992 8.0001 9.86658 8.0001 11.9999C8.0001 14.1333 7.2001 15.9999 5.6001 17.5999" stroke="#F5F5F5" stroke-width="1.5" stroke-linecap="round" stroke-linejoin="round"/>
<path d="M18.4 17.5999C16.8 15.9999 16 14.1333 16 11.9999C16 9.86658 16.8 7.99992 18.4 6.3999" fill="#FFB020"/>
<path d="M18.4 17.5999C16.8 15.9999 16 14.1333 16 11.9999C16 9.86658 16.8 7.99992 18.4 6.3999" stroke="#F5F5F5" stroke-width="1.5" stroke-linecap="round" stroke-linejoin="round"/>
</svg>
