<svg width="24" height="24" viewBox="0 0 24 24" fill="none" xmlns="http://www.w3.org/2000/svg">
<path d="M5.63606 18.3641C6.47179 19.1998 7.46395 19.8627 8.55588 20.315C9.64782 20.7673 10.8182 21.0001 12.0001 21.0001C13.182 21.0001 14.3523 20.7673 15.4442 20.315C16.5362 19.8627 17.5283 19.1998 18.3641 18.3641C19.1998 17.5283 19.8627 16.5362 20.315 15.4442C20.7673 14.3523 21.0001 13.182 21.0001 12.0001C21.0001 10.8182 20.7673 9.64782 20.315 8.55588C19.8627 7.46395 19.1998 6.47179 18.3641 5.63606C16.6762 3.94822 14.387 3 12.0001 3C9.61309 3 7.32389 3.94822 5.63606 5.63606C3.94822 7.32389 3 9.61309 3 12.0001C3 14.387 3.94822 16.6762 5.63606 18.3641Z" stroke="#0E0F12" stroke-width="1.5" stroke-linecap="round" stroke-linejoin="round"/>
<path d="M12.4945 3.01953C12.5631 4.28183 12.365 5.54441 11.9131 6.72504C11.4612 7.90567 10.7656 8.97785 9.87175 9.87175C8.97785 10.7656 7.90567 11.4612 6.72504 11.9131C5.54441 12.365 4.28183 12.5631 3.01953 12.4945" stroke="#0E0F12" stroke-width="1.5" stroke-linecap="round" stroke-linejoin="round"/>
<path d="M20.9804 11.5054C19.7181 11.4369 18.4556 11.635 17.2749 12.0869C16.0943 12.5388 15.0221 13.2343 14.1282 14.1282C13.2343 15.0221 12.5388 16.0943 12.0869 17.2749C11.635 18.4556 11.4369 19.7181 11.5054 20.9804" stroke="#0E0F12" stroke-width="1.5" stroke-linecap="round" stroke-linejoin="round"/>
<path d="M9 9L11 11" stroke="#0E0F12" stroke-width="1.5" stroke-linecap="round" stroke-linejoin="round"/>
<path d="M13 13L15 15" stroke="#0E0F12" stroke-width="1.5" stroke-linecap="round" stroke-linejoin="round"/>
<path d="M11 7L13 8" stroke="#0E0F12" stroke-width="1.5" stroke-linecap="round" stroke-linejoin="round"/>
<path d="M7 11L8 13" stroke="#0E0F12" stroke-width="1.5" stroke-linecap="round" stroke-linejoin="round"/>
<path d="M16 11L17 13" stroke="#0E0F12" stroke-width="1.5" stroke-linecap="round" stroke-linejoin="round"/>
<path d="M11 16L13 17" stroke="#0E0F12" stroke-width="1.5" stroke-linecap="round" stroke-linejoin="round"/>
</svg>
