<svg width="24" height="24" viewBox="0 0 24 24" fill="none" xmlns="http://www.w3.org/2000/svg">
<path d="M5.63593 18.3641C6.47167 19.1998 7.46382 19.8627 8.55576 20.315C9.6477 20.7673 10.818 21.0001 11.9999 21.0001C13.1818 21.0001 14.3522 20.7673 15.4441 20.315C16.536 19.8627 17.5282 19.1998 18.3639 18.3641C19.1997 17.5283 19.8626 16.5362 20.3149 15.4442C20.7672 14.3523 21 13.182 21 12.0001C21 10.8182 20.7672 9.64782 20.3149 8.55588C19.8626 7.46395 19.1997 6.47179 18.3639 5.63606C16.6761 3.94822 14.3869 3 11.9999 3C9.61297 3 7.32377 3.94822 5.63593 5.63606C3.9481 7.32389 2.99988 9.61309 2.99988 12.0001C2.99988 14.387 3.9481 16.6762 5.63593 18.3641Z" stroke="#3A3E42" stroke-width="1.5" stroke-linecap="round" stroke-linejoin="round"/>
<path d="M12.4945 3.01953C12.5631 4.28183 12.365 5.54441 11.9131 6.72504C11.4612 7.90567 10.7656 8.97785 9.87175 9.87175C8.97785 10.7656 7.90567 11.4612 6.72504 11.9131C5.54441 12.365 4.28183 12.5631 3.01953 12.4945" stroke="#3A3E42" stroke-width="1.5" stroke-linecap="round" stroke-linejoin="round"/>
<path d="M20.9804 11.5054C19.7181 11.4369 18.4556 11.635 17.2749 12.0869C16.0943 12.5388 15.0221 13.2343 14.1282 14.1282C13.2343 15.0221 12.5388 16.0943 12.0869 17.2749C11.635 18.4556 11.4369 19.7181 11.5054 20.9804" stroke="#3A3E42" stroke-width="1.5" stroke-linecap="round" stroke-linejoin="round"/>
<path d="M9 9L11 11" stroke="#3A3E42" stroke-width="1.5" stroke-linecap="round" stroke-linejoin="round"/>
<path d="M13 13L15 15" stroke="#3A3E42" stroke-width="1.5" stroke-linecap="round" stroke-linejoin="round"/>
<path d="M11 7L13 8" stroke="#3A3E42" stroke-width="1.5" stroke-linecap="round" stroke-linejoin="round"/>
<path d="M7 11L8 13" stroke="#3A3E42" stroke-width="1.5" stroke-linecap="round" stroke-linejoin="round"/>
<path d="M16 11L17 13" stroke="#3A3E42" stroke-width="1.5" stroke-linecap="round" stroke-linejoin="round"/>
<path d="M11 16L13 17" stroke="#3A3E42" stroke-width="1.5" stroke-linecap="round" stroke-linejoin="round"/>
</svg>
