<svg width="24" height="24" viewBox="0 0 24 24" fill="none" xmlns="http://www.w3.org/2000/svg">
<path d="M6.75 7.5H9C9.19891 7.5 9.38968 7.42098 9.53033 7.28033C9.67098 7.13968 9.75 6.94891 9.75 6.75C9.75 6.55109 9.67098 6.36032 9.53033 6.21967C9.38968 6.07902 9.19891 6 9 6H6.75C6.55109 6 6.36032 6.07902 6.21967 6.21967C6.07902 6.36032 6 6.55109 6 6.75C6 6.94891 6.07902 7.13968 6.21967 7.28033C6.36032 7.42098 6.55109 7.5 6.75 7.5Z" fill="#B7B7B7"/>
<path d="M6.75 10.5H9C9.19891 10.5 9.38968 10.421 9.53033 10.2803C9.67098 10.1397 9.75 9.94891 9.75 9.75C9.75 9.55109 9.67098 9.36032 9.53033 9.21967C9.38968 9.07902 9.19891 9 9 9H6.75C6.55109 9 6.36032 9.07902 6.21967 9.21967C6.07902 9.36032 6 9.55109 6 9.75C6 9.94891 6.07902 10.1397 6.21967 10.2803C6.36032 10.421 6.55109 10.5 6.75 10.5Z" fill="#B7B7B7"/>
<path d="M20.25 3H3.75C3.55109 3 3.36032 3.07902 3.21967 3.21967C3.07902 3.36032 3 3.55109 3 3.75V18.75C3 18.9489 3.07902 19.1397 3.21967 19.2803C3.36032 19.421 3.55109 19.5 3.75 19.5H4.5V20.25C4.5 20.4489 4.57902 20.6397 4.71967 20.7803C4.86032 20.921 5.05109 21 5.25 21C5.44891 21 5.63968 20.921 5.78033 20.7803C5.92098 20.6397 6 20.4489 6 20.25V19.5H9.75V20.25C9.75 20.4489 9.82902 20.6397 9.96967 20.7803C10.1103 20.921 10.3011 21 10.5 21C10.6989 21 10.8897 20.921 11.0303 20.7803C11.171 20.6397 11.25 20.4489 11.25 20.25V19.5H12.75V20.25C12.75 20.4489 12.829 20.6397 12.9697 20.7803C13.1103 20.921 13.3011 21 13.5 21C13.6989 21 13.8897 20.921 14.0303 20.7803C14.171 20.6397 14.25 20.4489 14.25 20.25V19.5H18V20.25C18 20.4489 18.079 20.6397 18.2197 20.7803C18.3603 20.921 18.5511 21 18.75 21C18.9489 21 19.1397 20.921 19.2803 20.7803C19.421 20.6397 19.5 20.4489 19.5 20.25V19.5H20.25C20.4489 19.5 20.6397 19.421 20.7803 19.2803C20.921 19.1397 21 18.9489 21 18.75V3.75C21 3.55109 20.921 3.36032 20.7803 3.21967C20.6397 3.07902 20.4489 3 20.25 3ZM4.5 4.5H11.25V18H4.5V4.5ZM19.5 18H12.75V4.5H19.5V18Z" fill="#B7B7B7"/>
<path d="M15 7.5H17.25C17.4489 7.5 17.6397 7.42098 17.7803 7.28033C17.921 7.13968 18 6.94891 18 6.75C18 6.55109 17.921 6.36032 17.7803 6.21967C17.6397 6.07902 17.4489 6 17.25 6H15C14.8011 6 14.6103 6.07902 14.4697 6.21967C14.329 6.36032 14.25 6.55109 14.25 6.75C14.25 6.94891 14.329 7.13968 14.4697 7.28033C14.6103 7.42098 14.8011 7.5 15 7.5Z" fill="#B7B7B7"/>
<path d="M15 10.5H17.25C17.4489 10.5 17.6397 10.421 17.7803 10.2803C17.921 10.1397 18 9.94891 18 9.75C18 9.55109 17.921 9.36032 17.7803 9.21967C17.6397 9.07902 17.4489 9 17.25 9H15C14.8011 9 14.6103 9.07902 14.4697 9.21967C14.329 9.36032 14.25 9.55109 14.25 9.75C14.25 9.94891 14.329 10.1397 14.4697 10.2803C14.6103 10.421 14.8011 10.5 15 10.5Z" fill="#B7B7B7"/>
<path d="M6.75 14.25C6.94891 14.25 7.13968 14.171 7.28033 14.0303C7.42098 13.8897 7.5 13.6989 7.5 13.5V12.75C7.5 12.5511 7.42098 12.3603 7.28033 12.2197C7.13968 12.079 6.94891 12 6.75 12C6.55109 12 6.36032 12.079 6.21967 12.2197C6.07902 12.3603 6 12.5511 6 12.75V13.5C6 13.6989 6.07902 13.8897 6.21967 14.0303C6.36032 14.171 6.55109 14.25 6.75 14.25Z" fill="#B7B7B7"/>
<path d="M15 14.25C15.1989 14.25 15.3897 14.171 15.5303 14.0303C15.671 13.8897 15.75 13.6989 15.75 13.5V12.75C15.75 12.5511 15.671 12.3603 15.5303 12.2197C15.3897 12.079 15.1989 12 15 12C14.8011 12 14.6103 12.079 14.4697 12.2197C14.329 12.3603 14.25 12.5511 14.25 12.75V13.5C14.25 13.6989 14.329 13.8897 14.4697 14.0303C14.6103 14.171 14.8011 14.25 15 14.25Z" fill="#B7B7B7"/>
</svg>
