<svg width="48" height="48" viewBox="0 0 48 48" fill="none" xmlns="http://www.w3.org/2000/svg">
<rect width="48" height="48" rx="5" fill="#F9F9F9"/>
<path fill-rule="evenodd" clip-rule="evenodd" d="M12.2497 16.5624C13.4666 14.4629 16.5089 14.4629 17.7258 16.5624L24.523 28.2887C25.74 30.3881 24.2188 33.0124 21.7849 33.0124H8.19057C5.75672 33.0124 4.23554 30.3881 5.45246 28.2887L12.2497 16.5624ZM17.7083 25.1059C16.7536 25.1051 15.8188 25.3781 15.0154 25.8922C14.2099 25.3848 13.2753 25.1185 12.3225 25.125C12.0427 25.1262 11.7634 25.1506 11.4877 25.198C11.3974 25.2135 11.3156 25.2606 11.2571 25.3309C11.1985 25.4013 11.1671 25.4901 11.1684 25.5815V30.1839C11.1676 30.2402 11.1792 30.2961 11.2025 30.3475C11.2258 30.3988 11.2601 30.4444 11.3031 30.481C11.3461 30.5176 11.3967 30.5444 11.4512 30.5593C11.5057 30.5742 11.5628 30.577 11.6185 30.5674C12.1698 30.4723 12.7346 30.4881 13.2797 30.6139C13.8247 30.7397 14.3391 30.973 14.7923 31.3L14.8385 31.3268H14.8808C14.9234 31.3445 14.9692 31.3537 15.0154 31.3537C15.0616 31.3537 15.1074 31.3445 15.1501 31.3268H15.1924L15.2386 31.3C15.6886 30.9657 16.2015 30.7248 16.7466 30.5917C17.2918 30.4587 17.8582 30.436 18.4123 30.5252C18.468 30.5348 18.5252 30.532 18.5797 30.5171C18.6342 30.5022 18.6848 30.4755 18.7277 30.4388C18.7707 30.4022 18.805 30.3566 18.8283 30.3053C18.8516 30.2539 18.8633 30.1981 18.8624 30.1417V25.5393C18.8584 25.4519 18.8246 25.3685 18.7665 25.3029C18.7084 25.2374 18.6296 25.1936 18.5431 25.1788C18.2674 25.1314 17.9881 25.107 17.7083 25.1059ZM13.078 22.3967C12.6654 22.3967 12.3308 22.8051 12.3308 23.309C12.3308 23.8128 12.6653 24.2212 13.078 24.2212C13.4907 24.2212 13.8253 23.8128 13.8253 23.309C13.8253 22.8051 13.4907 22.3967 13.078 22.3967ZM17.0082 22.3967C16.5955 22.3967 16.2609 22.8051 16.2608 23.309C16.2609 23.8128 16.5955 24.2212 17.0082 24.2212C17.4209 24.2212 17.7554 23.8128 17.7554 23.309C17.7554 22.8051 17.4208 22.3967 17.0082 22.3967Z" fill="#1CCEB0"/>
<path d="M33.9952 14.9878C36.3952 14.9878 38.5761 15.926 40.1912 17.4557C38.5057 19.1249 37.4615 21.4405 37.4615 24.0001C37.4615 26.5597 38.5057 28.8753 40.1912 30.5444C38.5761 32.0741 36.3952 33.0124 33.9952 33.0124C31.5826 33.0124 29.3914 32.0643 27.7739 30.5205C29.4452 28.8531 30.4794 26.5474 30.4794 24.0001C30.4794 21.4527 29.4452 19.147 27.7739 17.4796C29.3914 15.9358 31.5826 14.9878 33.9952 14.9878Z" fill="#1CCEB0"/>
<path d="M26.6861 18.6832C27.9761 20.0814 28.7642 21.9488 28.7642 24.0001C28.7642 26.0514 27.9761 27.9187 26.6861 29.3169C25.5953 27.8265 24.9514 25.9885 24.9514 24.0001C24.9514 22.0116 25.5953 20.1736 26.6861 18.6832Z" fill="#1CCEB0"/>
<path d="M41.3033 18.7693C42.3563 20.2441 42.9759 22.0497 42.9759 24.0001C42.9759 25.9504 42.3563 27.7559 41.3033 29.2308C40.0077 27.8687 39.2125 26.0272 39.2125 24.0001C39.2125 21.973 40.0076 20.1313 41.3033 18.7693Z" fill="#1CCEB0"/>
</svg>
